<svg id="Layer_1" data-name="Layer 1" xmlns="http://www.w3.org/2000/svg" viewBox="0 0 501.06 501.06"><defs><style>.cls-1{fill:#fff;stroke:#231f20;stroke-miterlimit:10;stroke-width:1.06px;}.cls-2{fill:#3c3c3c;}.cls-3{font-size:37.67px;fill:#426e87;}.cls-3,.cls-4{font-family:Daniel;letter-spacing:-1px;}.cls-4{font-size:45.33px;fill:#32758a;}</style></defs><title>attica</title><rect class="cls-1" x="0.53" y="0.53" width="500" height="500"/><path class="cls-2" d="M-756.18,91.85c-2.19,2.39-3,6.4-3,9.66a47,47,0,0,0,.46,6.5c0.32,2.36,1.4,4.47.59,6.92a22.77,22.77,0,0,1-2.75,5c2.09-1.38,3.47-2.34,4.55-4.67a7.94,7.94,0,0,0,0-6.11,22.43,22.43,0,0,1-1.1-6.49,33.91,33.91,0,0,1,.16-5.76,39.27,39.27,0,0,1,1.11-5" transform="translate(1093.11 21.53)"/><path class="cls-2" d="M-755.33,127.83c1.56-.57,1.54-1.75,1.45-1.93-2.5-.06-2.27-3.21-0.42-4.33,1.66-1,3.14,2.26,5.07.63,3.08-2.61,2.21-8.12,2.2-11.8a50.69,50.69,0,0,1,1.14-12.46c0.4-1.62.19-3.55,1.1-5,0.71-1.14,2.08-1.33,3-2.19,1.2-1.09,1-2,1.19-3.47,0.19-1.74.18-1.86,0.34-3.6,0.1-1,.28-2.88.38-3.86a41.52,41.52,0,0,0,.24-4.23c-0.08,3.81.41,5.53,0.42,9.35,0,1,.33,4.47.18,5.3a12,12,0,0,1-2.4,3.93c-1.11,1.22-2,1.58-2.16,3.25-0.31,3.36-.76,6.93-1.13,10.27-0.48,4.32-.43,8.26-0.84,12.47-0.12,1.23.1,2.81-.15,4-0.61,3.09-2.68,3.17-5.4,3.65A37.61,37.61,0,0,1-755.33,127.83Z" transform="translate(1093.11 21.53)"/><path class="cls-2" d="M-749,113.91c0.23,2.38-.21,5.29-2.84,5.55-1,.1-3.47-0.55-3.9.66a3.72,3.72,0,0,1,3.07-2.82c2.64-.73,3.46-1.14,3.67-3.4" transform="translate(1093.11 21.53)"/><path class="cls-2" d="M-752.77,86.08c0.52,0.87,1.32,1.69,1.67,2.38A22.52,22.52,0,0,1-750,90.58a18.42,18.42,0,0,1,.88,3.24,6.28,6.28,0,0,1-.64,3.3c-1.51,3.95-.35,6.32-1,10.42a11.85,11.85,0,0,1-2.38,6c0.17-.61.5-1.47,0.85-2.69,0.48-1.61.17-3.34,0.08-5.49-0.07-1.61.06-3,.13-4.55,0.09-2.11.47-4.38-.37-6.39-0.75-1.82-2.17-2.09-2.4-5,1.1,0.89,2.47,1.43,2.69.17s-0.57-2.56-.58-3.5" transform="translate(1093.11 21.53)"/><path class="cls-2" d="M-744.66,77.14c0.6,1.65-.12,3.56-1.05,5a6.79,6.79,0,0,0-1.43,3.41c0,1.91,1.18,2.94.81,3.7-1,.5-1.22-0.07-1.67-0.75a5,5,0,0,0-1.31-1.52c-1-.82-2.59-2.73-1-3.82,0.66-.44,1.87-0.16,2.57-0.56A3.72,3.72,0,0,0-746.5,81,11.28,11.28,0,0,0-744.66,77.14Z" transform="translate(1093.11 21.53)"/><path class="cls-2" d="M-755.49,76.44c0.49,0.33.56,0.73,1.87,1.9a11,11,0,0,0,1.87,1.5c-0.39-1.85.44-2.54-.79-3.1a4.72,4.72,0,0,0-1.56.09A2.23,2.23,0,0,1-755.49,76.44Z" transform="translate(1093.11 21.53)"/><path class="cls-2" d="M-785,126.5c-0.29.8-1.71,6.37-2.42,7.93a68.06,68.06,0,0,0,1.52-11.3c0.43-9.6-1.58-13.46,3.65-26.05,0.4-1,.86-1.93,1.33-2.86s2.42-3.21,2.31-4.39a82.38,82.38,0,0,0,1,9,40.55,40.55,0,0,0,1.67,4.67c-1.09,1.19-2.29,4.55-3,6-0.94,2.06-1.9,3.91-2.71,6C-783.12,119.65-783.92,123.57-785,126.5Z" transform="translate(1093.11 21.53)"/><path class="cls-2" d="M-728.72,69.16c-1-.07-1.43,2-1.81,2.73A7.39,7.39,0,0,1-732.72,75a5.49,5.49,0,0,1-3.64,1.18c-1.47,0-2.27-1-3.49-1.27-0.18,1.81.18,5.69-2,6.41a19,19,0,0,0-.9-4.21c0-.53.34-0.61,1-1.22,1-.9,1.53-1.79,2.75-2.3a20.49,20.49,0,0,0,3.3-1.8c2-1.32,4.4-3.09,7-2.65" transform="translate(1093.11 21.53)"/><path class="cls-2" d="M-733.88,65.24c-2.91,0-4.79.13-7.15,1.78a10.43,10.43,0,0,0-3.77,5.41,15.16,15.16,0,0,0,3.36-.25c2.23-.12,2.81,0,3.33-0.74,2.35-3.47,1.8-4.64,4.22-6.21" transform="translate(1093.11 21.53)"/><path class="cls-2" d="M-759.63,105.5c-2.28,0-3.73.18-4.51,2.64a12.14,12.14,0,0,0,0,5.81c0.42,2.11,1.7,2.79,1.48,5.48-0.17,2.1-1.28,3.17.1,4.81a9.92,9.92,0,0,0,2.14,1.78c1.78,1.16,2.73.51,3.07,1.64a12.59,12.59,0,0,1-2.59-.35c-2.19-.54-3.86-1-5.3-3-1.61-2.19,0-4.12-.31-6.33-0.25-1.91-1.36-4-2.1-5.86s-0.91-4.62-2.88-5.74c-0.81-.46-2.47-0.45-4.29-1.87-1.76-1.23-2.72-4-3.12-6.25-0.85-4.86-1.38-8.51.62-12.41a18.3,18.3,0,0,1,4-5.48,21.38,21.38,0,0,1,7.1-3.9c-2.56,1.51-4.71,2.53-6.3,4.85a17.74,17.74,0,0,0-2.55,13.46c0.68,2.84,2.44,5.79,5.07,7.09,3.11,1.55,7,.54,10.27-0.11,0.36,1.18-.76,2.38,0,3.6" transform="translate(1093.11 21.53)"/><path class="cls-2" d="M-790.35,117.16c-1.35-2.34-4.91-5.23-6.74-7.25-2.15-2.38-5.21-4.73-7.3-9.26,2.54,3,4.26,5.07,6.9,4s1.81-5.38,1.61-7.46-0.76-5.33-.23-7.31c1.28-4.81,6.94-6.2,9.64-7.74s7.27-4.37,12.07-5.56a78.18,78.18,0,0,0-6.81,4.89,57.36,57.36,0,0,0-5.25,5.34c-3.12,3.39-4.19,7.81-4.49,12.29-0.21,3.09-.56,4.94-0.69,8.05a39.36,39.36,0,0,0,.22,5.71c0.18,1.41.69,2.57,1.08,4.28" transform="translate(1093.11 21.53)"/><path class="cls-2" d="M-810,86.64a1.93,1.93,0,0,0,1.94.41,2.66,2.66,0,0,0,1.28-2.43,2,2,0,0,1,.45-1.68c0.74-.76,1.45-1.55,2.18-2.31a21,21,0,0,1,2.93-2.51c1.36-.94,2.71-2.15,4.15-3,1.25-.72,2.56-1.67,3.86-2.32a26.68,26.68,0,0,1,5.86-2.22c2-.52,4.87-1.44,6.83-1.92,1.69-.42,4.54-0.6,6.09-1a29.41,29.41,0,0,0-5.32.13c-1.5.17-3,.3-4.48,0.53s-4.19.93-6.23,1.46a40,40,0,0,0-5.78,2.11,25.45,25.45,0,0,0-4.85,2.72c-2.28,1.64-4.17,3.18-6.28,5a12.08,12.08,0,0,0-3,4.45A2.44,2.44,0,0,0-810,86.64Z" transform="translate(1093.11 21.53)"/><path class="cls-2" d="M-762.46,62.73a26.9,26.9,0,0,1,3.7,1,32.12,32.12,0,0,1,5,2.21A52.32,52.32,0,0,1-745,71.36c0.52,0.43.75,0.64,0.43,1s-1.68-.43-2-0.71a38.17,38.17,0,0,0-15.9-8.89" transform="translate(1093.11 21.53)"/><path class="cls-2" d="M-793.79,65.87c-13.5,4.46-20.87,12.47-30.33,20.45-2.28,1.92-4.74,2.55-7.52,3.36a15.37,15.37,0,0,0,2.87,2.72c2.47,1.38,5.84-2.31,10.49-8.12,0,0,11.43-13.42,24.49-18.4" transform="translate(1093.11 21.53)"/><path class="cls-2" d="M-839.7,102.26a9.78,9.78,0,0,1,4.66-.71,43.74,43.74,0,0,1,5.06.22c1.73,0.28,3.87.51,5.65,0.83,2.43,0.43,4.11.43,6.43,0.89a23.9,23.9,0,0,1,4.55,1.44c-1.33.13-3.68-.05-3.66,1.9a15.61,15.61,0,0,0,1.08,4.83,37.26,37.26,0,0,1,1.86,8.65,21.51,21.51,0,0,1,.11,4.42,20.33,20.33,0,0,0-1.66-6.9,34.84,34.84,0,0,0-2.58-5.64,23.24,23.24,0,0,0-3.52-4.56,19.14,19.14,0,0,0-6.62-4,22.4,22.4,0,0,0-5.52-1.34A20.24,20.24,0,0,0-839.7,102.26Z" transform="translate(1093.11 21.53)"/><path class="cls-2" d="M-807.18,102.22c2.14,6.36,5.4,9.22,9.39,11.85s11.11,8.64,9.75,16.88-3.93,18.47-5.63,26.79c-5.81,28.55-10.38,46.63-10.38,46.63,6.71-32.77,9-41.62,9.81-46.82s5.43-24.71,3.22-30.94c-1.38-3.91-4.51-7.31-8.33-10.41s-7.25-5.06-7.84-14" transform="translate(1093.11 21.53)"/><path class="cls-2" d="M-799.26,142c1.84,4.76,2.41,9.48.49,17.32-1.21,4.92-2.81,9-3.7,13.09-1.09,5-2.16,17.35-2.25,19.67-0.26,6.25-.51-6.06-1.34-10.92a50.27,50.27,0,0,1-.89-7.36c0.08-.86,1.12-1.21,2.24-3.12a51.94,51.94,0,0,0,4.12-11.44A88.23,88.23,0,0,0-799.26,142Z" transform="translate(1093.11 21.53)"/><path class="cls-2" d="M-820.15,149.21c0.39,2.49,4.46,22.83,5.24,25.14s0.52,3.16.52,3.16c-3.62-10.32-5.85-16.06-6.9-18.73s-2.17-7-2.12-8.13c0.06-1.51,3.76-5.92,3.38-4.76A8,8,0,0,0-820.15,149.21Z" transform="translate(1093.11 21.53)"/><path class="cls-2" d="M-822.11,124.24c0.65,0,.84,2.37.86,4.13,0,3.25-3.64,12.66-4.17,15.53s0.75,9.78,2.56,14c3,6.94-1.29-3-4.09-7.19-1.49-2.23-3.85-5.11-3.86-5.9,0-1.17,2-.4,3.83-3.64C-825.76,138.95-821.89,130.86-822.11,124.24Z" transform="translate(1093.11 21.53)"/><path class="cls-2" d="M-867.57,143.7c15-1.36,17.93-.47,22.77.27,2.89,0.44,7.5,1.47,7.5,1.47,4.79-6,5.45-8.33,5.45-8.33s-3.32,4.69-8.45,5.87c-2.43.56-6,.74-6.06-0.66a3.73,3.73,0,0,1,1.51-2.84,59.76,59.76,0,0,1-9.11,2.39A119.88,119.88,0,0,1-867.57,143.7Z" transform="translate(1093.11 21.53)"/><path class="cls-2" d="M-874.8,93.65c0.67,0.1-1.69-1.44-3.17-2.91-0.71-.71,1.12-0.87-1.13-1.47-1.42-.38-5.37-1-7.62-1.84A22.69,22.69,0,0,0-894,85.51c-2.77-.16-14.71,2.3-19.21,5-3,1.79-8.63,6.51-11,11.32-0.77,1.54,4-6,10.53-9.84,4.75-2.79,11.11-3.89,14.88-4.52a20.19,20.19,0,0,1,7.45.63c2.24,0.57,5.2,1.37,5.2,1.37a24.51,24.51,0,0,1,5,1.8A25,25,0,0,0-874.8,93.65Z" transform="translate(1093.11 21.53)"/><path class="cls-2" d="M-869,143.88c-15,1.72-26.38,8.48-32.59,16.64s-10,17.32-12,30.52c-2,12.91,1.83-17.36,3.72-25,1.75-7,4-10.13,5-13.35,1.47-4.91,1.87-10.55,2.72-14.38s0.67-7.62,3.28-2.44c1.51,3,7.74,5.14,11.78,1.37,3.73-3.48,5.63-5.16,8.22-10.16,1.55-3,2.28-8.19,2.28-8.19,0.27-.22.23,1.32-0.32,5.48-1.18,9-2.14,12.06-1.16,14.37C-875.62,144.59-869,143.88-869,143.88Z" transform="translate(1093.11 21.53)"/><path class="cls-2" d="M-916.53,113.81c-0.37,1.76.73,4.81,2.16,7.4,1.31,2.37,3.23,8.56,2.21,13.37s-0.4-.91-0.73-3c-0.3-1.86-1.62-3.39-3.79-7.67s-2.63-8.73-1.26-10.89c2.77-4.39,4.08-4.42,6-6.38C-911.1,105.83-916.11,111.82-916.53,113.81Z" transform="translate(1093.11 21.53)"/><path class="cls-2" d="M-931,150.23c7.08,0.37,9.63-1.71,8.74-7-0.44-2.65-.93-6.7-0.93-6.7a78.31,78.31,0,0,1,1.58,7.77c0.21,3.07-1.48,5.29-3.29,5.82A14,14,0,0,1-931,150.23Z" transform="translate(1093.11 21.53)"/><path class="cls-2" d="M-926.43,106.63c-3.4,10.18-3.3,17-.54,24.63a24,24,0,0,0,5.37,7.91,56.17,56.17,0,0,1-4.27-7.79,27.3,27.3,0,0,1-2.09-8.86,41.94,41.94,0,0,1,.25-9.27A66.06,66.06,0,0,1-926.43,106.63Z" transform="translate(1093.11 21.53)"/><path class="cls-2" d="M-931,151.53c13.28,28.27,10.92,53.86,10.89,53.22C-921.49,173.19-931,151.53-931,151.53Z" transform="translate(1093.11 21.53)"/><path class="cls-2" d="M-880.45,89c28.06,11.16,53.29-.79,53.29-0.79C-856,98.25-880.45,89-880.45,89Z" transform="translate(1093.11 21.53)"/><path class="cls-2" d="M-953.07,150.48s8.58-5.56,12.88-14.85c1.27-2.74,3,2.2,3,2.2s2.7-9.67,1.73-26.31C-935.48,111.52-936.81,135.68-953.07,150.48Z" transform="translate(1093.11 21.53)"/><path class="cls-2" d="M-917.76,94.31c-6.62-5.08-9.35-4.49-12-5.06,0,0,1.6,2.56,1.09,3.43-0.35.59-4.54-.58-9.63,0.49,0,0,9.92-.65,12,1.8,1,1.18-4.92,5.69-7.11,10.61,0,0,4.33-7.54,10.59-6.12Z" transform="translate(1093.11 21.53)"/><path class="cls-2" d="M-950.13,132.5a61.84,61.84,0,0,0-3.26-14.06c-0.53-1.37.11-.6,0.53-2.42a46.83,46.83,0,0,1,2.65-7.85S-952.1,114.15-950.13,132.5Z" transform="translate(1093.11 21.53)"/><path class="cls-2" d="M-940.46,93.87s-5.27,2.42-10.44,11.12C-950.9,105-947.39,96.76-940.46,93.87Z" transform="translate(1093.11 21.53)"/><path class="cls-2" d="M-953.19,116.72c-1.09,1.09-2.63,3.34-2.61,3,0.05-.81,2.19-8.5,2.19-8.5A39.81,39.81,0,0,0-956.44,122,36.6,36.6,0,0,1-953.19,116.72Z" transform="translate(1093.11 21.53)"/><path class="cls-2" d="M-949.39,136.39a21.83,21.83,0,0,1-2.15,12.16c2.46-6.15,2.1-9.2,1.52-15.55Z" transform="translate(1093.11 21.53)"/><text class="cls-3" transform="translate(78.66 266.15) rotate(-0.19)">Spiros Papadopoulos</text><text class="cls-4" transform="translate(15.58 332.19) rotate(-0.19) scale(1 0.9)">Equine Dental Services</text></svg>