<?xml version="1.0" encoding="utf-8"?>
<!-- Generator: Adobe Illustrator 19.2.0, SVG Export Plug-In . SVG Version: 6.00 Build 0)  -->
<svg version="1.1" id="Layer_1" xmlns="http://www.w3.org/2000/svg" xmlns:xlink="http://www.w3.org/1999/xlink" x="0px" y="0px"
	 viewBox="0 0 100 100" style="enable-background:new 0 0 100 100;" xml:space="preserve">
<style type="text/css">
	.st0{fill:#FFFFFF;}
	.st1{fill:url(#SVGID_1_);}
	.st2{fill:#2FB8F2;}
	.st3{fill:#125D94;}
	.st4{font-family:'KaushanScript-Regular';}
	.st5{font-size:16.0632px;}
</style>
<rect class="st0" width="100" height="100"/>
<g>
	<g>
		
			<linearGradient id="SVGID_1_" gradientUnits="userSpaceOnUse" x1="57.382" y1="45.3903" x2="43.431" y2="101.345" gradientTransform="matrix(1 0 0 -1 0 102)">
			<stop  offset="0" style="stop-color:#24B0F1"/>
			<stop  offset="1" style="stop-color:#26B5F1"/>
		</linearGradient>
		<path class="st1" d="M26.2,16.2V5.9c0-0.9,1-1.5,1.8-1.1l5.8,3C38.4,4.5,44,2.6,50,2.6s11.5,1.9,16.1,5.2L72,4.7
			c0.8-0.4,1.8,0.2,1.8,1.1v10.4c2.4,4.1,3.7,8.8,3.7,13.9c0,15.2-12.3,27.5-27.5,27.5S22.5,45.3,22.5,30.1
			C22.5,25,23.9,20.3,26.2,16.2z"/>
	</g>
	<g>
		<circle class="st2" cx="50" cy="69.7" r="10.5"/>
		<circle class="st2" cx="66" cy="64.3" r="5.4"/>
		<circle class="st2" cx="34" cy="63.6" r="5.4"/>
	</g>
</g>
<g>
	<text transform="matrix(1 0 0 1 2.4551 95.3777)" class="st3 st4 st5">Mister Hacava</text>
</g>
</svg>
