<?xml version="1.0" encoding="utf-8"?>
<!-- Generator: Adobe Illustrator 19.2.0, SVG Export Plug-In . SVG Version: 6.00 Build 0)  -->
<svg version="1.1" id="Layer_1" xmlns="http://www.w3.org/2000/svg" xmlns:xlink="http://www.w3.org/1999/xlink" x="0px" y="0px"
	 viewBox="0 0 100 100" style="enable-background:new 0 0 100 100;" xml:space="preserve">
<style type="text/css">
	.st0{fill:#FFFFFF;}
	.st1{fill:#3F471D;stroke:#3F471D;stroke-width:0.5108;stroke-miterlimit:10;}
</style>
<rect class="st0" width="100" height="100"/>
<g>
	<path class="st1" d="M26.7,36.2c0.3-0.5,0.6-1,0.9-1.4s0.5-1,0.7-1.5s0.2-1,0.2-1.6c0-0.5-0.2-1-0.6-1.4c-0.5-0.5-1.1-0.8-1.7-0.8
		c-0.7-0.1-1.3,0.1-2,0.2c-0.7,0.2-1.3,0.5-1.9,1s-1.1,0.8-1.6,1.2c-0.4,0.5-0.9,1-1.3,1.6s-0.7,1.3-1,1.9c-0.1,0.3-0.2,0.6-0.2,1
		s-0.1,0.7,0,1.1s0.1,0.7,0.3,1c0.2,0.3,0.4,0.5,0.7,0.7c0.3,0.1,0.6,0.2,1,0.2c0.3,0,0.7-0.1,1-0.2c0.3-0.1,0.6-0.3,0.8-0.5
		c0.3-0.2,0.5-0.4,0.7-0.6c0.5-0.4,0.9-1,1.3-1.6s0.6-1.2,0.7-1.9c0.1-0.3,0.1-0.5,0-0.8c-0.1-0.2-0.1-0.5-0.1-0.7
		c-0.1-0.1-0.1-0.2-0.1-0.4c0-0.1,0.1-0.2,0.3-0.2c0.1,0,0.2,0.1,0.3,0.2c0.1,0.1,0.1,0.2,0.1,0.4c0.1,0.4,0.1,0.7,0.1,1
		s-0.1,0.7-0.2,1.1c-0.1,0.4-0.2,0.7-0.4,1c-0.2,0.4-0.4,0.7-0.5,0.9c-0.2,0.3-0.5,0.6-0.8,1c-0.3,0.3-0.7,0.6-1,0.9
		c-0.4,0.2-0.8,0.5-1.2,0.7c-0.4,0.2-0.8,0.2-1.3,0.3c-0.4,0-0.8-0.1-1.1-0.2c-0.4-0.2-0.7-0.5-1-1c-0.4-0.7-0.6-1.3-0.5-2
		s0.2-1.4,0.5-2.1c0.3-0.7,0.7-1.3,1.2-2c0.5-0.6,1-1.1,1.4-1.6c0.5-0.4,1.1-0.8,1.8-1.3c0.5-0.4,1.3-0.7,2-0.8
		c0.7-0.2,1.4-0.2,2.2-0.1c0.7,0.1,1.4,0.4,2,1c0.4,0.4,0.7,0.7,0.8,1.2c0.2,0.4,0.2,0.9,0.2,1.3c0,0.5-0.1,0.9-0.3,1.4
		c-0.2,0.5-0.4,0.9-0.5,1.3c-0.2,0.4-0.4,0.8-0.7,1.1c0.4,0,0.8,0.1,1.3,0.4c0.4-0.2,0.8-0.4,1.1-0.6c0.4-0.2,0.7-0.4,1-0.6
		c0.5-0.3,1-0.7,1.6-1.1c0.5-0.4,1.1-0.8,1.6-1.2s1-0.9,1.4-1.3c0.5-0.5,0.8-0.9,1.1-1.4l0.1-0.1c0-0.1,0.1-0.1,0.1-0.2
		c0.1-0.1,0.1-0.1,0.1-0.2c0.1-0.1,0.1-0.1,0.1-0.1c0.1,0,0.2,0.1,0.2,0.3s-0.1,0.4-0.2,0.7s-0.2,0.5-0.3,0.7s-0.2,0.4-0.2,0.4
		c-0.6,0.8-1.3,1.6-2.1,2.3s-1.7,1.3-2.5,1.8s-1.7,1-2.5,1.3c0.4,0.4,0.8,1,1.1,1.5c0.3,0.6,0.6,1.1,0.8,1.7c0.2,0.5,0.5,1,0.8,1.6
		s0.7,1.1,1,1.6c0.4,0.5,0.8,1,1.3,1.3c0.5,0.4,1,0.5,1.7,0.6c0.4,0.1,0.9,0,1.3-0.2c0.4-0.1,0.8-0.4,1.1-0.7
		c0.1-0.1,0.1-0.2,0.2-0.3c0.1-0.1,0.1-0.2,0.2-0.2c0.1-0.1,0.2-0.1,0.2-0.1c0.1,0.1,0.1,0.1,0.1,0.2c0,0.1,0,0.2,0,0.3
		s-0.1,0.2-0.1,0.4c-0.2,0.3-0.4,0.5-0.7,0.7s-0.6,0.4-0.9,0.5c-0.7,0.3-1.3,0.4-2,0.2c-0.6-0.1-1.2-0.4-1.7-0.8s-1-0.8-1.4-1.4
		c-0.4-0.5-0.8-1.1-1.1-1.6c-0.2-0.4-0.4-0.7-0.6-1.1c-0.2-0.4-0.4-0.8-0.5-1.1c-0.2-0.4-0.4-0.8-0.5-1.1c-0.2-0.4-0.4-0.7-0.6-1.1
		c-0.1-0.1-0.2-0.2-0.3-0.4c-0.1-0.1-0.2-0.2-0.3-0.3c-0.3,0.1-0.7,0.2-1,0.3c-0.4,0.1-0.7,0.1-1,0.1c-0.3,0.5-0.7,0.9-1,1.4
		c-0.4,0.5-0.6,1-0.8,1.4c-0.1,0.2-0.2,0.5-0.3,0.7c-0.1,0.2-0.1,0.5-0.2,0.7c0,0.1,0,0.2,0.1,0.4c0.1,0.1,0.1,0.2,0.1,0.4
		s0,0.3-0.1,0.4c-0.1,0.1-0.2,0.1-0.4-0.1c-0.1-0.1-0.2-0.3-0.2-0.5C24,42.5,24,42.3,24,42.2c0-0.2,0-0.5,0.1-0.8
		c0.1-0.2,0.1-0.5,0.2-0.8c0.1-0.2,0.2-0.5,0.4-0.7c0.1-0.2,0.2-0.5,0.4-0.7c0.2-0.3,0.4-0.5,0.5-0.8c0.2-0.2,0.4-0.5,0.5-0.8
		c-0.1-0.3-0.1-0.5,0.1-0.7C26.2,36.5,26.4,36.3,26.7,36.2z M28.3,36.9c-0.2-0.1-0.5-0.1-0.7-0.1l-0.3,0.4
		C27.6,37.1,27.9,37,28.3,36.9z"/>
	<path class="st1" d="M44.4,33.6c-0.8-0.3-1.7-0.4-2.5-0.2s-1.6,0.5-2.3,1s-1.3,1-1.9,1.7c-0.6,0.7-1.1,1.3-1.5,2
		c-0.2,0.4-0.4,0.7-0.6,1s-0.4,0.7-0.5,1.1C35,40.3,35,40.5,35,40.7c-0.1,0.2-0.1,0.4-0.1,0.6c0,0.2,0,0.4,0,0.5
		c0.1,0.2,0.1,0.3,0.2,0.4c0.1,0.1,0.3,0.1,0.5,0.1c0.2-0.1,0.3-0.1,0.5-0.2c0.2-0.1,0.3-0.2,0.4-0.4c0.1-0.1,0.2-0.2,0.4-0.4
		c0.6-0.7,1.3-1.3,1.9-2c0.7-0.7,1.3-1.4,1.9-2c0.1-0.1,0.3-0.3,0.5-0.4c0.2-0.1,0.4-0.2,0.5-0.4s0.4-0.2,0.6-0.2
		c0.2-0.1,0.4,0,0.7,0.1c0.2,0.1,0.3,0.2,0.2,0.5s-0.2,0.7-0.5,1c-0.2,0.3-0.4,0.6-0.5,0.9c-0.2,0.5-0.5,0.9-0.7,1.4
		c-0.2,0.4-0.4,0.9-0.5,1.4c-0.1,0.2-0.1,0.4-0.1,0.5c0.1,0.1,0.1,0.2,0.2,0.3c0.1,0.1,0.2,0.1,0.4,0.1s0.2-0.1,0.4-0.1
		c0.2-0.1,0.4-0.2,0.5-0.3c0.2-0.1,0.4-0.2,0.5-0.4c0.2-0.1,0.4-0.3,0.5-0.4c0.2-0.1,0.3-0.3,0.4-0.4c0.5-0.5,1-1,1.4-1.5
		s0.8-1.1,1.2-1.6c0-0.1,0.1-0.1,0.1-0.1l0.1,0.1c0,0.1,0,0.1-0.1,0.2s-0.1,0.2-0.1,0.2c-0.2,0.4-0.4,0.7-0.7,1
		c-0.2,0.4-0.5,0.8-0.8,1.2c-0.4,0.5-0.7,0.9-1.1,1.3s-0.8,0.8-1.3,1.1c-0.4,0.3-0.8,0.5-1.3,0.5c-0.4,0-0.7-0.1-0.9-0.2
		c-0.2-0.2-0.3-0.4-0.3-0.7c-0.1-0.3,0-0.6,0.1-1s0.2-0.8,0.4-1.1c0.2-0.4,0.4-0.8,0.5-1.2c0.2-0.4,0.4-0.8,0.6-1.1
		c0.2-0.4,0.4-0.7,0.3-0.7s-0.3,0.1-0.7,0.5c-0.5,0.4-1,0.8-1.3,1.3c-0.4,0.5-0.8,0.9-1.2,1.4s-0.8,0.9-1.1,1.3
		c-0.4,0.4-0.8,0.8-1.3,1.2c-0.2,0.2-0.4,0.3-0.7,0.3c-0.2,0.1-0.5,0-0.7-0.1s-0.4-0.2-0.5-0.4c-0.2-0.2-0.2-0.5-0.3-0.8
		s-0.1-0.7,0-1s0.2-0.7,0.3-1.1c0.1-0.4,0.3-0.7,0.4-1c0.1-0.3,0.3-0.5,0.4-0.7c0.4-0.7,0.8-1.3,1.4-2c0.5-0.7,1.1-1.3,1.8-1.7
		c0.7-0.5,1.3-0.9,2.1-1.3c0.6-0.4,1.3-0.6,2.1-0.5c0.3,0,0.7,0.1,1,0.2c0.3,0.1,0.6,0.2,0.8,0.4c0.1,0.1,0.2,0.2,0.2,0.4
		C44.7,33.6,44.6,33.7,44.4,33.6z"/>
	<path class="st1" d="M50.5,33.3c-0.6,0.6-1.1,1.2-1.6,1.8c-0.5,0.7-1,1.3-1.4,2c-0.2,0.2-0.4,0.6-0.7,1c-0.2,0.4-0.5,0.9-0.7,1.3
		c-0.2,0.5-0.4,0.9-0.5,1.4s-0.1,0.8,0.1,1.1c0.1,0.2,0.4,0.4,0.6,0.4s0.5-0.1,0.8-0.3s0.7-0.5,1-0.8c0.4-0.4,0.7-0.7,1.1-1.1
		s0.7-0.8,1-1.3c0.4-0.4,0.7-0.8,0.9-1.3c0.3-0.4,0.5-0.7,0.7-1s0.4-0.5,0.4-0.6c0.4-0.5,0.8-1.1,1.1-1.6s0.7-1,1.1-1.4
		c0.1-0.1,0.2-0.1,0.3-0.1s0.2,0.1,0.3,0.1c0.1,0.1,0.1,0.2,0.1,0.2c0,0.1,0,0.2-0.1,0.3c-0.5,0.7-1,1.4-1.4,2.3s-0.8,1.7-1.1,2.5
		c-0.2,0.4-0.4,0.8-0.5,1.3c-0.1,0.4-0.2,0.9-0.3,1.3c-0.1,0.6-0.1,1,0,1.3c0.1,0.2,0.2,0.4,0.4,0.5s0.4,0,0.7-0.1s0.6-0.4,0.9-0.6
		c0.4-0.3,0.8-0.7,1.1-1c0.4-0.4,0.8-0.8,1.1-1.3c0.4-0.5,0.7-0.9,1-1.4s0.6-0.9,0.8-1.3c0.1-0.1,0.2-0.3,0.3-0.5s0.2-0.4,0.3-0.7
		c0.1-0.2,0.2-0.5,0.2-0.7c0.1-0.2,0.1-0.5,0.1-0.7c-0.2-0.1-0.4-0.2-0.5-0.4c-0.2-0.2-0.2-0.4-0.2-0.6c0-0.2,0.1-0.3,0.2-0.4
		c0.1-0.1,0.3-0.1,0.5-0.1c0.2,0.1,0.4,0.1,0.5,0.4c0-0.1,0.1,0.1,0.1,0.2c0.1,0.1,0.1,0.2,0.1,0.3c0.2,0.1,0.5,0.1,0.7,0.2
		c0.3,0,0.5,0.1,0.8,0c0.3,0,0.5,0,0.8-0.1c0.2-0.1,0.4-0.1,0.5-0.1c0.4-0.1,0.5-0.1,0.6,0.1c0,0.1-0.1,0.2-0.5,0.3
		c-0.5,0.2-1,0.3-1.5,0.4c-0.5,0.1-1,0.1-1.4,0c-0.1,0.5-0.2,0.9-0.4,1.3c-0.2,0.4-0.4,0.8-0.5,1.2c-0.4,0.8-1,1.6-1.6,2.3
		s-1.2,1.4-1.9,2.1c-0.9,0.8-1.7,1.4-2.4,1.6c-0.7,0.2-1.1,0.3-1.5,0c-0.4-0.2-0.5-0.8-0.5-1.6s0.2-1.8,0.6-3c0.1-0.4,0.2-0.7,0.4-1
		s0.2-0.6,0.4-1c-0.4,0.7-0.8,1.3-1.2,1.8s-0.7,1-1,1.4s-0.6,0.8-0.9,1.2s-0.6,0.7-0.9,1c-0.2,0.2-0.5,0.4-0.7,0.6
		c-0.3,0.2-0.6,0.4-0.9,0.4c-0.3,0.1-0.6,0.1-0.9,0.1s-0.5-0.2-0.8-0.6c-0.2-0.4-0.4-0.8-0.3-1.3c0.1-0.5,0.2-1,0.4-1.6
		c0.2-0.5,0.4-1,0.7-1.5s0.5-0.8,0.7-1.1c0.5-0.7,1-1.5,1.6-2.2c0.5-0.7,1.1-1.4,1.8-2c0.1-0.1,0.2-0.1,0.3-0.1s0.2,0.1,0.3,0.1
		c-0.1,0.1-0.1,0.2,0,0.3C50.6,33.2,50.6,33.2,50.5,33.3z"/>
	<path class="st1" d="M69.6,33.6c-0.8-0.3-1.7-0.4-2.5-0.2s-1.6,0.5-2.3,1s-1.3,1-1.9,1.7c-0.6,0.7-1.1,1.3-1.5,2
		c-0.2,0.4-0.4,0.7-0.6,1s-0.4,0.7-0.5,1.1c-0.1,0.1-0.1,0.3-0.1,0.5s-0.1,0.4-0.1,0.6c0,0.2,0,0.4,0,0.5c0,0.2,0.1,0.3,0.2,0.4
		c0.1,0.1,0.3,0.1,0.5,0.1c0.2-0.1,0.3-0.1,0.5-0.2c0.2-0.1,0.3-0.2,0.4-0.4c0.1-0.1,0.2-0.2,0.4-0.4c0.6-0.7,1.3-1.3,1.9-2
		c0.7-0.7,1.3-1.4,1.9-2c0.1-0.1,0.3-0.3,0.5-0.4c0.2-0.1,0.4-0.2,0.5-0.4s0.4-0.2,0.6-0.2c0.2-0.1,0.4,0,0.7,0.1
		c0.2,0.1,0.3,0.2,0.2,0.5c-0.1,0.3-0.2,0.7-0.5,1c-0.2,0.3-0.4,0.6-0.5,0.9c-0.2,0.5-0.5,0.9-0.7,1.4c-0.2,0.4-0.4,0.9-0.5,1.4
		C66,41.9,66,42,66,42.2c0.1,0.1,0.1,0.2,0.2,0.3s0.2,0.1,0.4,0.1c0.1,0,0.2-0.1,0.4-0.1c0.2-0.1,0.4-0.2,0.5-0.3
		c0.2-0.1,0.4-0.2,0.5-0.4c0.2-0.1,0.4-0.3,0.5-0.4c0.2-0.1,0.3-0.3,0.4-0.4c0.5-0.5,1-1,1.4-1.5s0.8-1.1,1.2-1.6
		c0-0.1,0.1-0.1,0.1-0.1c0.1,0,0.1,0.1,0.1,0.1c0,0.1,0,0.1-0.1,0.2c-0.1,0.1-0.1,0.2-0.1,0.2c-0.2,0.4-0.4,0.7-0.7,1
		c-0.2,0.4-0.5,0.8-0.8,1.2c-0.4,0.5-0.7,0.9-1.1,1.3c-0.4,0.4-0.8,0.8-1.3,1.1c-0.4,0.3-0.8,0.5-1.3,0.5c-0.4,0-0.7-0.1-0.9-0.2
		c-0.2-0.2-0.3-0.4-0.3-0.7c-0.1-0.3,0-0.6,0.1-1s0.2-0.8,0.4-1.1c0.2-0.4,0.4-0.8,0.5-1.2c0.2-0.4,0.4-0.8,0.6-1.1
		c0.2-0.4,0.4-0.7,0.3-0.7c-0.1-0.1-0.3,0.1-0.7,0.5c-0.5,0.4-1,0.8-1.3,1.3c-0.4,0.5-0.8,0.9-1.2,1.4c-0.4,0.4-0.8,0.9-1.1,1.3
		c-0.4,0.4-0.8,0.8-1.3,1.2c-0.2,0.2-0.4,0.3-0.7,0.3c-0.2,0.1-0.5,0-0.7-0.1s-0.4-0.2-0.5-0.4c-0.2-0.2-0.2-0.5-0.3-0.8
		s-0.1-0.7,0-1c0.1-0.4,0.2-0.7,0.3-1.1c0.1-0.4,0.3-0.7,0.4-1c0.1-0.3,0.3-0.5,0.4-0.7c0.4-0.7,0.8-1.3,1.4-2
		c0.5-0.7,1.1-1.3,1.8-1.7c0.7-0.5,1.3-0.9,2.1-1.3c0.6-0.4,1.3-0.6,2.1-0.5c0.3,0,0.7,0.1,1,0.2c0.4,0.1,0.6,0.2,0.8,0.4
		c0.1,0.1,0.2,0.2,0.2,0.4C69.9,33.6,69.8,33.7,69.6,33.6z"/>
	<path class="st1" d="M74.7,33.9c-0.1,0.3-0.2,0.5-0.4,0.8c-0.2,0.2-0.4,0.5-0.5,0.8c-0.2,0.4-0.5,0.8-0.8,1.1
		c-0.2,0.4-0.5,0.8-0.8,1.1c-0.1,0.2-0.2,0.4-0.4,0.6c-0.2,0.2-0.3,0.5-0.5,0.8s-0.3,0.5-0.4,0.8s-0.2,0.6-0.2,0.8
		c-0.1,0.6,0.1,1,0.3,1.3c0.2,0.2,0.7,0.3,1.1,0.1c0.2-0.1,0.4-0.2,0.6-0.3s0.4-0.3,0.6-0.5s0.4-0.4,0.5-0.5
		c0.2-0.2,0.3-0.3,0.4-0.4c0.5-0.5,0.9-1,1.4-1.5c0.4-0.5,0.8-1,1.3-1.6c0.1-0.1,0.1-0.1,0.2,0s0.1,0.2-0.1,0.3
		c-0.1,0.2-0.3,0.4-0.4,0.6c-0.2,0.2-0.4,0.4-0.5,0.7c-0.2,0.2-0.4,0.4-0.5,0.7c-0.2,0.2-0.4,0.4-0.5,0.6c-0.2,0.2-0.5,0.5-0.7,0.9
		c-0.3,0.4-0.5,0.7-0.9,1c-0.3,0.3-0.7,0.5-1,0.7C72.1,43,71.8,43,71.4,43c-0.4-0.1-0.7-0.2-1-0.4c-0.2-0.2-0.4-0.5-0.4-0.8
		c-0.1-0.3-0.1-0.7-0.1-1c0.1-0.4,0.1-0.7,0.2-1c0.3-0.8,0.7-1.5,1.1-2.2c0.5-0.7,0.9-1.4,1.4-2c0.2-0.3,0.4-0.6,0.6-0.9
		s0.4-0.6,0.5-1c0.1-0.1,0.2-0.2,0.2-0.2c0-0.1,0.1-0.1,0.1-0.2c0.2-0.1,0.3-0.1,0.5,0S74.8,33.8,74.7,33.9z M75,30.8
		c0.2-0.2,0.3-0.2,0.5-0.2s0.3,0.1,0.4,0.2S76,31,76,31.2c0,0.2-0.1,0.4-0.3,0.5c-0.2,0.1-0.4,0.2-0.5,0.2c-0.2,0-0.3-0.1-0.4-0.2
		s-0.1-0.2-0.1-0.4C74.9,31.2,74.9,31,75,30.8z"/>
	<path class="st1" d="M80.1,33.9c-0.1,0.3-0.2,0.5-0.4,0.8c-0.2,0.2-0.4,0.5-0.5,0.8c-0.2,0.4-0.5,0.8-0.8,1.1
		c-0.2,0.4-0.5,0.8-0.8,1.1c-0.1,0.2-0.2,0.4-0.4,0.6c-0.2,0.2-0.3,0.5-0.5,0.8s-0.3,0.5-0.4,0.8s-0.2,0.6-0.2,0.8
		c-0.1,0.6,0.1,1,0.3,1.3c0.2,0.2,0.7,0.3,1.1,0.1c0.2-0.1,0.4-0.2,0.6-0.3s0.4-0.3,0.6-0.5s0.4-0.4,0.5-0.5
		c0.2-0.2,0.3-0.3,0.4-0.4c0.5-0.5,0.9-1,1.4-1.5s0.8-1,1.3-1.6c0.1-0.1,0.1-0.1,0.2,0s0.1,0.2-0.1,0.3c-0.1,0.2-0.3,0.4-0.4,0.6
		c-0.2,0.2-0.4,0.4-0.5,0.7c-0.2,0.2-0.4,0.4-0.5,0.7c-0.2,0.2-0.4,0.4-0.5,0.6c-0.2,0.2-0.5,0.5-0.7,0.9c-0.3,0.4-0.5,0.7-0.9,1
		c-0.3,0.3-0.7,0.5-1,0.7C77.5,43,77.2,43,76.8,43c-0.4-0.1-0.7-0.2-1-0.4c-0.2-0.2-0.4-0.5-0.4-0.8c-0.1-0.3-0.1-0.7-0.1-1
		c0.1-0.4,0.1-0.7,0.2-1c0.3-0.8,0.7-1.5,1.1-2.2c0.5-0.7,0.9-1.4,1.4-2c0.2-0.3,0.4-0.6,0.6-0.9s0.4-0.6,0.5-1
		c0-0.1,0.1-0.1,0.1-0.2c0-0.1,0.1-0.1,0.1-0.2c0.2-0.1,0.3-0.1,0.5,0S80.2,33.8,80.1,33.9z M80.5,30.8c0.2-0.2,0.3-0.2,0.5-0.2
		s0.3,0.1,0.4,0.2s0.1,0.2,0.1,0.4c0,0.2-0.1,0.4-0.3,0.5c-0.2,0.1-0.4,0.2-0.5,0.2c-0.2,0-0.3-0.1-0.4-0.2s-0.1-0.2-0.1-0.4
		C80.3,31.2,80.3,31,80.5,30.8z"/>
</g>
<g>
	<path class="st1" d="M5.5,65.8c-0.3,0-0.5-0.1-0.8-0.2c-0.2-0.2-0.5-0.4-0.7-0.7c-0.2-0.3-0.4-0.6-0.4-1c-0.1-0.4-0.1-0.8-0.1-1.1
		c0-0.8,0.2-1.6,0.4-2.3s0.6-1.4,1.1-2.1c0.4-0.7,1-1.3,1.5-1.8s1.1-1,1.8-1.5c0.4-0.3,0.8-0.5,1.4-0.8c0.5-0.3,1.1-0.5,1.6-0.8
		c0.6-0.2,1.1-0.4,1.8-0.6c0.6-0.2,1.2-0.2,1.8-0.3c0.6,0,1.1,0.1,1.7,0.2c0.5,0.1,1,0.4,1.4,0.8c0.4,0.4,0.7,0.8,0.9,1.3
		c0.2,0.5,0.2,1,0.2,1.5s-0.1,1-0.3,1.6c-0.2,0.5-0.4,1-0.7,1.6c-0.2,0.5-0.5,1-0.9,1.4c-0.3,0.4-0.6,0.8-0.9,1.1
		c-0.6,0.7-1.2,1.3-1.9,1.8c-0.7,0.5-1.4,1-2.2,1.4c-0.3,0.1-0.6,0.2-0.9,0.4c-0.3,0.1-0.7,0.2-1,0.2c-0.4,0.1-0.7,0-1-0.1
		s-0.6-0.2-0.8-0.4C8.1,64.8,8,64.4,8,64s0.1-0.8,0.2-1.3c0.2-0.4,0.4-0.9,0.7-1.3c0.2-0.4,0.5-0.7,0.7-1c0.5-0.7,1-1.4,1.6-2
		c0.5-0.7,1.1-1.3,1.7-1.9c0.1-0.1,0.1-0.1,0.2-0.1c0.1,0,0.1,0.1,0.2,0.1c0.1,0.1,0.1,0.1,0.1,0.2c0,0.1,0,0.2,0,0.2L13.3,57
		c-0.1,0.1-0.1,0.1-0.1,0.1c-0.2,0.2-0.4,0.5-0.6,0.8c-0.2,0.3-0.4,0.5-0.7,0.8c-0.4,0.6-0.9,1.3-1.4,1.9c-0.5,0.7-0.8,1.3-1.1,2
		c-0.1,0.1-0.1,0.2-0.1,0.4c-0.1,0.1-0.1,0.2-0.1,0.4c-0.1,0.1-0.1,0.3-0.1,0.4c0,0.1,0.1,0.2,0.1,0.3c0.1,0.2,0.4,0.3,0.7,0.3
		s0.5,0,0.7,0c0.4-0.1,0.7-0.1,1.1-0.3c0.4-0.1,0.7-0.3,1-0.5c0.4-0.2,0.7-0.4,1-0.7c0.3-0.2,0.6-0.5,0.8-0.7
		c0.6-0.5,1.1-1.1,1.6-1.6c0.5-0.6,0.9-1.2,1.3-1.9c0.2-0.3,0.3-0.7,0.4-1c0.1-0.4,0.2-0.7,0.3-1.1c0.1-0.4,0.1-0.7,0.1-1.1
		c-0.1-0.4-0.1-0.7-0.3-1.1c-0.2-0.4-0.4-0.6-0.7-0.8c-0.2-0.2-0.5-0.3-0.9-0.4c-0.5,0.2-0.9,0.1-1.3,0.1c-0.4,0-0.7,0-1,0.1
		c-0.8,0.1-1.6,0.3-2.3,0.6s-1.4,0.7-2.2,1.1c-0.7,0.4-1.3,0.8-2,1.4c-0.7,0.5-1.3,1.1-1.8,1.7c-0.5,0.6-1,1.3-1.3,2
		c-0.4,0.7-0.5,1.5-0.5,2.3c0,0.3,0,0.5,0.1,0.8c0.1,0.2,0.1,0.4,0.2,0.6s0.2,0.4,0.4,0.5C5,64.8,5.1,65,5.4,65.1
		c0.1,0.1,0.1,0.1,0.2,0.1c0.1,0.1,0.1,0.1,0.1,0.2s0,0.2-0.1,0.2C5.7,65.8,5.6,65.8,5.5,65.8z"/>
	<path class="st1" d="M20,64.3c0.4,0.4,0.8,0.7,1.4,0.7c0.5,0.1,1.1,0,1.6-0.1s1.1-0.4,1.6-0.7c0.5-0.3,1-0.5,1.3-0.8
		c1-0.7,1.9-1.6,2.6-2.6c0.1-0.1,0.2-0.3,0.2-0.4c0.1-0.1,0.1-0.2,0.1-0.2c0.1-0.1,0.2-0.2,0.2-0.1c0.1,0.1,0.1,0.1,0,0.3
		s-0.2,0.4-0.3,0.5c-0.1,0.2-0.2,0.3-0.2,0.4c-0.4,0.5-0.7,1-1.1,1.4S26.5,63.6,26,64c-0.5,0.4-1,0.7-1.6,1
		c-0.5,0.3-1.1,0.5-1.7,0.7c-0.5,0.1-1.1,0.2-1.6,0.1s-1-0.2-1.4-0.5c-0.4-0.2-0.7-0.6-0.9-1.1c-0.2-0.5-0.3-1-0.2-1.6
		c0.1-0.6,0.2-1.2,0.4-1.9c0.2-0.6,0.5-1.2,0.9-1.8c0.4-0.5,0.8-1.1,1.2-1.6c0.5-0.5,1-0.9,1.4-1.2c0.2-0.2,0.5-0.3,0.8-0.4
		c0.3-0.1,0.6-0.2,0.9-0.3s0.6-0.1,0.9,0s0.6,0.1,0.8,0.3c0.3,0.2,0.5,0.5,0.7,0.8c0.1,0.3,0.2,0.6,0.2,1s-0.1,0.7-0.2,1
		c-0.1,0.4-0.3,0.7-0.5,0.9c-0.4,0.5-0.8,1-1.3,1.3c-0.5,0.4-1,0.5-1.6,0.7c-0.5,0.1-1.1,0.2-1.7,0.1c-0.6-0.1-1.1-0.2-1.7-0.5
		c-0.1,0.2-0.2,0.5-0.3,0.8c-0.1,0.3-0.1,0.6-0.1,0.8c0,0.3,0,0.6,0.1,0.8C19.7,63.8,19.8,64.1,20,64.3z M25.7,58.9
		c0.1-0.2,0.2-0.4,0.3-0.7c0.1-0.2,0.1-0.5,0.1-0.8c0-0.2-0.1-0.5-0.2-0.7s-0.3-0.4-0.6-0.5c-0.3-0.1-0.6-0.1-0.9-0.1
		s-0.6,0.2-0.8,0.4c-0.3,0.2-0.5,0.4-0.8,0.5c-0.2,0.2-0.5,0.4-0.7,0.6c-0.4,0.4-0.8,0.8-1.1,1.3c-0.4,0.5-0.6,1-0.9,1.5
		c0.5,0.2,1,0.4,1.5,0.4c0.5,0.1,1,0,1.6-0.1c0.5-0.1,1-0.4,1.4-0.7C25,59.8,25.4,59.4,25.7,58.9z"/>
	<path class="st1" d="M37,55.4c0.1-0.1,0.2,0,0.4,0.1c0.1,0.1,0.2,0.2,0.4,0.4c0.1,0.2,0.1,0.5,0.1,0.9s-0.1,0.8-0.2,1.4
		c0.2,0.3,0.4,0.6,0.5,0.8c0.2,0.2,0.4,0.5,0.5,0.7c0.2,0.2,0.4,0.4,0.5,0.5s0.3,0.2,0.4,0.3c0.1,0.1,0.1,0.1,0.1,0.2
		s-0.1,0.1-0.1,0.1c-0.1,0.1-0.1,0.1-0.2,0c-0.1,0-0.2-0.1-0.3-0.1c-0.4-0.2-0.7-0.5-1-0.8c-0.3-0.2-0.6-0.7-0.9-1.1
		c-0.3,0.6-0.7,1.2-1.1,1.7c-0.4,0.6-0.9,1.1-1.4,1.7c-0.5,0.5-1,1.1-1.5,1.5c-0.5,0.5-1,0.8-1.4,1.1c-0.3,0.2-0.6,0.4-1,0.5
		c-0.4,0.2-0.7,0.3-1.1,0.4s-0.7,0-1-0.1s-0.5-0.4-0.7-0.8c-0.2-0.5-0.3-1-0.2-1.6c0.1-0.5,0.2-1.1,0.3-1.6c0.1-0.5,0.3-1,0.5-1.5
		s0.4-1,0.7-1.4c0.3-0.5,0.5-1.1,0.9-1.6c0.3-0.5,0.7-1,1.1-1.5c0.1-0.1,0.2-0.2,0.2-0.3c0.1-0.1,0.2-0.2,0.4-0.2
		c0.1-0.1,0.2-0.1,0.3,0c0.1,0.1,0.2,0.1,0.2,0.2c0.1,0.1,0.1,0.2,0.1,0.2c0,0.1-0.1,0.2-0.2,0.2c-0.3,0.2-0.6,0.5-0.9,1
		c-0.3,0.4-0.6,0.9-0.8,1.4c-0.3,0.5-0.5,1-0.7,1.5s-0.4,0.9-0.5,1.2c-0.1,0.4-0.2,0.7-0.4,1.1c-0.1,0.4-0.2,0.8-0.2,1.3
		c-0.1,0.4-0.1,0.8,0,1.1c0.1,0.4,0.2,0.5,0.4,0.7c0.2,0.1,0.4,0.2,0.8,0.1s0.8-0.4,1.4-0.8c0.5-0.4,1-0.8,1.4-1.3
		c0.4-0.4,0.9-0.9,1.3-1.4c0.1-0.1,0.2-0.2,0.5-0.5c0.2-0.3,0.5-0.6,0.7-1s0.5-0.7,0.8-1.1c0.2-0.4,0.5-0.8,0.7-1.2
		c-0.1-0.3-0.2-0.6-0.2-0.9c-0.1-0.3-0.1-0.5-0.1-0.8c0-0.2,0.1-0.4,0.2-0.6C36.7,55.6,36.8,55.5,37,55.4z"/>
	<path class="st1" d="M39.6,64.3C40,64.7,40.4,65,41,65c0.5,0.1,1.1,0,1.6-0.1s1.1-0.4,1.6-0.7c0.5-0.3,1-0.5,1.3-0.8
		c1-0.7,1.9-1.6,2.6-2.6c0.1-0.1,0.2-0.3,0.2-0.4c0.1-0.1,0.1-0.2,0.1-0.2c0.1-0.1,0.2-0.2,0.2-0.1c0.1,0.1,0.1,0.1,0,0.3
		s-0.2,0.4-0.3,0.5c-0.1,0.2-0.2,0.3-0.2,0.4c-0.4,0.5-0.7,1-1.1,1.4c-0.4,0.5-0.9,0.9-1.4,1.3c-0.5,0.4-1,0.7-1.6,1
		c-0.5,0.3-1.1,0.5-1.7,0.7c-0.5,0.1-1.1,0.2-1.6,0.1s-1-0.2-1.4-0.5c-0.4-0.2-0.7-0.6-0.9-1.1s-0.3-1-0.2-1.6s0.2-1.2,0.4-1.9
		c0.2-0.6,0.5-1.2,0.9-1.8c0.4-0.5,0.8-1.1,1.2-1.6c0.5-0.5,1-0.9,1.4-1.2c0.2-0.2,0.5-0.3,0.8-0.4c0.3-0.1,0.6-0.2,0.9-0.3
		c0.3-0.1,0.6-0.1,0.9,0c0.3,0.1,0.6,0.1,0.8,0.3c0.3,0.2,0.5,0.5,0.7,0.8c0.1,0.3,0.2,0.6,0.2,1s-0.1,0.7-0.2,1
		c-0.1,0.4-0.3,0.7-0.5,0.9c-0.4,0.5-0.8,1-1.3,1.3c-0.5,0.4-1,0.5-1.6,0.7c-0.5,0.1-1.1,0.2-1.7,0.1c-0.6-0.1-1.1-0.2-1.7-0.5
		c-0.1,0.2-0.2,0.5-0.3,0.8S39,62.4,39,62.6c0,0.3,0,0.6,0.1,0.8C39.2,63.8,39.4,64.1,39.6,64.3z M45.3,58.9
		c0.1-0.2,0.2-0.4,0.3-0.7c0.1-0.2,0.1-0.5,0.1-0.8c0-0.2-0.1-0.5-0.2-0.7c-0.1-0.2-0.3-0.4-0.6-0.5s-0.6-0.1-0.9-0.1
		s-0.6,0.2-0.8,0.4c-0.3,0.2-0.5,0.4-0.8,0.5c-0.2,0.2-0.5,0.4-0.7,0.6c-0.4,0.4-0.8,0.8-1.1,1.3c-0.4,0.5-0.6,1-0.9,1.5
		c0.5,0.2,1,0.4,1.5,0.4c0.5,0.1,1,0,1.6-0.1c0.5-0.1,1-0.4,1.4-0.7C44.6,59.8,45,59.4,45.3,58.9z"/>
	<path class="st1" d="M49.4,60.2c-0.4,0.8-0.7,1.5-0.9,2.1s-0.4,1.1-0.4,1.7c0,0.3,0,0.5,0.1,0.7s0.2,0.2,0.4,0.3s0.4,0.1,0.5,0.1
		c0.2,0,0.4-0.1,0.6-0.2c0.4-0.2,0.8-0.5,1.2-0.9s0.7-0.7,1-1.1c0.3-0.4,0.6-0.8,0.9-1.2c0.3-0.4,0.5-0.8,0.8-1.2
		c0.1-0.2,0.2-0.2,0.3-0.2c0.1,0.1,0.1,0.2-0.1,0.4c-0.2,0.4-0.5,0.8-0.8,1.3s-0.7,1-1,1.4c-0.4,0.5-0.7,0.9-1.1,1.3
		c-0.4,0.4-0.8,0.7-1.3,1c-0.2,0.1-0.4,0.2-0.7,0.2c-0.2,0-0.5,0-0.7-0.1s-0.4-0.2-0.5-0.4c-0.2-0.2-0.3-0.4-0.4-0.6
		c-0.1-0.2-0.1-0.5-0.1-0.7s0.1-0.5,0.1-0.8c0.1-0.2,0.1-0.5,0.2-0.7c0.1-0.2,0.1-0.5,0.2-0.7c0.4-1.1,0.8-2.1,1.4-3.1
		c0.5-1,1.1-2,1.6-3c0.1-0.1,0.2-0.3,0.4-0.6c0.1-0.3,0.3-0.6,0.5-1s0.4-0.7,0.7-1c0.2-0.4,0.5-0.6,0.7-0.8s0.5-0.4,0.7-0.5
		s0.5-0.1,0.7,0.1c0.1,0.1,0.2,0.2,0.2,0.4s-0.1,0.4-0.1,0.5c-0.1,0.2-0.2,0.4-0.3,0.5c-0.1,0.2-0.2,0.3-0.3,0.4
		c-0.7,1.2-1.5,2.3-2.3,3.4C51,58.2,50.2,59.2,49.4,60.2z M53.8,53.2c0.1-0.3,0.2-0.5,0.3-0.6s0-0.2-0.1-0.2s-0.1,0.1-0.2,0.2
		c-0.1,0.1-0.2,0.3-0.4,0.5c-0.4,0.7-0.9,1.4-1.4,2.3c-0.5,0.9-1.1,1.9-1.7,3c0.7-1,1.3-1.8,1.9-2.7C52.7,55,53.3,54.1,53.8,53.2z"
		/>
	<path class="st1" d="M64.9,56.5c0.1-0.1,0.2-0.1,0.2,0c0.1,0,0.1,0.1,0,0.1c0,0.1-0.1,0.1-0.1,0.2c-0.1,0.1-0.2,0.1-0.2,0.2
		c-0.2,0.1-0.4,0.2-0.7,0.3c-0.3,0.1-0.6,0.2-0.9,0.3c-0.4,0.1-0.7,0.1-1,0.2c-0.4,0.1-0.7,0.1-1,0c0,0.5-0.1,1.1-0.2,1.6
		s-0.3,1-0.5,1.4s-0.4,0.9-0.7,1.3c-0.2,0.5-0.5,0.9-0.8,1.3s-0.7,0.8-1,1.1c-0.4,0.4-0.8,0.7-1.2,0.9c-0.3,0.2-0.7,0.3-1,0.4
		c-0.4,0.1-0.7,0.1-1-0.1c-0.3-0.1-0.6-0.2-0.9-0.4c-0.2-0.2-0.5-0.5-0.7-0.8c-0.2-0.5-0.3-1-0.3-1.5s0.1-1,0.2-1.6s0.4-1,0.6-1.5
		c0.2-0.5,0.5-0.9,0.7-1.3c0.2-0.4,0.5-0.8,1-1.3c0.4-0.4,0.8-0.8,1.3-1.1c0.4-0.4,0.9-0.6,1.4-0.7c0.5-0.1,1-0.1,1.6,0.1
		c0.1,0.1,0.2,0.1,0.2,0.2c0.3,0.1,0.5,0.2,0.7,0.4s0.3,0.4,0.4,0.7c0.3,0.1,0.6,0.1,1,0.1s0.7,0,1.1-0.1s0.7-0.1,1.1-0.2
		C64.4,56.6,64.7,56.6,64.9,56.5z M55.8,58.1c-0.5,0.7-1,1.3-1.3,2.1c-0.4,0.7-0.6,1.5-0.8,2.3c0,0.2-0.1,0.4-0.1,0.5s0,0.4,0,0.6
		c0,0.2,0.1,0.4,0.1,0.5c0.1,0.2,0.1,0.4,0.3,0.5c0.2,0.3,0.5,0.4,0.9,0.4s0.7-0.1,1-0.2c0.7-0.4,1.3-0.8,1.9-1.5
		c0.5-0.7,1-1.3,1.4-2c0.1-0.2,0.2-0.4,0.4-0.8c0.1-0.3,0.3-0.7,0.4-1s0.2-0.7,0.3-1.1c0.1-0.4,0.1-0.7,0-1
		c-0.3-0.1-0.6-0.3-0.8-0.5s-0.4-0.5-0.4-1c-0.7,0.1-1.3,0.4-1.8,0.7C56.7,57.2,56.2,57.7,55.8,58.1z"/>
	<path class="st1" d="M55.8,69.9c-0.2-0.1-0.4-0.2-0.5-0.4c-0.1-0.2-0.2-0.4-0.2-0.6s0-0.5,0.1-0.7s0.1-0.4,0.3-0.7
		c0.2-0.4,0.5-0.6,0.8-0.8c0.4-0.2,0.7-0.4,1.1-0.5c0.4-0.1,0.8-0.2,1.2-0.2s0.8,0,1.2,0.1c0.2-0.4,0.4-0.9,0.7-1.4
		c0.2-0.5,0.5-1,0.7-1.5s0.5-1,0.8-1.4c0.2-0.5,0.5-1,0.7-1.4s0.4-0.7,0.5-1.1c0.2-0.4,0.4-0.7,0.5-1c0.2-0.4,0.3-0.7,0.4-1
		c0.1-0.3,0.2-0.5,0.3-0.8c0-0.1,0.1-0.2,0.2-0.2c0.1-0.1,0.2-0.1,0.3-0.1s0.2,0,0.2,0.1c0.1,0.1,0.1,0.2,0.1,0.3
		c0,0.2-0.1,0.4-0.1,0.7c-0.1,0.2-0.2,0.4-0.2,0.7c-0.1,0.2-0.2,0.4-0.3,0.7c-0.1,0.2-0.2,0.4-0.3,0.6c0.1-0.1,0.3-0.4,0.5-0.7
		s0.5-0.7,0.8-1s0.6-0.7,1-1s0.7-0.5,1.1-0.7s0.7-0.2,1-0.2c0.4,0.1,0.7,0.2,0.9,0.6c0.2,0.2,0.3,0.5,0.4,0.8s0.1,0.6,0,1
		c-0.1,0.3-0.1,0.7-0.2,1s-0.2,0.6-0.2,0.8c-0.2,0.5-0.4,1.1-0.7,1.6c-0.2,0.5-0.5,1-0.9,1.6c-0.4,0.5-0.7,1-1.1,1.3
		c-0.4,0.4-0.8,0.8-1.3,1c0.7-0.1,1.3-0.3,2-0.6c0.7-0.3,1.3-0.7,1.9-1.2c0.6-0.5,1.1-1,1.6-1.5s0.9-1.1,1.2-1.6
		c0.1-0.2,0.2-0.2,0.2-0.1c0.1,0.1,0.1,0.2,0,0.4c-0.1,0.1-0.1,0.3-0.2,0.5s-0.2,0.4-0.4,0.5c-0.1,0.2-0.2,0.3-0.4,0.4
		c-0.1,0.1-0.2,0.2-0.2,0.2c-0.5,0.7-1.2,1.3-1.9,1.9c-0.7,0.6-1.4,1-2.3,1.3c-0.5,0.2-1,0.4-1.5,0.4c-0.5,0.1-1,0.1-1.5,0
		c-0.4,0.1-0.8,0.1-1.3,0c-0.4-0.1-0.7-0.3-1-0.6c-0.2-0.2-0.3-0.5-0.3-0.8c-0.1,0.2-0.3,0.5-0.5,1s-0.4,0.7-0.5,1.1
		c0.5,0.2,1,0.5,1.4,0.9s0.7,0.8,0.9,1.4c0.1,0.2,0.2,0.5,0.2,0.8c0.1,0.3,0.1,0.6,0.1,0.9s-0.1,0.5-0.2,0.8
		c-0.1,0.2-0.3,0.5-0.5,0.6c-0.1,0.1-0.2,0.1-0.3,0S62,72,62,71.9s0-0.2,0.1-0.3c0.1-0.1,0.1-0.2,0.1-0.3c0.1-0.5,0.2-0.9,0.1-1.4
		c-0.1-0.5-0.3-1-0.6-1.4s-0.8-0.8-1.4-1.1c-0.2,0.4-0.4,0.8-0.7,1.3s-0.7,0.8-1.1,1.2c-0.4,0.4-0.8,0.6-1.3,0.8
		C56.7,70.2,56.3,70.1,55.8,69.9z M57.7,66.7c-0.2,0.1-0.4,0.1-0.7,0.2c-0.2,0.1-0.4,0.2-0.6,0.4c-0.2,0.1-0.4,0.3-0.5,0.5
		s-0.2,0.4-0.2,0.7c0,0.3,0.1,0.5,0.2,0.7c0.2,0.1,0.4,0.2,0.6,0.2c0.4,0,0.7-0.1,1-0.3c0.3-0.2,0.5-0.4,0.8-0.7
		c0.2-0.2,0.5-0.5,0.7-0.9c0.2-0.3,0.4-0.7,0.5-1C58.9,66.5,58.3,66.5,57.7,66.7z M62.3,64c0.4,0.5,1,0.8,1.5,1
		c0.6-0.1,1.2-0.4,1.7-0.8s1-1,1.5-1.6c0.4-0.6,0.8-1.2,1.1-1.9c0.3-0.7,0.5-1.3,0.7-1.8c0.1-0.4,0.2-0.8,0.2-1.3
		c0.1-0.4,0-0.8-0.1-1c-0.1-0.3-0.3-0.4-0.6-0.5c-0.3-0.1-0.7,0.1-1.2,0.5c-0.4,0.2-0.7,0.5-1,0.8c-0.4,0.4-0.7,0.7-1,1.1
		c-0.3,0.4-0.6,0.8-0.9,1.2c-0.3,0.4-0.5,0.8-0.8,1.3c-0.6,1-1.1,1.9-1.7,2.9c0.1-0.1,0.2-0.1,0.3,0C62.1,63.8,62.2,63.9,62.3,64z"
		/>
	<path class="st1" d="M72.8,64.3c0.4,0.4,0.8,0.7,1.4,0.7c0.5,0.1,1.1,0,1.6-0.1s1.1-0.4,1.6-0.7s1-0.5,1.3-0.8
		c1-0.7,1.9-1.6,2.6-2.6c0.1-0.1,0.2-0.3,0.2-0.4c0.1-0.1,0.1-0.2,0.1-0.2c0.1-0.1,0.2-0.2,0.2-0.1c0.1,0.1,0.1,0.1,0,0.3
		s-0.2,0.4-0.3,0.5c-0.1,0.2-0.2,0.3-0.2,0.4c-0.4,0.5-0.7,1-1.1,1.4c-0.4,0.5-0.9,0.9-1.4,1.3c-0.5,0.4-1,0.7-1.6,1
		c-0.5,0.3-1.1,0.5-1.7,0.7c-0.5,0.1-1.1,0.2-1.6,0.1s-1-0.2-1.4-0.5c-0.4-0.2-0.7-0.6-0.9-1.1c-0.2-0.5-0.3-1-0.2-1.6
		c0.1-0.6,0.2-1.2,0.4-1.9c0.2-0.6,0.5-1.2,0.9-1.8c0.4-0.5,0.8-1.1,1.2-1.6c0.5-0.5,1-0.9,1.4-1.2c0.2-0.2,0.5-0.3,0.8-0.4
		c0.3-0.1,0.6-0.2,0.9-0.3s0.6-0.1,0.9,0s0.6,0.1,0.8,0.3c0.3,0.2,0.5,0.5,0.7,0.8c0.1,0.3,0.2,0.6,0.2,1s-0.1,0.7-0.2,1
		c-0.1,0.4-0.3,0.7-0.5,0.9c-0.4,0.5-0.8,1-1.3,1.3c-0.5,0.4-1,0.5-1.6,0.7c-0.5,0.1-1.1,0.2-1.7,0.1c-0.6-0.1-1.1-0.2-1.7-0.5
		c-0.1,0.2-0.2,0.5-0.3,0.8c-0.1,0.3-0.1,0.6-0.1,0.8c0,0.3,0,0.6,0.1,0.8C72.5,63.8,72.6,64.1,72.8,64.3z M78.5,58.9
		c0.1-0.2,0.2-0.4,0.3-0.7c0.1-0.2,0.1-0.5,0.1-0.8c0-0.2-0.1-0.5-0.2-0.7s-0.3-0.4-0.6-0.5c-0.3-0.1-0.6-0.1-0.9-0.1
		s-0.6,0.2-0.8,0.4c-0.3,0.2-0.5,0.4-0.8,0.5c-0.2,0.2-0.5,0.4-0.7,0.6c-0.4,0.4-0.8,0.8-1.1,1.3c-0.4,0.5-0.6,1-0.9,1.5
		c0.5,0.2,1,0.4,1.5,0.4c0.5,0.1,1,0,1.6-0.1c0.5-0.1,1-0.4,1.4-0.7C77.9,59.8,78.2,59.4,78.5,58.9z"/>
	<path class="st1" d="M80.4,61.9c0.3-0.4,0.5-0.7,0.8-1.1c0.2-0.4,0.5-0.8,0.7-1.2s0.5-0.9,0.8-1.4c0.2-0.5,0.5-1,0.7-1.5
		c-0.2-0.1-0.4-0.3-0.4-0.5s0.1-0.4,0.1-0.6c0.1-0.2,0.2-0.4,0.5-0.4c0.2-0.1,0.4-0.2,0.6-0.2c0.1,0,0.2,0.1,0.4,0.1
		c0.1,0.1,0.1,0.2,0.1,0.3s0,0.2,0,0.4s-0.1,0.2-0.1,0.4c0.4,0.1,0.7,0.2,1.1,0.3s0.7,0.3,1,0.5s0.5,0.4,0.7,0.7
		c0.1,0.3,0.2,0.6,0.1,1c-0.1,0.6-0.4,1.1-0.7,1.7c-0.3,0.5-0.6,1.1-0.9,1.6c-0.1,0.1-0.2,0.4-0.4,0.7c-0.2,0.3-0.4,0.6-0.5,1
		c-0.1,0.4-0.2,0.7-0.2,1c-0.1,0.3,0.1,0.5,0.2,0.7c0.2,0.1,0.4,0.2,0.7,0.1c0.2-0.1,0.5-0.2,0.8-0.4c0.3-0.2,0.5-0.4,0.8-0.7
		c0.3-0.3,0.5-0.5,0.8-0.8c0.2-0.3,0.5-0.5,0.7-0.8c0.2-0.2,0.4-0.4,0.4-0.5c0.2-0.3,0.4-0.6,0.7-0.8c0.2-0.2,0.4-0.5,0.5-0.8
		c0.1-0.1,0.1-0.1,0.2-0.1s0.1,0.1,0,0.2c-0.1,0.2-0.2,0.5-0.4,0.7c-0.2,0.2-0.3,0.5-0.5,0.8c-0.2,0.4-0.5,0.7-0.7,1.1
		c-0.2,0.4-0.5,0.7-0.8,1.1s-0.7,0.7-1,1s-0.7,0.5-1.1,0.7c-0.2,0.1-0.4,0.1-0.7,0.1c-0.2,0-0.5-0.1-0.7-0.2s-0.3-0.2-0.4-0.4
		s-0.2-0.4-0.2-0.5s0-0.4,0-0.6s0.1-0.4,0.1-0.6c0.2-0.5,0.4-1,0.6-1.6c0.2-0.5,0.5-1,0.8-1.5c0.2-0.4,0.4-0.7,0.6-1.1
		c0.2-0.4,0.4-0.8,0.4-1.3c0-0.2-0.1-0.4-0.3-0.5c-0.2-0.1-0.4-0.2-0.7-0.4c-0.2-0.1-0.5-0.2-0.8-0.2c-0.2-0.1-0.5-0.1-0.6-0.1
		c-0.4,0.7-0.7,1.2-1,1.6c-0.3,0.5-0.5,0.9-0.8,1.3c-0.2,0.4-0.5,0.8-0.8,1.2s-0.6,0.8-0.9,1.1c-0.1,0.1-0.2,0.2-0.2,0.2
		c-0.1,0-0.1,0-0.2,0C80.4,62.2,80.4,62,80.4,61.9C80.3,62,80.3,62,80.4,61.9z"/>
	<path class="st1" d="M95,58.6c0.1-0.1,0.2-0.3,0.4-0.5c0.1-0.2,0.3-0.4,0.4-0.6c0.1-0.2,0.2-0.4,0.2-0.7c0-0.2-0.1-0.4-0.2-0.6
		c-0.2-0.2-0.4-0.4-0.7-0.4s-0.6,0.1-0.9,0.2c-0.3,0.1-0.6,0.2-0.8,0.4c-0.3,0.2-0.5,0.3-0.7,0.4c-0.2,0.1-0.4,0.3-0.7,0.5
		c-0.2,0.2-0.5,0.5-0.7,0.8s-0.4,0.6-0.4,0.9c-0.1,0.3,0,0.6,0.2,0.8c0.1,0.1,0.2,0.2,0.4,0.2c0.1,0,0.3,0.1,0.5,0.1s0.3,0,0.5,0
		s0.3-0.1,0.4-0.1c0.4-0.1,0.7-0.1,1,0c0.4,0.1,0.7,0.2,0.9,0.5c0.3,0.3,0.4,0.6,0.5,1s0,0.7-0.1,1s-0.3,0.7-0.5,1S94.3,64,94,64.3
		c-0.3,0.3-0.7,0.5-1.1,0.8c-0.4,0.2-0.8,0.4-1.3,0.5s-1,0.1-1.6-0.1s-1-0.5-1.2-1c-0.1-0.1-0.2-0.3-0.2-0.4s0-0.2,0.1-0.2
		c0.1-0.1,0.1-0.1,0.2-0.1s0.2,0.1,0.3,0.2c0.1,0.1,0.2,0.3,0.4,0.4s0.3,0.2,0.5,0.3c0.2,0.1,0.4,0.1,0.7,0.2c0.2,0,0.5,0,0.8-0.1
		c0.4-0.1,0.7-0.2,1.1-0.4c0.4-0.2,0.7-0.5,1-0.8s0.5-0.6,0.8-1c0.2-0.4,0.3-0.7,0.2-1.1c-0.1-0.3-0.1-0.5-0.3-0.7
		C94,61,93.8,61,93.5,61c-0.2,0-0.5,0-0.8,0s-0.4,0-0.7,0c-0.4,0-0.7-0.1-1.1-0.2c-0.4-0.1-0.6-0.4-0.7-0.8s-0.2-0.7-0.1-1.1
		c0.1-0.4,0.2-0.7,0.4-1c0.2-0.3,0.4-0.6,0.7-0.9s0.5-0.5,0.8-0.7c0.2-0.2,0.5-0.4,0.9-0.5s0.7-0.3,1-0.4s0.7-0.1,1.1-0.1
		s0.7,0.2,1,0.4s0.5,0.5,0.5,0.8c0.1,0.3,0,0.6-0.1,0.9S96,58,95.8,58.2s-0.5,0.5-0.7,0.7C95,59,95,59,94.9,58.9
		C94.9,58.7,94.9,58.7,95,58.6z"/>
</g>
</svg>
