<?xml version="1.0" encoding="utf-8"?>
<!-- Generator: Adobe Illustrator 16.0.0, SVG Export Plug-In . SVG Version: 6.00 Build 0)  -->
<!DOCTYPE svg PUBLIC "-//W3C//DTD SVG 1.1//EN" "http://www.w3.org/Graphics/SVG/1.1/DTD/svg11.dtd">
<svg version="1.1" id="Layer_1" xmlns="http://www.w3.org/2000/svg" xmlns:xlink="http://www.w3.org/1999/xlink" x="0px" y="0px"
	 width="600px" height="135px" viewBox="0 0 600 135" enable-background="new 0 0 600 135" xml:space="preserve">
<g>
	<g>
		<path fill="#786031" d="M589.579,7.385c0,0,0.066-0.074,0.168-0.241c0.099-0.167,0.271-0.381,0.424-0.706
			c0.322-0.62,0.678-1.681,0.44-2.897c-0.028-0.308-0.173-0.584-0.285-0.879c-0.116-0.314-0.258-0.517-0.42-0.796
			c-0.327-0.517-0.75-1.079-1.394-1.457c-0.635-0.392-1.437-0.482-2.124-0.357c-0.353,0.052-0.682,0.152-1.009,0.266
			c-0.165,0.053-0.324,0.15-0.487,0.224c-0.156,0.082-0.329,0.144-0.466,0.262c-1.184,0.813-1.863,2.056-2.009,3.227
			c-0.08,0.583-0.054,1.162,0.049,1.691c0.081,0.254,0.146,0.505,0.239,0.74c0.118,0.23,0.232,0.454,0.352,0.662
			c0.155,0.191,0.312,0.374,0.465,0.548c0.166,0.15,0.342,0.273,0.506,0.397c0.328,0.224,0.641,0.346,0.883,0.458
			c0.242,0.079,0.432,0.142,0.557,0.183c0.128,0.044,0.19,0.058,0.19,0.058c0.93,0.051,1.512-0.609,1.438-1.283
			c-0.073-0.7-0.695-1.186-1.255-1.22c-0.005,0.005-0.102,0.029-0.317,0.066c-0.057,0.009-0.117,0.023-0.182,0.027
			c-0.063,0-0.124-0.001-0.2-0.003c-0.155,0.013-0.293-0.036-0.477-0.082c-0.322-0.124-0.743-0.498-0.996-1.143
			c-0.235-0.621-0.252-1.551,0.211-2.379c0.271-0.529,0.732-0.951,1.243-1.252c0.511-0.266,1.188-0.438,1.729-0.398
			c0.556,0.028,0.961,0.267,1.262,0.656c0.305,0.379,0.524,0.905,0.648,1.398c0.22,0.857-0.098,1.489-0.398,1.889
			c-0.137,0.208-0.308,0.339-0.411,0.436c-0.097,0.098-0.157,0.143-0.162,0.141c-0.204,0.181-0.288,0.463-0.342,0.75
			c-0.036,0.3,0.001,0.654,0.175,0.954c0.167,0.301,0.458,0.487,0.826,0.514C588.825,7.884,589.235,7.708,589.579,7.385z"/>
	</g>
</g>
<g>
	<g>
		<path fill="#786031" d="M286.135,6.957c0,0,0.057-0.064,0.144-0.205c0.083-0.145,0.232-0.328,0.363-0.607
			c0.276-0.53,0.581-1.441,0.376-2.482c-0.024-0.265-0.148-0.501-0.245-0.755c-0.098-0.269-0.221-0.443-0.358-0.683
			c-0.28-0.442-0.642-0.924-1.196-1.248c-0.542-0.335-1.231-0.413-1.819-0.306c-0.303,0.042-0.588,0.131-0.867,0.229
			c-0.141,0.044-0.276,0.127-0.416,0.19c-0.135,0.072-0.283,0.124-0.399,0.226c-1.017,0.696-1.6,1.762-1.722,2.767
			c-0.069,0.498-0.047,0.997,0.042,1.449c0.068,0.217,0.124,0.432,0.205,0.635c0.1,0.196,0.198,0.388,0.3,0.566
			c0.133,0.165,0.267,0.324,0.397,0.47c0.144,0.128,0.296,0.235,0.435,0.341c0.283,0.191,0.548,0.296,0.757,0.393
			c0.208,0.068,0.368,0.122,0.477,0.157c0.111,0.038,0.163,0.05,0.163,0.05c0.801,0.043,1.298-0.523,1.235-1.1
			c-0.064-0.6-0.598-1.017-1.077-1.045c-0.004,0.005-0.088,0.024-0.274,0.057c-0.044,0.007-0.1,0.02-0.156,0.023
			c-0.051,0-0.106-0.001-0.167-0.002c-0.137,0.01-0.253-0.032-0.411-0.071c-0.277-0.106-0.637-0.427-0.855-0.98
			c-0.201-0.53-0.215-1.33,0.181-2.039c0.232-0.455,0.628-0.817,1.065-1.075c0.438-0.226,1.021-0.374,1.484-0.341
			c0.475,0.026,0.822,0.229,1.081,0.563c0.259,0.326,0.449,0.776,0.554,1.198c0.19,0.737-0.083,1.279-0.341,1.621
			c-0.117,0.178-0.263,0.292-0.35,0.374c-0.083,0.084-0.137,0.123-0.14,0.121c-0.177,0.155-0.248,0.396-0.295,0.644
			c-0.032,0.256,0.002,0.559,0.149,0.817c0.146,0.258,0.394,0.417,0.711,0.438C285.488,7.385,285.84,7.233,286.135,6.957z"/>
	</g>
</g>
<g>
	<g>
		<g>
			<g>
				<path fill="#177EA4" d="M4.288,33.677c0,0,0.276,0.961,1.037,2.268c0.765,1.29,2.005,2.972,4.037,4.101
					c0.504,0.279,1.086,0.494,1.709,0.608c0.625,0.122,1.333,0.047,1.923-0.137c0.6-0.223,1.184-0.558,1.577-1.041
					c0.397-0.466,0.675-0.986,0.832-1.496c0.337-1.02,0.378-1.982,0.363-2.825c-0.018-0.845-0.113-1.578-0.199-2.171
					c-0.136-1.207-0.633-2.676-1.438-4.028c-0.809-1.356-1.933-2.679-3.513-3.427c-0.372-0.215-0.831-0.296-1.25-0.415
					c-0.447-0.028-0.904-0.108-1.334-0.008c-0.438,0.074-0.858,0.168-1.198,0.363c-0.366,0.164-0.686,0.345-0.916,0.556
					c-0.242,0.2-0.489,0.385-0.651,0.561c-0.152,0.18-0.284,0.335-0.391,0.462c-0.213,0.262-0.331,0.406-0.331,0.406
					c-0.379,0.775,0.121,1.656,1.036,1.956c0.922,0.304,1.833,0.174,2.03-0.257c0.005,0.013,0.115-0.262,0.333-0.627
					c0.242-0.353,0.533-0.662,1.118-0.742c0.599-0.102,1.59,0.302,2.422,1.002c0.846,0.696,1.569,1.666,2,2.644
					c0.122,0.245,0.223,0.522,0.302,0.823c0.109,0.298,0.155,0.64,0.204,1.049c0.095,0.8,0.125,1.726-0.011,2.625
					c-0.119,0.892-0.461,1.775-0.932,2.133c-0.23,0.186-0.469,0.302-0.804,0.319c-0.299,0.023-0.559-0.005-0.908-0.17
					c-0.669-0.281-1.335-0.904-1.842-1.525C8.977,36.048,8.6,35.376,8.33,34.799c-0.522-1.174-0.638-1.955-0.637-1.955
					c-0.142-0.512-0.941-0.858-1.921-0.777C4.822,32.143,4.082,32.891,4.288,33.677z"/>
			</g>
		</g>
	</g>
	<g>
		<g>
			<g>
				<path fill="#177EA4" d="M13.404,21.7c0,0,0.064,0.24,0.226,0.656c0.158,0.417,0.402,1.01,0.781,1.698
					c0.754,1.353,2.048,3.182,4.226,4.272c1.066,0.53,2.443,0.794,3.704,0.428c0.634-0.187,1.221-0.539,1.669-0.991
					c0.421-0.468,0.746-0.982,0.931-1.504c0.408-1.038,0.478-2.036,0.505-2.909c0.015-0.876-0.046-1.642-0.117-2.261
					c-0.127-1.263-0.604-2.787-1.415-4.206c-0.806-1.425-1.969-2.792-3.549-3.615c-0.372-0.233-0.84-0.327-1.254-0.472
					c-0.456-0.04-0.904-0.163-1.348-0.081c-0.446,0.045-0.875,0.108-1.238,0.28c-0.381,0.14-0.726,0.295-0.978,0.495
					c-0.266,0.187-0.528,0.358-0.715,0.525c-0.171,0.175-0.317,0.326-0.438,0.449c-0.239,0.255-0.37,0.396-0.37,0.396
					c-0.454,0.776-0.02,1.712,0.873,2.068c0.902,0.363,1.826,0.277,2.062-0.153c0.006,0.016,0.138-0.265,0.398-0.624
					c0.278-0.35,0.64-0.659,1.309-0.702c0.676-0.056,1.702,0.381,2.557,1.147c0.869,0.752,1.602,1.779,2.032,2.81
					c0.101,0.259,0.234,0.554,0.298,0.87c0.099,0.313,0.16,0.662,0.186,1.08c0.064,0.832,0.071,1.798-0.112,2.725
					c-0.164,0.926-0.557,1.822-1.081,2.195c-0.249,0.206-0.537,0.293-0.895,0.315c-0.348,0.046-0.715-0.034-1.084-0.175
					c-0.741-0.265-1.424-0.87-1.949-1.498c-0.529-0.637-0.906-1.331-1.169-1.935c-0.271-0.603-0.412-1.133-0.506-1.497
					c-0.102-0.362-0.124-0.574-0.124-0.574c-0.139-0.559-0.958-0.949-1.932-0.847C13.938,20.163,13.213,20.904,13.404,21.7z"/>
			</g>
		</g>
	</g>
	<g>
		<g>
			<g>
				<path fill="#177EA4" d="M30.335,15.732c0,0-0.201,1.016-0.156,2.567c0.064,1.541,0.352,3.654,1.558,5.704
					c0.32,0.503,0.689,1.004,1.191,1.427c0.47,0.451,1.126,0.745,1.726,0.927c0.643,0.154,1.33,0.173,1.952-0.005
					c0.606-0.192,1.147-0.485,1.564-0.855c0.864-0.714,1.396-1.564,1.837-2.32c0.43-0.765,0.736-1.47,0.969-2.049
					c0.478-1.18,0.779-2.742,0.748-4.375c-0.025-1.636-0.376-3.385-1.321-4.876c-0.203-0.385-0.549-0.702-0.833-1.034
					c-0.352-0.28-0.696-0.586-1.1-0.768c-0.409-0.175-0.807-0.37-1.21-0.402c-0.399-0.063-0.788-0.127-1.109-0.076
					c-0.329,0.027-0.638,0.055-0.898,0.095c-0.238,0.07-0.442,0.129-0.609,0.179c-0.337,0.106-0.523,0.165-0.523,0.165
					c-0.791,0.457-0.864,1.493-0.255,2.235c0.615,0.754,1.462,1.125,1.868,0.876c-0.003,0.02,0.246-0.169,0.634-0.334
					c0.404-0.172,0.845-0.241,1.461,0.071c0.624,0.313,1.293,1.228,1.675,2.316c0.396,1.088,0.548,2.346,0.439,3.462
					c-0.04,0.274-0.054,0.604-0.15,0.913c-0.04,0.16-0.081,0.327-0.124,0.5c-0.073,0.174-0.13,0.346-0.219,0.539
					c-0.337,0.764-0.79,1.616-1.39,2.345c-0.583,0.734-1.356,1.326-1.97,1.373c-0.305,0.047-0.593-0.013-0.917-0.187
					c-0.177-0.064-0.283-0.183-0.415-0.267c-0.117-0.143-0.252-0.245-0.359-0.423c-0.47-0.632-0.758-1.549-0.902-2.393
					c-0.147-0.854-0.169-1.667-0.128-2.342c0.099-1.354,0.366-2.131,0.366-2.131c0.125-0.537-0.417-1.228-1.313-1.628
					C31.55,14.566,30.533,14.91,30.335,15.732z"/>
			</g>
		</g>
	</g>
	<g>
		<g>
			<g>
				<path fill="#177EA4" d="M50.438,28.27c-0.032-0.011,0.333-0.372,0.489-1.18c0.171-0.77-0.01-2.092-1.15-3.009
					c-0.271-0.235-0.589-0.428-0.946-0.581c-0.352-0.147-0.687-0.234-1.065-0.27c-0.73-0.101-1.621,0.113-2.288,0.61
					c-0.361,0.237-0.598,0.553-0.843,0.871c-0.179,0.286-0.297,0.545-0.448,0.825c-0.155,0.271-0.28,0.558-0.375,0.86
					c-0.101,0.299-0.225,0.592-0.303,0.903c-0.328,1.237-0.41,2.581-0.177,3.883c0.198,1.31,0.941,2.553,1.941,3.355
					c0.531,0.383,1.152,0.637,1.772,0.693c0.622,0.041,1.183-0.096,1.674-0.271c0.963-0.399,1.646-0.964,2.174-1.43
					c1.056-0.931,2.174-2.267,2.98-3.923c0.769-1.651,1.278-3.555,1.132-5.442c-0.038-0.939-0.35-1.889-0.831-2.713
					c-0.284-0.401-0.563-0.786-0.949-1.062c-0.348-0.322-0.739-0.501-1.108-0.662c-0.369-0.191-0.7-0.222-1-0.29
					c-0.299-0.058-0.567-0.11-0.755-0.096c-0.398,0.002-0.618,0.003-0.618,0.003c-0.555,0.035-0.891,0.404-1.099,0.776
					c-0.198,0.389-0.204,0.848-0.033,1.3c0.362,0.918,1.127,1.456,1.594,1.398c-0.016,0.023,0.33-0.125,0.72-0.096
					c0.383,0.034,0.845,0.112,1.299,0.884c0.415,0.782,0.6,2.074,0.432,3.376c-0.149,1.316-0.653,2.63-1.355,3.67
					c-0.356,0.526-0.876,1.164-1.553,1.744c-0.662,0.571-1.561,1.068-2.268,1.055c-0.347-0.009-0.63-0.102-0.928-0.36
					c-0.297-0.26-0.549-0.642-0.73-1.063c-0.358-0.86-0.4-1.97-0.151-2.994c0.237-1.012,0.751-1.989,1.246-2.636
					c0.146-0.173,0.214-0.132,0.297-0.143c0.063-0.004,0.274,0.063,0.239,0.076c0.028,0.105-0.067,0.074-0.05,0.073
					c0.199-0.118,0.009,0.896,0.417,1.77c0.201,0.439,0.541,0.754,1.004,0.854c0.236,0.038,0.462,0.087,0.783-0.082
					C49.9,28.798,50.241,28.591,50.438,28.27z"/>
			</g>
		</g>
	</g>
	<g>
		<g>
			<g>
				<path fill="#177EA4" d="M21.512,53.819c0,0-0.758,0.501-2.067,1.036c-0.65,0.257-1.439,0.523-2.28,0.657
					c-0.835,0.139-1.741,0.139-2.399-0.172l-0.075-0.045c-1.152-0.517-2.291-1.61-2.854-2.745c-0.151-0.284-0.28-0.567-0.344-0.852
					c-0.108-0.283-0.122-0.556-0.138-0.819c-0.045-0.255,0.025-0.539,0.045-0.785c0.037-0.249,0.048-0.487,0.107-0.691
					c0.222-0.989,0.81-2.112,1.711-2.997c0.895-0.897,2.054-1.555,3.179-2.091c1.125-0.54,2.212-0.999,3.024-1.472
					c0.404-0.232,0.739-0.455,0.968-0.609c0.229-0.18,0.354-0.279,0.354-0.279c0.275-0.263,0.353-0.697,0.24-1.086
					c-0.109-0.389-0.403-0.729-0.815-0.982c-0.412-0.253-0.853-0.395-1.198-0.462c-0.345-0.063-0.588-0.048-0.759,0.107
					c0,0-0.132,0.216-0.506,0.582c-0.363,0.37-0.971,0.876-1.788,1.479c-0.803,0.606-1.791,1.313-2.743,2.194
					c-0.955,0.874-1.839,1.964-2.435,3.117c-0.142,0.324-0.316,0.69-0.482,1.099c-0.119,0.419-0.291,0.873-0.386,1.356
					c-0.042,0.243-0.085,0.492-0.129,0.745l-0.065,0.384l-0.007,0.465c-0.033,0.643,0.113,1.232,0.268,1.809
					c0.743,2.246,2.294,3.835,3.597,4.665c-0.081-0.049-0.084-0.051-0.123-0.074c0.878,0.593,1.749,0.792,2.486,0.886
					c0.743,0.085,1.412,0.088,2,0.034c1.188-0.094,2.12-0.313,2.862-0.514c0.741-0.203,1.288-0.396,1.652-0.533
					c0.364-0.143,0.548-0.214,0.548-0.214c0.634-0.29,0.748-1.258,0.261-2.09C22.733,54.081,21.988,53.602,21.512,53.819z"/>
			</g>
		</g>
	</g>
	<g>
		<g>
			<g>
				<path fill="#177EA4" d="M30.365,51.058c0,0,0.258-0.023,0.728-0.12c0.469-0.143,1.197-0.464,1.804-1.186
					c0.554-0.722,0.913-1.734,0.836-2.827c-0.055-1.083-0.617-2.292-1.635-3.104c-1.019-0.825-2.336-1.123-3.563-1.122
					c-0.605,0.077-1.182,0.057-1.852,0.268c-0.326,0.068-0.655,0.198-0.983,0.36c-0.333,0.128-0.638,0.368-0.946,0.586
					c-1.23,0.965-1.793,2.543-1.848,3.904c-0.062,1.393,0.205,2.73,0.729,3.984c1.044,2.59,3.455,4.454,5.91,5.156
					c2.462,0.776,4.929,0.718,7.089,0.45c2.166-0.319,4.064-0.927,5.55-1.655c1.504-0.726,2.502-1.63,3.112-2.219
					c0.592-0.606,1.556-1.59,2.327-3.144c0.789-1.518,1.348-3.682,0.924-6.029c-0.121-0.576-0.256-1.171-0.487-1.742
					c-0.095-0.288-0.213-0.582-0.396-0.886c-0.146-0.314-0.364-0.584-0.591-0.853c-0.926-1.093-2.262-1.623-3.484-2.042
					c-1.229-0.414-2.507-0.687-3.433-1.192c-0.477-0.24-0.733-0.556-0.833-0.85l-0.052-0.109l-0.075-0.251l-0.152-0.502
					c-0.105-0.334-0.188-0.674-0.359-0.99c-0.529-1.331-1.438-2.452-2.421-3.432c-0.547-0.429-1.055-0.912-1.671-1.219
					c-0.299-0.164-0.585-0.356-0.895-0.489c-0.316-0.121-0.629-0.241-0.939-0.36c-2.528-0.894-5.146-0.601-7.089,0.224
					c-1.958,0.835-3.286,2.067-4.066,3.014c-0.425,0.45-0.625,0.903-0.821,1.168c-0.176,0.28-0.269,0.428-0.269,0.428
					c-0.273,0.5-0.235,1.086-0.073,1.515c0.174,0.439,0.526,0.747,0.993,0.876c0.953,0.235,1.903-0.139,2.2-0.794
					c0,0,0.053-0.091,0.153-0.263c0.109-0.166,0.222-0.443,0.444-0.745c0.477-0.564,1.154-1.474,2.357-2.073
					c1.156-0.632,2.751-1.03,4.462-0.779c0.21,0.039,0.432,0.048,0.642,0.107c0.208,0.069,0.418,0.138,0.629,0.208
					c0.442,0.097,0.815,0.38,1.238,0.565c0.772,0.501,1.542,1.105,2.1,1.91c0.321,0.373,0.537,0.814,0.77,1.25
					c0.136,0.206,0.192,0.464,0.284,0.7l0.128,0.36c0.048,0.128,0.065,0.198,0.185,0.479c0.346,0.987,1.134,1.61,1.801,1.987
					c0.696,0.398,1.328,0.567,1.937,0.753c1.196,0.324,2.272,0.541,3.178,0.884c0.916,0.333,1.578,0.785,1.963,1.379
					c0.084,0.172,0.192,0.27,0.273,0.49c0.085,0.205,0.169,0.407,0.251,0.606c0.129,0.407,0.276,0.803,0.335,1.199
					c0.183,0.786,0.158,1.542,0.11,2.224c-0.156,1.37-0.633,2.431-1.011,3.101c-0.371,0.672-1.08,1.688-2.25,2.674
					c-0.589,0.491-1.29,0.93-2.111,1.31c-0.825,0.392-1.798,0.68-2.823,0.938c-2.066,0.454-4.452,0.629-6.739,0.185
					c-1.129-0.236-2.241-0.595-3.186-1.17c-0.938-0.581-1.692-1.356-2.251-2.242c-0.515-0.872-0.817-1.978-0.887-2.978
					c-0.026-0.502,0.009-0.98,0.102-1.398c0.117-0.398,0.251-0.761,0.465-0.993c0.388-0.486,1.003-0.701,1.831-0.746
					c0.844-0.096,1.486,0.099,1.84,0.345c0.732,0.471,0.55,1.335,0.426,1.393c-0.029,0.022-0.035,0.017-0.041,0.03
					c-0.022-0.023-0.01-0.003-0.02,0.005c-0.049-0.029-0.065-0.009-0.066-0.011c-0.136,0.05-1.065,0.488-1.541,1.342
					c-0.227,0.426-0.237,0.899,0.033,1.35C28.872,50.707,29.521,51.088,30.365,51.058z"/>
			</g>
		</g>
	</g>
</g>
<path fill="#543021" d="M120.328,57.709c-0.071,0.07-0.143,0.142-0.214,0.213h-11.122c-0.499-0.144-0.855-0.213-1.354-0.429
	c-1.569-0.782-2.209-1.853-3.35-3.207L94.093,41.455c-0.071-0.143-4.776-6.06-5.989-6.986c-1.496-1.211-2.779,0.142-2.779,1.353
	v9.839c0,2.993,0.428,6.273,1.283,7.628c0.998,1.782,4.776,2.066,6.131,2.495c0.357,0.143,0.214,0.143,0.357,0.285
	c0.071,0.071,0.213,0.285,0.213,0.427v0.998c-0.071,0.072-0.071,0.216-0.213,0.286c-0.143,0.144,0.142,0-0.357,0.357
	c-4.278-0.357-6.773-0.072-11.049-0.144c-4.064,0-6.488,0-10.623,0c-0.072-0.213-0.215-0.213-0.286-0.427
	c-0.071-0.142-0.142-0.355-0.213-0.499v-0.641c0.071-0.215,0.142-0.429,0.284-0.571c0.143-0.144,0.286-0.214,0.5-0.214
	c0-0.286,3.28,0,6.06-2.282c1.283-0.998,1.212-5.061,1.212-5.417V25.201c0-3.779,0.285-10.692-1.782-12.261
	c-1.497-1.141-2.353-1.141-5.204-1.711c-0.071-0.071-0.57-0.285-0.712-0.642V9.803c0.07-0.215,0.142-0.356,0.213-0.499
	c0.143-0.286,0.286-0.428,0.5-0.571c4.063,0.286,6.487,0.214,10.694,0.214c3.707,0,5.917-0.142,9.694-0.356
	c0.143,0.072,0.286,0.142,0.356,0.142c0.214,0.143,0.286,0.286,0.357,0.357v1.497c-0.499,0.856-3.992,1.069-5.561,1.997
	c-2.139,1.283-1.924,6.129-1.924,7.697v8.555c0,1.142-0.143,2.424,0.926,2.709c1.924,0.642,4.349-2.281,4.634-2.425
	c2.708-2.637,4.277-4.206,6.702-6.986c1.14-1.211,2.637-2.994,2.993-3.421c1.498-1.996,3.352-3.92,2.853-5.773
	c-0.356-1.64-3.565-1.497-3.921-1.925c-0.142-0.143-0.286-0.285-0.428-0.499V9.661c0.071-0.144,0.071-0.429,0.286-0.643
	c0.07-0.072,0.142-0.213,0.285-0.286c3.35,0.072,5.276,0.214,8.626,0.214c3.28,0,5.204-0.071,8.554-0.214
	c0.072,0.072,0.213,0.143,0.286,0.214c0.142,0.072,0.213,0.215,0.213,0.357v1.212c-0.071,0.213-0.143,0.428-0.286,0.499
	c-2.352,0.428-4.846,1.782-7.556,3.565c-2.281,1.496-4.776,3.992-5.347,4.561l-8.983,9.054c-0.642,0.641-1.068,1.211-0.998,2.14
	c0.07,0.641,0.355,1.067,0.712,1.567l8.2,9.981c4.205,5.203,8.84,9.694,12.189,12.047c1.641,1.213,3.066,1.426,4.991,1.997
	c0.143,0.143,0.213,0.284,0.213,0.427c0.072,0.072,0.072,0.214,0.072,0.214v0.712C120.471,57.494,120.398,57.565,120.328,57.709z"/>
<path fill="#543021" d="M160.322,50.901l-9.482,0.642c-0.428-0.642-0.641-1.498-0.927-2.567c-0.284-1.07-0.427-1.854-0.499-2.923
	h-0.499l-1.925,1.925c-1.497,1.568-6.13,4.207-10.479,4.135c-7.129-0.214-10.694-4.42-10.479-9.981
	c0.143-5.703,3.421-8.769,10.978-9.696l6.345-0.712c3.352-0.428,5.776-1.853,5.917-4.633c0.358-5.561-0.285-10.266-6.915-10.48
	c-3.993-0.071-5.703,2.853-5.846,6.346c0,2.21-1.639,2.995-3.279,2.852c-1.782-0.143-3.921-1.925-3.352-4.207
	c1.356-5.062,6.844-7.057,12.334-6.986c6.345,0.071,13.331,1.426,13.117,9.694c-0.214,6.132-0.072,1.356-0.072,2.282l-0.427,13.617
	c-0.072,2.994-0.072,6.488,1.498,7.628c0.854,0.57,2.565,0.998,4.063,0.855l0.5,0.571v1.069L160.322,50.901z M147.205,33.435h-1.14
	c-0.285,0-9.838,0.428-12.333,3.85c-1.284,1.854-2.139,6.488,0,9.125c1.426,1.782,3.993,2.71,5.49,2.567
	c7.769-0.785,10.051-5.49,9.91-11.905C149.131,35.502,148.987,33.435,147.205,33.435z"/>
<path fill="#543021" d="M188.839,22.587l-5.773,0.356c-1.284,0.144-2.78,0.429-3.351,0.999c-0.642,0.999-0.855,1.092-0.855,2.59
	v11.066c0,5.133,0.214,7.767,1.569,9.549c1.425,1.782,3.991,1.782,4.775,1.782h2.638l0.641,0.285v0.998l-0.356,0.57l-4.705,0.856
	c-1.497,0.214-2.424,0.355-3.991,0.355c-3.993,0.143-6.63-1.924-6.63-5.204V25.011c0-0.356-0.071-0.571-0.143-0.927
	c-0.642-1.926-5.489-1.283-6.416-1.64l-0.499-0.426v-1.355l0.569-0.356l4.064-0.142c0.927,0,2.71-0.1,3.47-0.57
	c0.875-0.541,1.585-0.789,1.978-1.993l0.849-2.627l0.571-0.357h1.211l0.428,0.429l0.21,3.068c0,0.641,0.266,0.982,0.622,1.339
	c0.357,0.569,1.997,0.855,4.635,0.855h4.419l0.712,0.642v0.999L188.839,22.587z"/>
<path fill="#543021" d="M227.194,30.156l-1.354,1.069h-16.824c-2.424,0-5.276-0.071-6.202,1.284
	c-1.569,2.281-0.142,16.254,11.905,16.254c3.635,0,7.414-1.426,10.266-3.708l1.71-1.354c0.213,0,0.356,0,0.571,0.072
	c0.143,0.07,0.214,0.214,0.356,0.284v1.141c-2.709,3.279-8.698,6.916-15.114,6.916c-12.618,0-17.395-8.271-17.395-17.895
	c0-10.479,5.276-19.319,18.465-19.319c9.98,0,14.187,5.702,14.187,11.191C227.765,27.875,227.835,28.161,227.194,30.156z
	 M212.508,17.254c-5.773,0-9.694,6.059-9.836,10.907c0,0.569,0.712,0.641,1.211,0.641h10.907c1.853,0,3.564,0.214,4.705-0.641
	c0.998-0.714,1.426-1.997,1.426-3.565C220.921,20.246,217.213,17.254,212.508,17.254z"/>
<path fill="#543021" d="M261.984,26.165c-1.426-0.072-2.71-0.571-2.567-2.71c0-1.924-0.997-4.847-4.847-4.847
	c-6.203,0-9.125,5.775-9.125,14.614v7.842c0,2.852,0.214,6.487,1.711,7.556c1.211,0.927,3.422,1.14,4.278,1.069l0.498,0.643v1.283
	l-0.712,0.5c-3.708-0.214-5.775-0.214-9.481-0.214c-3.352,0-5.277,0.07-8.557,0.214l-0.641-0.5v-1.213l0.356-0.499
	c1.07-0.499,3.85-0.427,5.204-2.067c1.355-1.498,1.711-4.99,1.711-8.199V28.088c0-0.356,0.214-4.919-1.568-6.985
	c-1.355-1.498-3.778-1.64-4.99-1.854l-0.357-0.57v-1.427l0.357-0.499c2.566,0,4.135-0.071,6.702-0.285
	c2.066-0.143,3.35-0.286,5.417-0.499l0.5,0.499v5.062h0.428c1.782-2.923,6.487-6.13,11.477-5.917
	c4.776,0.286,8.127,2.209,8.27,6.272C266.118,24.239,264.265,26.236,261.984,26.165z"/>
<path fill="#543021" d="M291.616,52.114c-1.498-0.215-5.775-0.286-9.41-0.356c-3.495,0-5.561,0-9.055,0.213l-0.499-0.428v-1.426
	l0.499-0.428c1.855-0.355,2.853-0.212,4.706-1.568c1.283-0.998,1.854-3.565,1.854-8.91V26.306c0-0.284,0-4.205-1.782-5.632
	c-1.569-1.282-3.208-1.425-5.704-1.854l-0.428-0.427v-1.354l0.569-0.57h5.419c0.785,0,2.923-0.143,4.776-0.429
	c1.354-0.07,2.138-0.214,3.492-0.426l0.429,0.426c-0.286,1.854-0.429,3.066-0.57,4.991c-0.215,2.638-0.286,4.207-0.286,6.915v10.337
	c0,3.851,0.213,8.271,1.567,9.768c0.785,0.855,2.71,1.567,4.635,1.639l0.285,0.713v1.213L291.616,52.114z"/>
<path fill="#543021" d="M341.308,52.114c-3.921-0.356-6.273-0.429-10.266-0.429c-3.209,0-5.132,0.144-8.27,0.356l-0.855-0.356
	v-1.568l0.57-0.499c1.283-0.071,3.85-0.356,5.133-1.497c0.643-0.5,1.71-2.567,1.71-7.699v-9.98c0-6.559-1.782-11.406-8.697-11.692
	c-6.914-0.142-11.263,5.774-11.263,15.042v7.841c0,2.567,0.143,5.204,1.354,6.488c1.14,1.141,4.136,1.355,4.705,1.426l0.356,0.712
	V51.4l-0.57,0.571c-3.851,0-6.059-0.286-9.909-0.286c-2.922,0-4.706,0.073-7.628,0.214l-0.427-0.427v-1.07l0.285-0.784
	c1.426-0.071,2.28-0.213,3.421-0.926c2.495-1.426,2.709-5.49,2.709-9.198V24.881c0-0.286,0.214-3.279-1.141-4.562
	c-1.354-1.355-3.707-1.141-4.49-1.284l-0.5-0.428v-1.355l0.427-0.642c3.136,0,4.99-0.142,8.057-0.356
	c1.425-0.143,3.35-0.285,3.707-0.429l0.569,0.357l-0.641,6.701l0.427,0.215c2.994-5.561,9.624-7.914,14.188-7.7
	c8.768,0.286,11.69,5.489,11.335,11.265l0.069,8.767c0,5.989-0.356,11.407,1.356,12.833c1.354,1.141,2.353,1.141,4.633,1.568
	l0.427,0.57v1.07L341.308,52.114z"/>
<path fill="#543021" d="M380.686,50.901l-9.483,0.642c-0.427-0.642-0.642-1.498-0.926-2.567c-0.285-1.07-0.429-1.854-0.5-2.923
	h-0.498l-1.926,1.925c-1.497,1.568-6.13,4.207-10.479,4.135c-7.13-0.214-10.694-4.42-10.48-9.981
	c0.144-5.703,3.422-8.769,10.979-9.696l6.345-0.712c3.352-0.428,5.775-1.853,5.918-4.633c0.356-5.561-0.285-10.266-6.915-10.48
	c-3.993-0.071-5.704,2.853-5.846,6.346c0,2.21-1.641,2.995-3.281,2.852c-1.781-0.143-3.92-1.925-3.349-4.207
	c1.354-5.062,6.844-7.057,12.332-6.986c6.345,0.071,13.332,1.426,13.117,9.694c-0.213,6.132-0.072,1.356-0.072,2.282l-0.426,13.617
	c-0.072,2.994-0.072,6.488,1.497,7.628c0.854,0.57,2.566,0.998,4.063,0.855l0.499,0.571v1.069L380.686,50.901z M367.566,33.435
	h-1.141c-0.285,0-9.838,0.428-12.334,3.85c-1.283,1.854-2.138,6.488,0,9.125c1.427,1.782,3.993,2.71,5.489,2.567
	c7.771-0.785,10.054-5.49,9.911-11.905C369.492,35.502,369.35,33.435,367.566,33.435z"/>
<path fill="#583021" d="M425.028,58.127c-6.132-0.499-8.697-0.499-14.259-0.357l-7.556,0.213c-0.286-0.355-0.429-0.64-0.429-1.068
	c0-0.499,0.214-0.927,0.641-1.212c1.64-0.499,4.778-0.427,6.345-2.495c1.141-1.497,1.285-3.493,1.285-5.846l0.143-28.444
	c0-2.423-0.214-4.491-1.497-6.131c-1.213-1.568-2.424-1.426-5.275-1.782c-0.429-0.286-0.713-0.071-0.713-1.211
	c0.07-0.5,0.212-1,0.641-1.284c3.851,0.285,5.988,0.356,9.837,0.5c5.563,0.142,8.841-0.429,14.402-0.286
	c6.129,0.142,11.906,1.07,12.334,9.98c0.355,6.417-4.492,10.837-11.192,12.262c-0.215,0.072-0.215,0.642-0.073,0.642
	c11.123,1.355,13.33,5.775,13.546,11.978C443.35,52.779,436.006,59.053,425.028,58.127z M424.957,10.791
	c-2.281,0.143-4.422,0.355-5.775,1.71c-0.926,0.855-1.139,1.783-1.21,3.065l-0.499,10.053c-0.144,1.853-0.144,4.276,1.21,4.633
	c0.785,0.286,1.283,0.286,2.067,0.286h2.994c3.635,0,10.837-1.854,10.622-10.266C434.296,15.566,432.657,10.576,424.957,10.791z
	 M426.025,32.89h-3.208c-1.782,0-3.636-0.213-4.562,0.784c-0.356,0.499-0.5,1.354-0.5,2.21v13.402c0,4.349,2.994,6.631,7.7,6.559
	c7.557-0.143,10.479-5.846,10.622-12.191C436.22,38.094,433.441,32.89,426.025,32.89z"/>
<path fill="#543021" d="M477.712,26.165c-1.425-0.072-2.708-0.571-2.566-2.71c0-1.924-0.998-4.847-4.846-4.847
	c-6.204,0-9.127,5.775-9.127,14.614v7.842c0,2.852,0.214,6.487,1.711,7.556c1.212,0.927,3.422,1.14,4.277,1.069l0.5,0.643v1.283
	l-0.715,0.5c-3.706-0.214-5.773-0.214-9.48-0.214c-3.35,0-5.274,0.07-8.555,0.214l-0.64-0.5v-1.213l0.354-0.499
	c1.069-0.499,3.849-0.427,5.204-2.067c1.355-1.498,1.712-4.99,1.712-8.199V28.088c0-0.356,0.214-4.919-1.569-6.985
	c-1.354-1.498-3.779-1.64-4.99-1.854l-0.356-0.57v-1.427l0.356-0.499c2.566,0,4.135-0.071,6.702-0.285
	c2.066-0.143,3.35-0.286,5.417-0.499l0.499,0.499v5.062h0.429c1.781-2.923,6.486-6.13,11.477-5.917
	c4.776,0.286,8.127,2.209,8.27,6.272C481.848,24.239,479.993,26.236,477.712,26.165z"/>
<path fill="#543021" d="M518.229,50.901l-9.482,0.642c-0.428-0.642-0.642-1.498-0.926-2.567c-0.286-1.07-0.429-1.854-0.5-2.923
	h-0.499l-1.925,1.925c-1.498,1.568-6.131,4.207-10.479,4.135c-7.13-0.214-10.694-4.42-10.481-9.981
	c0.144-5.703,3.423-8.769,10.979-9.696l6.345-0.712c3.351-0.428,5.775-1.853,5.918-4.633c0.355-5.561-0.286-10.266-6.916-10.48
	c-3.992-0.071-5.703,2.853-5.845,6.346c0,2.21-1.642,2.995-3.281,2.852c-1.782-0.143-3.919-1.925-3.349-4.207
	c1.354-5.062,6.843-7.057,12.331-6.986c6.346,0.071,13.332,1.426,13.118,9.694c-0.213,6.132-0.072,1.356-0.072,2.282l-0.428,13.617
	c-0.071,2.994-0.071,6.488,1.498,7.628c0.855,0.57,2.567,0.998,4.064,0.855l0.498,0.571v1.069L518.229,50.901z M505.11,33.435
	h-1.142c-0.285,0-9.837,0.428-12.333,3.85c-1.283,1.854-2.138,6.488,0,9.125c1.428,1.782,3.993,2.71,5.489,2.567
	c7.771-0.785,10.054-5.49,9.911-11.905C507.036,35.502,506.893,33.435,505.11,33.435z"/>
<path fill="#543021" d="M568.822,52.114c-3.921-0.356-6.272-0.429-10.266-0.429c-3.207,0-5.132,0.144-8.269,0.356l-0.856-0.356
	v-1.568l0.571-0.499c1.283-0.071,3.851-0.356,5.131-1.497c0.643-0.5,1.713-2.567,1.713-7.699v-9.98
	c0-6.559-1.783-11.406-8.699-11.692c-6.914-0.142-11.263,5.774-11.263,15.042v7.841c0,2.567,0.143,5.204,1.356,6.488
	c1.139,1.141,4.133,1.355,4.704,1.426l0.355,0.712V51.4l-0.57,0.571c-3.851,0-6.06-0.286-9.909-0.286
	c-2.923,0-4.705,0.073-7.628,0.214l-0.429-0.427v-1.07l0.287-0.784c1.426-0.071,2.281-0.213,3.422-0.926
	c2.495-1.426,2.707-5.49,2.707-9.198V24.881c0-0.286,0.216-3.279-1.141-4.562c-1.354-1.355-3.705-1.141-4.49-1.284l-0.498-0.428
	v-1.355l0.426-0.642c3.139,0,4.992-0.142,8.057-0.356c1.426-0.143,3.351-0.285,3.708-0.429l0.569,0.357l-0.641,6.701l0.428,0.215
	c2.993-5.561,9.623-7.914,14.187-7.7c8.77,0.286,11.691,5.489,11.334,11.265l0.072,8.767c0,5.989-0.357,11.407,1.354,12.833
	c1.354,1.141,2.354,1.141,4.634,1.568l0.428,0.57v1.07L568.822,52.114z"/>
<path fill="#543021" d="M594.702,52.114c-1.497-0.215-5.774-0.286-9.41-0.356c-3.493,0-5.561,0-9.054,0.213l-0.499-0.428v-1.426
	l0.499-0.428c1.854-0.355,2.852-0.212,4.706-1.568c1.283-0.998,1.853-3.565,1.853-8.91V26.306c0-0.284,0-4.205-1.782-5.632
	c-1.569-1.282-3.208-1.425-5.703-1.854l-0.427-0.427v-1.354l0.57-0.57h5.417c0.784,0,2.921-0.143,4.777-0.429
	c1.354-0.07,2.138-0.214,3.493-0.426l0.428,0.426c-0.286,1.854-0.428,3.066-0.571,4.991c-0.214,2.638-0.285,4.207-0.285,6.915
	v10.337c0,3.851,0.214,8.271,1.568,9.768c0.784,0.855,2.71,1.567,4.635,1.639l0.284,0.713v1.213L594.702,52.114z"/>
<g>
	<g>
		<path fill="#543021" d="M471.931,85.103c0,0,0.059-0.064,0.145-0.206c0.084-0.146,0.23-0.33,0.361-0.608
			c0.278-0.528,0.582-1.44,0.378-2.48c-0.023-0.266-0.146-0.503-0.246-0.755c-0.098-0.269-0.22-0.443-0.357-0.684
			c-0.28-0.44-0.642-0.922-1.192-1.247c-0.545-0.335-1.233-0.412-1.821-0.305c-0.303,0.044-0.586,0.129-0.868,0.228
			c-0.14,0.046-0.276,0.129-0.415,0.192c-0.134,0.072-0.281,0.121-0.399,0.224c-1.015,0.694-1.598,1.762-1.723,2.767
			c-0.067,0.499-0.047,0.996,0.044,1.448c0.07,0.218,0.124,0.434,0.203,0.637c0.103,0.194,0.198,0.388,0.304,0.564
			c0.131,0.167,0.266,0.323,0.397,0.47c0.141,0.13,0.292,0.233,0.432,0.342c0.282,0.191,0.55,0.296,0.759,0.395
			c0.208,0.067,0.367,0.12,0.475,0.151c0.111,0.04,0.163,0.052,0.163,0.052c0.801,0.044,1.298-0.52,1.236-1.101
			c-0.063-0.598-0.599-1.017-1.077-1.043c-0.004,0.004-0.087,0.024-0.272,0.056c-0.048,0.01-0.1,0.018-0.157,0.025
			c-0.051,0-0.104,0-0.169-0.004c-0.136,0.012-0.251-0.031-0.408-0.071c-0.277-0.102-0.636-0.425-0.856-0.98
			c-0.2-0.53-0.214-1.33,0.182-2.035c0.232-0.455,0.627-0.819,1.065-1.076c0.438-0.227,1.02-0.374,1.483-0.34
			c0.475,0.022,0.821,0.229,1.08,0.564c0.259,0.324,0.449,0.775,0.556,1.194c0.188,0.737-0.083,1.278-0.341,1.622
			c-0.117,0.177-0.264,0.287-0.352,0.372c-0.082,0.082-0.135,0.124-0.139,0.122c-0.176,0.154-0.249,0.395-0.296,0.644
			c-0.031,0.255,0.002,0.558,0.151,0.814c0.145,0.258,0.393,0.416,0.709,0.44C471.284,85.529,471.636,85.378,471.931,85.103z"/>
	</g>
</g>
<g>
	<path fill="#786041" d="M387.155,124.55c-4.155-0.107-6.838-0.158-10.729-0.267c-2.524-0.051-3.944,0.108-6.471,0.159
		c-0.263-0.21-0.419-0.473-0.419-0.839c0-0.425,0.367-0.633,0.789-0.898c0.629-0.208,2.629-0.473,3.628-1.629
		c0.999-1.05,1.105-4.05,1.105-6.682V97.985c0-2.682-0.053-5.417-1.42-6.836c-0.948-1.052-1.999-1.052-3.42-1.265
		c-0.264-0.261-0.369-0.576-0.369-0.945s0.159-0.578,0.369-0.788c3.63,0.262,5.838,0.367,9.469,0.367
		c4.681,0,7.152-0.421,11.991-0.526c9.047-0.157,16.199,4.365,15.673,17.305C406.933,116.079,403.146,125.18,387.155,124.55z
		 M389.261,89.676c-2.946,0.156-7.154-0.263-8.522,2.893c-0.947,2.052-0.841,7.048-0.841,9.258v10.782
		c0,3.523,0.42,8.099,1.314,8.992c1.158,1.158,3.419,1.476,5.682,1.476c11.938-0.105,14.937-8.365,14.886-17.831
		C401.672,97.512,399.254,89.044,389.261,89.676z"/>
	<path fill="#786041" d="M434.34,103.919l-0.999,0.79h-12.414c-1.787,0-3.891-0.054-4.575,0.946
		c-1.156,1.685-0.104,11.992,8.784,11.992c2.682,0,5.471-1.052,7.573-2.734l1.264-1c0.157,0,0.262,0,0.42,0.054
		c0.104,0.052,0.157,0.156,0.263,0.208v0.843c-1.997,2.418-6.416,5.101-11.148,5.101c-9.312,0-12.836-6.1-12.836-13.199
		c0-7.733,3.893-14.255,13.622-14.255c7.365,0,10.469,4.207,10.469,8.258C434.762,102.235,434.813,102.446,434.34,103.919z
		 M423.507,94.4c-4.263,0-7.155,4.47-7.26,8.046c0,0.42,0.526,0.473,0.894,0.473h8.048c1.368,0,2.629,0.158,3.471-0.473
		c0.735-0.528,1.052-1.472,1.052-2.631C429.711,96.608,426.977,94.4,423.507,94.4z"/>
	<path fill="#786041" d="M447.176,119.907c-2.156-0.104-3.63-0.473-5.418-0.84c-0.735-0.106-1.314,0.157-2.051,0.524l-0.999,0.526
		l-0.738-0.369v-10.15l0.316-0.421h0.895l0.368,0.316l0.527,1.736c1.104,3.417,2.944,6.993,8.415,7.047
		c3.944,0,5.522-2.208,5.682-5.261c0.156-3.26-2.947-4.153-5.789-4.838l-2.471-0.524c-3.997-0.947-7.783-2.684-7.572-7.314
		c0.208-4.521,3.523-7.678,8.677-7.886c2.209-0.054,3.893,0.734,5.786,0.84c0.947,0,1.525-0.367,2.367-0.788l0.419,0.526
		l-0.262,7.781l-0.368,0.425h-1.052l-0.368-0.316c-0.421-4.365-2.892-6.89-6.89-6.89c-2.893-0.054-4.997,1.944-5.05,4.573
		c-0.107,2.578,1.631,3.63,4.944,4.525l3.051,0.84c1.053,0.316,8.101,1.051,8.101,6.892
		C457.643,116.331,453.33,120.118,447.176,119.907z"/>
	<path fill="#786041" d="M475.685,120.118c-1.104-0.157-4.26-0.209-6.941-0.263c-2.577,0-4.104,0-6.681,0.159l-0.367-0.315v-1.051
		l0.367-0.317c1.369-0.263,2.104-0.157,3.472-1.159c0.948-0.733,1.366-2.626,1.366-6.573v-9.519c0-0.213,0-3.103-1.313-4.156
		c-1.158-0.947-2.367-1.053-4.208-1.367l-0.316-0.316v-0.998l0.421-0.422h3.997c0.579,0,2.158-0.105,3.524-0.315
		c1-0.051,1.578-0.158,2.576-0.316l0.316,0.316c-0.21,1.368-0.316,2.262-0.419,3.685c-0.159,1.944-0.213,3.1-0.213,5.099v7.626
		c0,2.841,0.158,6.102,1.158,7.205c0.578,0.631,1.999,1.158,3.42,1.212l0.21,0.525v0.895L475.685,120.118z"/>
	<path fill="#786041" d="M500.883,93.134l-3.314,0.264c-1.052,0.157-1.63,0.526-1.314,0.894c1.788,1.79,2.313,3.262,2.313,5.629
		c0,5.312-3.891,8.941-10.361,8.941c-2.419,0-7.995-0.896-8.151,2.579c-0.105,2.364,2.682,3.205,5.259,3.049
		c3.366-0.212,5.522-0.422,8.679-0.422c5.102,0,9.625,1.577,9.625,8.574c0,7.729-7.363,12.358-15.622,12.358
		c-3.787,0-13.569-1.054-13.569-8.152c0-2.154,1.578-3.998,3.524-3.786c1.263,0.156,2.419,0.578,2.578,2.052
		c0.21,1.313-0.422,1.893-0.526,3.104c-0.421,3.207,3.313,5.311,8.152,5.311s10.992-1.944,10.992-8.678
		c0-4.684-2.787-6.102-8.624-6.102c-2.368-0.054-3.946,0.264-6.366,0.264c-4.68,0-7.099-1.895-7.099-5.313
		c0-3.049,1.839-4.681,5.047-5.994c-3.208-1.419-4.313-3.315-4.313-6.681c0-5.892,3.472-9.259,10.784-9.259
		c1.996,0,8.992,0.788,10.098-0.21c0.315-0.314,0.42-0.472,0.42-0.841v-1.313c0-1.896,0.947-2.263,2.208-2.316
		c1.422-0.054,2.368,1.318,2.475,2.736C503.88,91.819,502.565,92.925,500.883,93.134z M488.576,93.397
		c-4.42,0-6.209,3.733-6.209,7.627c0,4.629,2.211,6.259,5.892,6.259c3.893,0,5.839-3.471,5.839-7.363
		C494.098,96.869,492.993,93.397,488.576,93.397z"/>
	<path fill="#786041" d="M539.334,120.118c-2.892-0.263-4.63-0.315-7.574-0.315c-2.365,0-3.786,0.106-6.1,0.266l-0.633-0.266v-1.154
		l0.423-0.371c0.945-0.054,2.838-0.261,3.785-1.105c0.474-0.368,1.264-1.893,1.264-5.681v-7.362c0-4.84-1.315-8.416-6.417-8.626
		c-5.103-0.104-8.313,4.259-8.313,11.099v5.786c0,1.895,0.107,3.839,1,4.784c0.842,0.845,3.053,1.002,3.472,1.052l0.264,0.526v0.844
		l-0.422,0.421c-2.84,0-4.47-0.212-7.31-0.212c-2.157,0-3.472,0.053-5.629,0.158l-0.316-0.314v-0.79l0.212-0.579
		c1.052-0.054,1.683-0.156,2.525-0.683c1.84-1.052,1.998-4.052,1.998-6.784v-10.783c0-0.212,0.157-2.42-0.842-3.367
		c-0.999-1.001-2.735-0.842-3.314-0.947l-0.367-0.314V94.4l0.315-0.475c2.314,0,3.683-0.105,5.943-0.265
		c1.052-0.103,2.471-0.207,2.734-0.314l0.423,0.266l-0.475,4.943l0.315,0.155c2.209-4.103,7.101-5.838,10.467-5.679
		c6.47,0.21,8.627,4.049,8.363,8.309l0.052,6.471c0,4.419-0.262,8.415,1.001,9.467c0.999,0.843,1.734,0.843,3.417,1.157l0.316,0.421
		v0.79L539.334,120.118z"/>
	<path fill="#786041" d="M567.058,103.919l-1,0.79h-12.412c-1.788,0-3.893-0.054-4.576,0.946
		c-1.157,1.685-0.104,11.992,8.783,11.992c2.683,0,5.471-1.052,7.575-2.734l1.262-1c0.158,0,0.263,0,0.421,0.054
		c0.104,0.052,0.157,0.156,0.263,0.208v0.843c-1.998,2.418-6.417,5.101-11.15,5.101c-9.311,0-12.834-6.1-12.834-13.199
		c0-7.733,3.894-14.255,13.622-14.255c7.365,0,10.468,4.207,10.468,8.258C567.479,102.235,567.531,102.446,567.058,103.919z
		 M556.223,94.4c-4.261,0-7.153,4.47-7.258,8.046c0,0.42,0.526,0.473,0.894,0.473h8.047c1.368,0,2.63,0.158,3.473-0.473
		c0.735-0.528,1.052-1.472,1.052-2.631C562.43,96.608,559.694,94.4,556.223,94.4z"/>
	<path fill="#786041" d="M592.203,100.975c-1.052-0.053-2.001-0.423-1.894-2.001c0-1.417-0.737-3.575-3.578-3.575
		c-4.575,0-6.731,4.262-6.731,10.782v5.788c0,2.103,0.158,4.784,1.261,5.574c0.896,0.683,2.524,0.842,3.157,0.788l0.368,0.473v0.947
		l-0.525,0.367c-2.736-0.157-4.261-0.157-6.995-0.157c-2.473,0-3.894,0.054-6.313,0.157l-0.476-0.367v-0.893l0.265-0.369
		c0.789-0.368,2.841-0.315,3.841-1.524c0.999-1.105,1.263-3.684,1.263-6.05v-8.521c0-0.264,0.157-3.63-1.159-5.155
		c-0.999-1.103-2.787-1.209-3.682-1.368l-0.263-0.419V94.4l0.263-0.368c1.895,0,3.051-0.054,4.944-0.212
		c1.526-0.105,2.473-0.208,3.997-0.366l0.369,0.366v3.736h0.315c1.315-2.158,4.785-4.524,8.468-4.368
		c3.523,0.211,5.997,1.632,6.102,4.629C595.254,99.555,593.886,101.026,592.203,100.975z"/>
</g>
<g>
	<g>
		<path fill="#177EA4" d="M354.728,104.579c-0.498,0.159-1.271,0.278-2.223,0.325c-1.908,0.103-3.698-0.106-6.33-0.27
			c-2.633-0.158-4.831-0.2-6.4-0.14c-1.568,0.078-2.484,0.128-2.484,0.128c-1.37,0-2.173,1.366-1.938,2.337
			c0.229,0.97,1.439,1.931,2.606,1.251c0,0,0.119-0.121,0.363-0.323c0.251-0.179,0.631-0.428,1.146-0.72
			c0.511-0.319,1.181-0.528,1.978-0.807c0.808-0.199,1.756-0.38,2.838-0.391c2.732-0.056,4.884,0.759,7.244,1.366
			c1.182,0.3,2.226,0.522,3.005,0.603c0.395,0.024,0.701,0.072,0.925,0.063c0.227-0.009,1.061-0.145,1.233-0.276
			c0.182-0.164,1.007-0.924,0.763-1.911c-0.246-0.99-0.759-1.241-1.267-1.323C355.734,104.417,355.245,104.458,354.728,104.579z"/>
	</g>
</g>
</svg>
