<?xml version="1.0" encoding="utf-8"?>
<!-- Generator: Adobe Illustrator 19.2.0, SVG Export Plug-In . SVG Version: 6.00 Build 0)  -->
<svg version="1.1" id="Layer_1" xmlns="http://www.w3.org/2000/svg" xmlns:xlink="http://www.w3.org/1999/xlink" x="0px" y="0px"
	 viewBox="0 0 100 100" style="enable-background:new 0 0 100 100;" xml:space="preserve">
<style type="text/css">
	.st0{fill:url(#SVGID_1_);}
	.st1{fill:#764098;}
</style>
<linearGradient id="SVGID_1_" gradientUnits="userSpaceOnUse" x1="-4.488356e-09" y1="4.490175e-09" x2="100" y2="100">
	<stop  offset="0" style="stop-color:#FFFFFF"/>
	<stop  offset="1" style="stop-color:#D9D3E6"/>
</linearGradient>
<rect class="st0" width="100" height="100"/>
<g>
	<g>
		<g>
			<g>
				<path class="st1" d="M52.2,23.4c-0.1,0-0.2,0-0.2,0c-0.5-0.1-0.9-0.3-1.1-0.5c-0.1,0-0.5-0.4-0.8-1c-0.1-0.3-0.2-0.6-0.2-0.8
					c0-0.2,0-0.3,0-0.4c0.1-0.4,0.2-0.7,0.4-0.7c0,0,0.1,0,0.2,0.1c0.1,0,0.2,0.1,0.3,0.2c0.2,0.2,0.1,0.3,0,0.4
					c0,0-0.1,0.1-0.1,0.1c0,0,0,0.1,0,0.1c0,0.1-0.1,0.4,0,0.6c0.1,0.2,0.3,0.6,0.7,0.8c0.2,0.1,0.5,0.2,0.8,0.2c0.1,0,0.1,0,0.2,0
					c0.2,0,0.4-0.1,0.5-0.1c0.1,0,0.3-0.1,0.5-0.2c0.1-0.1,0.5-0.3,0.8-0.6c0.3-0.3,0.4-0.7,0.5-0.7c0.1-0.2,0.1-0.5,0.2-0.8
					c0-0.2-0.1-0.8-0.3-1.3c-0.2-0.4-0.4-0.7-0.6-1c-0.1-0.1-0.1-0.2-0.1-0.2c-0.2-0.3-0.5-0.7-0.7-1.2c-0.2-0.3-0.4-0.9-0.6-1.4
					c-0.1-0.3-0.2-0.5-0.2-0.7c0,0-0.1-0.3-0.1-0.3l0-0.2L52,13.4c0-0.1,0-0.2,0-0.3l0-0.2c0-0.1,0-0.2,0-0.2c0-0.1,0-0.9,0.2-1.6
					l0.1-0.4c0-0.1,0.1-0.2,0.1-0.3c0.1-0.2,0.2-0.3,0.2-0.4c0.1-0.2,0.2-0.2,0.3-0.2c0.1,0,0.2,0,0.2,0.1c0.1,0.1,0.2,0.2,0.2,0.3
					c0,0.1,0,0.2-0.1,0.2c-0.1,0.1-0.1,0.1-0.2,0.2l-0.1,0.1c0,0.1-0.1,0.1-0.1,0.2l-0.1,0.4c-0.2,0.5-0.2,1.2-0.2,1.6
					c0.1,0.7,0.3,1.7,0.7,2.7c0.4,0.9,0.7,1.5,0.8,1.6l0.6,1c0.5,0.9,0.7,1.7,0.6,2.6c-0.2,1.1-1.1,1.9-1.9,2.3
					C53,23.3,52.6,23.4,52.2,23.4z"/>
				<path class="st1" d="M53,9.9c0.1,0,0.1,0,0.2,0.1c0.2,0.2,0.2,0.3,0.1,0.4c0,0-0.1,0.1-0.2,0.3c0,0.1-0.1,0.2-0.2,0.3
					c0,0.1-0.1,0.2-0.1,0.4c-0.2,0.5-0.2,1.3-0.2,1.7c0.1,0.8,0.4,1.9,0.7,2.7c0.4,0.8,0.7,1.5,0.8,1.6c0,0.1,0.3,0.4,0.6,1
					c0.3,0.6,0.7,1.5,0.5,2.5c-0.2,1-1,1.9-1.9,2.3c-0.3,0.2-0.8,0.3-1.2,0.3c-0.1,0-0.1,0-0.2,0c-0.5,0-0.8-0.2-1.1-0.4
					c-0.1,0-0.5-0.4-0.7-0.9c-0.1-0.3-0.2-0.5-0.2-0.8c0-0.2,0.1-0.4,0.1-0.4c0-0.3,0.2-0.6,0.3-0.6c0,0,0.1,0,0.1,0
					c0.1,0.1,0.2,0.1,0.3,0.2c0.2,0.2,0,0.2-0.1,0.4c0,0.1,0,0.1-0.1,0.2c0,0.1,0,0.3,0.1,0.6c0.1,0.3,0.4,0.6,0.7,0.8
					c0.3,0.2,0.6,0.2,0.8,0.2c0.1,0,0.1,0,0.2,0c0.3,0,0.5-0.1,0.5-0.2c0.1,0,0.2-0.1,0.4-0.2c0.1,0,0.5-0.3,0.8-0.6
					c0.3-0.3,0.5-0.7,0.5-0.8c0,0,0,0,0,0c0,0,0.1-0.2,0.2-0.8c0-0.2-0.1-0.8-0.3-1.3c-0.3-0.5-0.6-1-0.7-1.2
					c-0.2-0.3-0.5-0.7-0.7-1.2c-0.1-0.3-0.4-0.9-0.6-1.4c-0.1-0.3-0.2-0.5-0.2-0.7c0-0.2-0.1-0.3-0.1-0.3c0,0,0-0.1,0-0.2
					c0-0.1,0-0.3-0.1-0.5c0-0.2,0-0.4,0-0.5c0-0.1,0-0.2,0-0.2c0-0.3,0-1,0.2-1.5c0.1-0.1,0.1-0.3,0.1-0.4c0.1-0.1,0.1-0.2,0.2-0.3
					c0.1-0.2,0.2-0.3,0.2-0.3C52.8,10,52.9,9.9,53,9.9 M53,9.7C53,9.7,53,9.7,53,9.7c-0.1,0-0.3,0.1-0.4,0.2c0,0,0,0,0,0
					c-0.1,0.1-0.1,0.2-0.2,0.3l0,0.1c0,0.1-0.1,0.2-0.1,0.2l-0.1,0.3L52,11c-0.2,0.7-0.2,1.5-0.2,1.6c0,0,0,0.1,0,0.2l0,0.1
					c0,0.1,0,0.2,0,0.4l0.1,0.5l0,0.2l0.1,0.3c0,0.2,0.1,0.4,0.2,0.7c0.2,0.5,0.4,1.1,0.6,1.4c0.2,0.5,0.5,0.9,0.7,1.2
					c0,0,0.1,0.1,0.1,0.2c0.2,0.2,0.4,0.6,0.6,1c0.3,0.5,0.3,1,0.3,1.2c0,0.3-0.1,0.5-0.1,0.7c0,0,0,0.1,0,0.1l0,0
					c0,0-0.2,0.4-0.4,0.6c-0.2,0.3-0.6,0.5-0.7,0.6c-0.2,0.1-0.3,0.1-0.4,0.2c-0.1,0-0.3,0.1-0.5,0.1c-0.1,0-0.1,0-0.2,0
					c-0.2,0-0.5-0.1-0.7-0.2c-0.3-0.2-0.5-0.5-0.6-0.7c-0.1-0.3-0.1-0.5-0.1-0.5l0-0.1c0,0,0-0.1,0-0.1c0-0.1,0-0.1,0.1-0.1
					c0.1-0.1,0.2-0.3,0-0.5c-0.1-0.1-0.2-0.2-0.3-0.3c0,0-0.1-0.1-0.2-0.1c-0.3,0-0.5,0.4-0.5,0.7l0,0.1c0,0.1,0,0.2,0,0.4
					c0,0.3,0.1,0.6,0.2,0.8c0.2,0.6,0.7,1,0.8,1c0.2,0.2,0.6,0.4,1.2,0.5c0.1,0,0.2,0,0.2,0c0.4,0,0.9-0.1,1.3-0.3
					c0.8-0.4,1.8-1.2,2-2.4c0.2-0.8,0-1.7-0.6-2.6l-0.6-1c-0.1-0.1-0.5-0.8-0.8-1.6c-0.4-0.9-0.7-1.9-0.7-2.6c0-0.4,0-1.1,0.2-1.6
					l0.1-0.3l0-0.1c0,0,0.1-0.1,0.1-0.2l0.1-0.1c0.1-0.1,0.1-0.2,0.1-0.2c0,0,0,0,0,0c0.1-0.1,0.1-0.2,0.1-0.3
					c0-0.1-0.1-0.3-0.2-0.4C53.2,9.7,53.1,9.7,53,9.7L53,9.7L53,9.7z"/>
			</g>
		</g>
		<g>
			<g>
				<path class="st1" d="M49.6,17.5c-0.2,0-0.4,0-0.5-0.1c-0.6-0.2-1.1-0.6-1.3-0.9c-0.3-0.3-0.4-0.6-0.5-0.6
					c-0.1-0.2-0.2-0.3-0.3-0.6c-0.1-0.1-0.3-0.7-0.4-1.2c-0.1-0.6-0.1-1.2-0.1-1.2c0,0,0-0.1,0-0.3c0-0.2,0.1-0.5,0.2-0.8
					c0.1-0.3,0.4-1,0.8-1.6c0.3-0.4,0.7-0.8,0.9-1.1C48.5,9.1,48.6,9,48.6,9c0.3-0.3,0.6-0.7,0.9-1.2c0.2-0.3,0.5-0.9,0.8-1.4
					c0.1-0.3,0.2-0.5,0.3-0.7c0.1-0.1,0.1-0.2,0.1-0.3l0.1-0.2c0,0,0-0.1,0-0.1c0-0.1,0-0.2,0-0.3c0-0.3-0.1-0.6-0.1-0.6
					c0-0.1-0.1-0.3-0.3-0.5c-0.1-0.2-0.4-0.3-0.6-0.3c-0.1,0-0.2,0-0.3,0c-0.1,0-0.2,0-0.3,0.1c-0.1,0-0.2,0.1-0.2,0.1
					C49,3.4,49,3.5,48.9,3.5c-0.1,0-0.2,0-0.3-0.1c-0.1-0.1-0.2-0.2-0.1-0.3c0-0.1,0.1-0.2,0.2-0.3c0.1,0,0.2-0.1,0.4-0.2
					c0.2-0.1,0.3-0.1,0.6-0.1c0.2,0,0.4,0,0.5,0.1c0.4,0.1,0.8,0.4,1,0.8c0.2,0.3,0.3,0.7,0.3,1c0.1,0.5,0,1-0.3,1.7
					c-0.2,0.5-0.4,1-0.7,1.5c-0.3,0.6-0.7,1.2-1.2,1.8c0,0-0.1,0.2-0.3,0.3l-0.1,0.1c-0.1,0.1-0.3,0.3-0.4,0.5
					c-0.4,0.5-1,1.3-1.2,2.3c-0.2,0.9,0,2,0.5,2.8c0.5,0.8,1.2,1.4,1.7,1.4c0,0,0.1,0,0.1,0c0.2,0,0.4-0.1,0.6-0.2
					c0.2-0.3,0.2-0.7,0.2-0.7c0-0.1,0-0.1-0.1-0.2c-0.1-0.2-0.2-0.4,0-0.5c0.1-0.1,0.2-0.1,0.3-0.2c0,0,0,0,0,0
					c0.3,0,0.4,0.3,0.5,0.6c0,0.1,0.1,0.3,0,0.4c0,0,0.1,0.6-0.3,1.1C50.6,17.3,50.1,17.5,49.6,17.5L49.6,17.5z"/>
				<path class="st1" d="M49.6,2.5c0.2,0,0.3,0,0.5,0.1c0.4,0.1,0.7,0.4,0.9,0.7c0.2,0.3,0.3,0.7,0.3,1c0.1,0.5-0.1,1.1-0.3,1.7
					c-0.2,0.5-0.4,1.1-0.7,1.5c-0.5,0.9-1.1,1.6-1.2,1.8c0,0-0.1,0.2-0.3,0.3c-0.2,0.2-0.4,0.4-0.6,0.6c-0.5,0.5-1,1.3-1.2,2.3
					c-0.2,1,0,2,0.5,2.9c0.5,0.8,1.2,1.4,1.8,1.5c0,0,0.1,0,0.1,0c0.2,0,0.5-0.1,0.7-0.3c0.3-0.3,0.2-0.8,0.2-0.8
					c-0.1-0.3-0.3-0.5-0.1-0.6c0.1-0.1,0.2-0.1,0.3-0.2c0,0,0,0,0,0c0.2,0,0.2,0.2,0.3,0.5c0,0.1,0.1,0.2,0,0.4c0,0.1,0,0.6-0.3,1.1
					c-0.2,0.3-0.7,0.5-1.2,0.5c-0.2,0-0.3,0-0.5-0.1c-0.6-0.2-1-0.6-1.3-0.9c-0.3-0.3-0.4-0.6-0.5-0.6c-0.1-0.1-0.2-0.3-0.3-0.6
					c-0.1-0.1-0.3-0.7-0.4-1.2c-0.1-0.6-0.1-1.1-0.1-1.2c0,0,0,0,0,0c0,0,0-0.1,0-0.2c0-0.2,0.1-0.4,0.2-0.8c0.1-0.3,0.4-1,0.8-1.6
					c0.4-0.6,1-1.1,1.1-1.2c0.3-0.3,0.6-0.7,0.9-1.2c0.2-0.3,0.5-0.9,0.8-1.4c0.1-0.3,0.2-0.5,0.3-0.7c0.1-0.2,0.1-0.3,0.1-0.3
					c0,0,0-0.1,0.1-0.2c0-0.1,0.1-0.3,0.1-0.5c0-0.3-0.1-0.7-0.1-0.7c0-0.1-0.1-0.3-0.3-0.5c-0.2-0.2-0.4-0.3-0.6-0.4
					c-0.1,0-0.2,0-0.3,0c-0.1,0-0.2,0-0.3,0.1c-0.2,0-0.2,0.1-0.3,0.1c0,0,0,0,0,0c-0.1,0.1-0.1,0.1-0.2,0.1c-0.1,0-0.1,0-0.2-0.1
					c-0.2-0.2-0.1-0.3,0-0.5c0,0,0.2-0.1,0.4-0.2C49.2,2.6,49.4,2.5,49.6,2.5 M49.6,2.3L49.6,2.3c-0.2,0-0.4,0-0.6,0.1
					c-0.2,0.1-0.4,0.2-0.4,0.2c-0.2,0.1-0.2,0.2-0.2,0.4c0,0.1,0.1,0.3,0.2,0.4c0.1,0.1,0.2,0.1,0.3,0.1c0.1,0,0.2,0,0.3-0.1
					c0,0,0,0,0,0c0,0,0.1-0.1,0.2-0.1c0.1,0,0.2-0.1,0.3-0.1c0.1,0,0.2,0,0.2,0c0.2,0,0.4,0.2,0.5,0.3c0.1,0.2,0.2,0.3,0.2,0.4
					c0,0,0.1,0.3,0.1,0.6c0,0.1,0,0.2,0,0.3c0,0.1,0,0.1,0,0.2l-0.1,0.2l0,0c0,0,0,0,0,0c0,0,0,0.1-0.1,0.3
					c-0.1,0.2-0.2,0.5-0.3,0.7c-0.2,0.6-0.6,1.2-0.7,1.4c-0.3,0.5-0.6,0.9-0.9,1.2c0,0-0.1,0.1-0.2,0.2c-0.2,0.2-0.6,0.6-0.9,1.1
					c-0.4,0.6-0.7,1.3-0.9,1.6c-0.1,0.3-0.2,0.6-0.2,0.8c0,0.2,0,0.3,0,0.3l0,0c0,0,0,0,0,0c0,0-0.1,0.6,0.1,1.3
					c0.1,0.6,0.3,1.1,0.4,1.3c0.1,0.2,0.2,0.4,0.3,0.5l0,0c0,0.1,0.2,0.3,0.5,0.6c0.3,0.3,0.8,0.7,1.4,0.9c0.2,0.1,0.4,0.1,0.6,0.1
					c0.5,0,1.1-0.2,1.3-0.6c0.4-0.6,0.4-1.1,0.4-1.2c0-0.1,0-0.3-0.1-0.4c-0.1-0.3-0.1-0.6-0.5-0.6c0,0,0,0-0.1,0
					c-0.2,0-0.3,0.1-0.4,0.2c-0.3,0.2-0.1,0.5-0.1,0.6c0,0.1,0.1,0.1,0.1,0.2c0,0,0,0,0,0c0,0,0.1,0.4-0.2,0.6
					c-0.2,0.2-0.5,0.2-0.5,0.2c0,0-0.1,0-0.1,0c0,0,0,0-0.1,0c-0.5,0-1.2-0.6-1.6-1.4c-0.5-0.8-0.7-1.8-0.5-2.7
					c0.2-1,0.7-1.7,1.1-2.2c0.2-0.2,0.3-0.3,0.4-0.5C48.9,9.8,49,9.8,49,9.7c0.1-0.1,0.3-0.3,0.3-0.3c0.5-0.6,0.9-1.2,1.2-1.8
					c0.3-0.5,0.5-1,0.7-1.5c0.3-0.7,0.4-1.3,0.3-1.8c0-0.3-0.1-0.7-0.3-1c-0.2-0.4-0.6-0.7-1.1-0.8C50,2.4,49.8,2.3,49.6,2.3
					L49.6,2.3z"/>
			</g>
		</g>
	</g>
	<g>
		<g>
			<path class="st1" d="M38.4,97.6c-0.1,0-0.1,0-0.2,0C38,97.5,38,97.2,38,97c0-0.3,0-0.5,0-0.6c0,0,0-1.1,0-1.2c0-0.1,0-0.7,0-0.7
				c0-0.3,0-0.6,0-0.7c0-0.1,0-0.5,0-1.2c0-0.7,0-1.3,0-1.9c0-0.5,0-1.2-0.1-1.9l0-1.2l0-1.9c0-1,0-1.1,0-1.2l0,0c0,0-0.1,0-0.3,0
				c-0.2,0-0.5,0-0.8,0c0,0,0,0,0,0c-0.2,0-0.2-0.1-0.3-0.1c-0.1-0.1-0.1-0.2,0-0.4c0-0.1,0.1-0.2,0.9-0.2c0.2,0,0.5,0,0.8,0
				c0.5,0,0.9,0,1.2,0l0.3,0c0.4,0,0.4,0.1,0.4,0.3c0,0.3-0.2,0.4-0.3,0.4c-0.1,0-0.2,0-0.3,0c-0.1,0-0.3,0-0.5,0
				c-0.2,0-0.3,0-0.4,0c0,0-0.1,0.2-0.1,1.7c0,2.6,0,3.8,0,4.3c0.1,0.9,0.1,2.6,0,5.3c0,0.2,0,0.4,0,0.6c0,0.3,0,0.5,0,0.5
				c0,0.4,0,0.5-0.2,0.6C38.6,97.5,38.5,97.6,38.4,97.6z"/>
			<path class="st1" d="M39.5,84c0.1,0,0.2,0,0.3,0c0.2,0,0.3,0.1,0.3,0.2c0,0.2-0.1,0.3-0.2,0.3c-0.1,0-0.1,0-0.3,0s-0.3,0-0.5,0
				c-0.2,0-0.4,0-0.4,0.1c-0.1,0.1-0.2,0.7-0.2,1.7c0,2.4,0,3.8,0,4.3c0.1,0.9,0.1,2.6,0,5.3c0,0.2,0,0.4,0,0.6c0,0.3,0,0.5,0,0.5
				c0,0.3,0,0.5-0.1,0.5c0,0-0.1,0-0.1,0c-0.1,0-0.1,0-0.2,0c-0.1,0-0.1-0.1-0.1-0.4c0-0.4,0-0.6,0-0.6c0,0,0,0,0,0c0-0.6,0-1,0-1.2
				c0-0.1,0-0.4,0-0.7c0-0.3,0-0.5,0-0.7c0-0.1,0-0.5,0-1.2c0-0.7,0-1.3,0-1.9c0-0.5,0-1.2-0.1-1.9c0-0.8,0-1.3,0-1.3l0-1.9
				c0-0.8,0-1.2-0.1-1.2c0-0.1-0.2-0.1-0.4-0.1c-0.2,0-0.5,0-0.8,0c0,0,0,0,0,0c-0.2,0-0.2-0.1-0.1-0.3c0-0.1,0.3-0.1,0.8-0.1
				c0.2,0,0.5,0,0.8,0C38.8,84,39.2,84,39.5,84 M39.5,83.8c-0.3,0-0.7,0-1.2,0c-0.3,0-0.6,0-0.8,0c-0.7,0-1,0.1-1,0.3
				c0,0.1-0.1,0.3,0,0.5c0,0.1,0.1,0.1,0.3,0.1c0.4,0,0.7,0,0.8,0c0.1,0,0.2,0,0.3,0c0,0.1,0,0.3,0,1.1l0,1.9l0,0.1
				c0,0.2,0,0.6,0,1.2c0,0.7,0,1.3,0.1,1.9c0,0.6,0,1.2,0,1.9c0,0.7,0,1.1,0,1.2c0,0.2,0,0.4,0,0.7l0,0.1l0,0.3c0,0.2,0,0.3,0,0.4
				c0,0.1,0,0.3,0,0.6l0,0.7l0,0c0,0.1,0,0.3,0,0.6c0,0.2,0,0.6,0.3,0.6c0.1,0,0.2,0,0.2,0c0.1,0,0.2,0,0.3-0.1
				c0.2-0.1,0.2-0.4,0.2-0.7c0,0,0-0.2,0-0.5c0-0.2,0-0.5,0-0.6c0-2.7,0-4.4,0-5.3c0-0.4,0-1.7,0-4.3c0-1.2,0.1-1.5,0.1-1.6
				c0,0,0.1,0,0.3,0c0.2,0,0.4,0,0.5,0c0.1,0,0.2,0,0.3,0c0.1,0,0.4-0.1,0.4-0.5c0-0.1-0.1-0.4-0.5-0.4
				C39.7,83.8,39.6,83.8,39.5,83.8L39.5,83.8z"/>
		</g>
		<g>
			<path class="st1" d="M41.8,97.5c-0.2,0-0.3-0.3-0.3-0.7l0.1-3.2L41.6,90c0-0.5,0-1.3-0.1-2.3c0-0.3,0-0.7,0-1c0-0.4,0-0.6,0-0.6
				l0-0.2c0-0.2,0-0.3,0-0.5c0-0.4,0-0.7,0-1.1c0-0.2,0.1-0.4,0.6-0.4c0.4,0,0.8,0.1,1.1,0.3c0.3,0.2,0.6,0.4,0.8,0.8
				c0.3,0.6,0.5,1.1,0.5,1.6c0,0.6,0,1.1-0.2,1.7c-0.3,0.7-0.7,1.2-1.3,1.5c-0.2,0.1-0.4,0.2-0.4,0.3c0,0,0.1,0.4,0.8,3
				c0,0,0.1,0.4,1.1,3.6c0.1,0.3,0.1,0.4,0,0.6c-0.1,0.1-0.2,0.1-0.3,0.1c-0.1,0-0.3-0.1-0.4-0.5c0-0.2-0.1-0.4-0.2-0.7l0-0.1
				c-0.1-0.4-0.2-0.7-0.3-0.9c-0.2-0.5-0.3-1-0.5-1.7c-0.1-0.3-0.2-0.8-0.5-1.6c-0.1-0.5-0.2-0.8-0.3-1c0,1.2,0.1,4,0.1,5.1
				c0,1.2,0,1.3-0.1,1.4c-0.1,0.1-0.2,0.2-0.3,0.2C41.9,97.6,41.8,97.5,41.8,97.5z M42.5,84.5c-0.1,0-0.2,0-0.2,0.1
				c0,0.1-0.1,0.5,0,2.5c0,0.7,0,2.3,0.1,2.4c0,0,0,0,0,0c0,0,0,0,0,0c0.1,0,0.4-0.1,0.9-0.5c0.5-0.4,0.7-1,0.8-1.7
				c0.1-0.7,0-1.3-0.3-1.8c-0.2-0.4-0.5-0.7-0.9-0.9C42.7,84.5,42.5,84.5,42.5,84.5z"/>
			<path class="st1" d="M42.1,84c0.4,0,0.7,0.1,1.1,0.3c0.3,0.2,0.5,0.4,0.8,0.8c0.3,0.5,0.5,1.1,0.5,1.6c0,0.5,0,1.1-0.2,1.7
				C44,89,43.6,89.5,43,89.8c-0.3,0.1-0.4,0.2-0.5,0.4c0,0,0.3,1.1,0.8,3.1c0,0.1,0.4,1.3,1.1,3.7c0.1,0.4,0,0.6-0.2,0.6
				c-0.1,0-0.2-0.1-0.3-0.4c0-0.1-0.1-0.3-0.2-0.7c-0.1-0.5-0.2-0.8-0.3-1c-0.2-0.5-0.3-1.1-0.5-1.7c-0.1-0.3-0.2-0.8-0.5-1.6
				c-0.3-1-0.4-1.6-0.4-1.6c0,0,0,0,0,0c-0.1,0,0,1.9,0.1,5.6c0,0.8,0,1.3-0.1,1.3c-0.1,0.1-0.1,0.1-0.2,0.1c0,0-0.1,0-0.1,0
				c-0.1,0-0.2-0.2-0.2-0.6l0.1-3.2L41.7,90c0-0.5,0-1.3-0.1-2.3c0-0.3,0-0.7,0-1c0-0.4,0-0.6,0-0.6c0-0.3,0-0.5,0-0.6
				c0-0.4,0-0.7,0-1.1C41.6,84.1,41.8,84,42.1,84 M42.3,89.6c0.2,0,0.5-0.2,0.9-0.5c0.5-0.5,0.8-1.1,0.8-1.8c0.1-0.7,0-1.3-0.3-1.9
				c-0.2-0.5-0.5-0.8-1-1c-0.1,0-0.2-0.1-0.3-0.1c-0.1,0-0.2,0-0.3,0.2c-0.1,0.1-0.1,0.9-0.1,2.5c0,1.6,0,2.5,0.1,2.5
				C42.2,89.6,42.3,89.6,42.3,89.6 M42.1,83.8c-0.6,0-0.7,0.3-0.7,0.5c0,0.4-0.1,0.8,0,1.1c0,0.1,0,0.3,0,0.5l0,0.2c0,0,0,0.2,0,0.6
				c0,0.4,0,0.7,0,1c0,1,0.1,1.8,0.1,2.3l0.1,3.7l-0.1,3.2c0,0.2,0,0.7,0.4,0.8c0,0,0.1,0,0.1,0c0.2,0,0.3-0.1,0.4-0.3
				c0-0.1,0.1-0.1,0.1-1.4c-0.1-1.9-0.1-3.3-0.1-4.3c0,0.1,0,0.2,0.1,0.3c0.2,0.8,0.4,1.4,0.5,1.6c0.2,0.7,0.3,1.2,0.5,1.7
				c0.1,0.2,0.2,0.5,0.3,0.9l0,0.1c0.1,0.3,0.2,0.6,0.2,0.7l0,0.1c0.1,0.3,0.3,0.6,0.5,0.6c0.2,0,0.3-0.1,0.4-0.2
				c0.1-0.2,0.1-0.4,0-0.7c-1-3.2-1.1-3.6-1.1-3.6c-0.6-2.3-0.8-2.8-0.8-3c0-0.1,0.2-0.2,0.4-0.2c0.6-0.3,1.1-0.9,1.3-1.6
				c0.2-0.6,0.3-1.2,0.2-1.8c0-0.5-0.2-1.1-0.5-1.6c-0.3-0.4-0.6-0.7-0.9-0.8C42.9,83.9,42.5,83.8,42.1,83.8L42.1,83.8z M42.3,84.7
				c0,0,0,0,0.1,0c0.1,0,0.2,0,0.3,0.1c0.4,0.2,0.7,0.4,0.8,0.8c0.2,0.6,0.3,1.2,0.3,1.8c0,0.7-0.3,1.3-0.8,1.7
				c-0.4,0.4-0.7,0.4-0.8,0.4c0-0.4,0-1.8-0.1-2.3C42.3,85.1,42.3,84.7,42.3,84.7C42.3,84.7,42.3,84.7,42.3,84.7L42.3,84.7z"/>
		</g>
		<g>
			<path class="st1" d="M48.1,97.6c-0.3,0-0.6,0-0.9,0l-0.4,0c-0.5,0-0.6,0-0.7-0.1c0,0-0.1-0.1,0-1.1c0-0.1,0-0.6,0-1.4
				c0-0.9,0-1.5,0-1.8c0-4.4,0-7,0-8c0-0.6,0-0.9,0.2-1.1c0.1-0.1,0.2-0.1,0.3-0.1c0.3,0,0.6,0,0.8,0c0.2,0,0.4,0,0.5,0
				c0,0,0.2,0,0.3,0c0.2,0,0.3,0,0.4,0c0.2,0,0.4,0.1,0.5,0.2c0,0,0.1,0.1,0,0.2c0,0.1-0.1,0.2-1,0.2l-0.6,0c-0.6,0-0.8,0.1-0.8,0.1
				l0,2.7c0.1,1.7,0.1,2.2,0.1,2.3c0,0,0,0,0,0c0,0,0.1,0,0.2,0c0.2,0,0.5,0,0.9-0.1h0c0.2,0,0.3,0.2,0.4,0.3c0,0.1,0.1,0.2,0,0.3
				c0,0-0.1,0.1-0.2,0.1c-0.3,0-0.5,0-0.7,0c-0.1,0-0.2,0-0.3,0c-0.2,0-0.4,0.1-0.4,0.2c-0.1,3.5-0.1,5.1-0.1,5.3
				c0,0.9,0.1,1.1,0.1,1.1c0,0,0.1,0,0.5,0c0.2,0,0.4,0,0.6,0c0.1,0,0.2,0,0.3,0c0.5,0,0.8,0.1,0.9,0.2c0.1,0.1,0.1,0.1,0.1,0.2
				c0,0,0,0.1,0,0.1C49.3,97.5,49.1,97.6,48.1,97.6z"/>
			<path class="st1" d="M47.5,84c0.2,0,0.4,0,0.5,0c0,0,0.1,0,0.3,0c0.2,0,0.3,0,0.4,0c0.3,0,0.4,0.1,0.4,0.2c0,0.1-0.3,0.1-0.9,0.1
				c-0.1,0-0.2,0-0.4,0c-0.1,0-0.2,0-0.2,0c-0.6,0-0.9,0.1-0.9,0.2l0,2.7c0.1,1.5,0.1,2.2,0.2,2.3c0,0,0.1,0,0.3,0
				c0.2,0,0.5,0,0.9-0.1c0.1,0,0.2,0.1,0.3,0.3c0.1,0.2,0.1,0.2-0.1,0.2c0,0,0,0,0,0c-0.3,0-0.5,0-0.6,0c-0.1,0-0.2,0-0.3,0
				c-0.3,0.1-0.5,0.1-0.5,0.3c-0.1,3.3-0.1,5.1-0.1,5.3c0,0.7,0.1,1.1,0.2,1.2c0.1,0,0.3,0.1,0.6,0.1c0.2,0,0.4,0,0.6,0
				c0.1,0,0.2,0,0.3,0c0.6,0,0.9,0.1,0.9,0.3c0,0.1-0.4,0.1-1.2,0.1c-0.3,0-0.6,0-0.9,0c-0.1,0-0.3,0-0.4,0c-0.4,0-0.5,0-0.6-0.1
				c0,0,0-0.4,0-1.1c0-0.1,0-0.6,0-1.4c0-0.9,0-1.5,0-1.8c0-4.3,0-7,0-8c-0.1-0.8,0.1-1.1,0.4-1.1C47,84,47.3,84,47.5,84 M47.5,83.8
				c-0.2,0-0.5,0-0.9,0c-0.2,0-0.3,0.1-0.4,0.2C46,84.2,46,84.6,46,85.2c0,1,0,3.7,0,8c0,0.3,0,0.9,0,1.8c0,0.8,0,1.3,0,1.4
				c0,1,0,1.1,0.1,1.2c0.1,0.1,0.2,0.1,0.7,0.1c0.1,0,0.2,0,0.4,0c0.3,0,0.6,0,0.9,0c1,0,1.2-0.1,1.3-0.2c0,0,0.1-0.1,0.1-0.2
				c0-0.1,0-0.2-0.1-0.3c-0.2-0.2-0.5-0.2-1-0.2c-0.1,0-0.2,0-0.3,0c-0.2,0-0.5,0-0.6,0c-0.4,0-0.5,0-0.5,0c0,0-0.1-0.2-0.1-1
				c0-0.2,0-1.8,0.1-5.3c0,0,0,0,0,0c0,0,0.1-0.1,0.3-0.1c0,0,0.1,0,0.2,0c0.2,0,0.4,0,0.6,0c0,0,0,0,0,0c0.2,0,0.3-0.1,0.3-0.1
				c0.1-0.1,0-0.3,0-0.4c-0.1-0.1-0.2-0.4-0.5-0.4c-0.4,0-0.7,0.1-0.9,0.1c0,0-0.1,0-0.1,0c0-0.2-0.1-0.8-0.1-2.2l0-2.7
				c0.1,0,0.2-0.1,0.7-0.1c0.1,0,0.1,0,0.2,0c0.1,0,0.3,0,0.4,0c0.8,0,1-0.1,1.1-0.3c0-0.1,0-0.2,0-0.3c-0.1-0.1-0.3-0.2-0.5-0.2
				c-0.1,0-0.2,0-0.4,0c0,0-0.1,0-0.1,0c-0.1,0-0.1,0-0.1,0C47.9,83.8,47.7,83.8,47.5,83.8L47.5,83.8z"/>
		</g>
		<g>
			<path class="st1" d="M50.6,97.6c-0.2,0-0.3-0.1-0.5-0.3c-0.1-0.1-0.1-0.1,0.3-2.5l0.3-2.2c0.1-1.2,0.3-2,0.4-2.6l0.5-3.3
				c0.1-0.4,0.1-0.7,0.2-0.9c0-0.2,0.1-0.4,0.1-0.5l0.1-0.2c0.2-0.8,0.4-1.1,0.6-1.1c0.2,0,0.4,0.2,0.6,0.6c0.3,0.7,0.4,1.3,0.5,1.8
				c0.3,1.8,0.4,2.5,0.5,2.6c0,0.2,0.1,0.5,0.1,0.9l0.2,1.7c0.2,1.8,0.3,3.5,0.5,5.2V97c0,0.1,0,0.2-0.1,0.3
				c-0.1,0.1-0.2,0.2-0.3,0.2c0,0-0.1,0-0.1,0c-0.1,0-0.2,0-0.3-0.1c0,0-0.1-0.1-0.1-0.2c0.2-1.1,0.1-2.1-0.1-3.1
				c0,0-0.1-0.1-0.9-0.2c-0.2,0-0.4,0-0.5,0c-0.4,0-0.7,0.1-1,0.2c-0.1,0.1-0.2,0.3-0.2,0.6c-0.2,0.8-0.3,1.4-0.3,1.9
				C50.9,97.3,50.8,97.5,50.6,97.6L50.6,97.6z M52.6,85.1c0,0-0.1,0.4-0.3,1.5c0,0.1-0.1,0.4-0.2,0.8L52.1,88
				c-0.1,0.6-0.2,1-0.3,1.4c-0.1,0.5-0.2,1.1-0.3,1.9l-0.2,1.3c-0.1,0.5,0,0.7,0,0.7c0.4,0,0.8,0,1.1,0c1.1,0,1.3-0.1,1.3-0.1
				c0-1.2-0.1-2.8-0.4-4.9C52.9,85.5,52.7,85.2,52.6,85.1z"/>
			<path class="st1" d="M52.6,84c0.2,0,0.3,0.2,0.5,0.6c0.2,0.7,0.4,1.3,0.5,1.8c0.3,1.6,0.4,2.5,0.5,2.6c0,0.2,0.1,0.5,0.1,0.9
				l0.2,1.7c0.2,1.8,0.3,3.5,0.5,5.2V97c0,0.1,0,0.2-0.1,0.3c-0.1,0.1-0.1,0.2-0.3,0.2c0,0-0.1,0-0.1,0c-0.2,0-0.2-0.1-0.2-0.2
				c0.2-1.1,0.1-2.1-0.1-3.2c-0.1-0.1-0.4-0.2-0.9-0.3c-0.2,0-0.4,0-0.5,0c-0.4,0-0.7,0.1-1,0.2c-0.2,0.1-0.3,0.3-0.3,0.6
				c-0.2,0.8-0.3,1.4-0.3,1.9c0,0.6,0,1-0.1,1c0,0,0,0-0.1,0c-0.1,0-0.3-0.1-0.4-0.2c-0.1-0.1,0-0.9,0.3-2.4l0.3-2.2
				c0.1-1.2,0.3-2,0.4-2.6l0.5-3.2c0.1-0.5,0.1-0.8,0.2-1c0.1-0.2,0.1-0.5,0.2-0.7C52.2,84.3,52.4,84,52.6,84 M52.4,93.4
				c0.9,0,1.4-0.1,1.4-0.2c0-1.2-0.1-2.9-0.4-5c-0.3-2.1-0.6-3.2-0.8-3.2c0,0,0,0,0,0c-0.1,0-0.2,0.6-0.4,1.6c0,0.1-0.1,0.5-0.2,1.1
				c-0.1,0.7-0.2,1.2-0.3,1.6c-0.1,0.5-0.2,1.1-0.3,1.9l-0.2,1.3c-0.1,0.5-0.1,0.8,0.1,0.8C51.7,93.4,52.1,93.4,52.4,93.4
				 M52.6,83.8c-0.3,0-0.5,0.3-0.7,1.2l-0.1,0.2c-0.1,0.2-0.1,0.4-0.1,0.5c-0.1,0.2-0.1,0.5-0.2,0.9l0,0.1L51,89.9
				c-0.1,0.5-0.2,1.3-0.4,2.6l-0.3,2.2c-0.4,2.4-0.3,2.5-0.3,2.6c0.1,0.2,0.3,0.3,0.5,0.3c0,0,0.1,0,0.1,0c0.2-0.1,0.3-0.3,0.3-1.2
				c0-0.4,0.1-1.1,0.3-1.8c0-0.3,0.1-0.4,0.2-0.5C51.7,94,52,94,52.4,94c0.2,0,0.3,0,0.5,0c0.7,0.1,0.8,0.2,0.8,0.2
				c0.2,1,0.3,2,0.1,3c0,0.1,0,0.2,0.1,0.3c0.1,0.1,0.2,0.1,0.3,0.1c0,0,0.1,0,0.1,0c0.1,0,0.3-0.1,0.4-0.3c0.1-0.1,0.1-0.2,0.1-0.4
				v-0.2c-0.1-1.7-0.3-3.4-0.5-5.2l-0.2-1.7c0-0.4-0.1-0.7-0.1-0.9c0-0.1-0.1-0.8-0.5-2.6c-0.1-0.5-0.2-1.1-0.5-1.8
				C53.1,84.3,53,83.8,52.6,83.8L52.6,83.8z M51.4,93.2c0-0.1,0-0.2,0-0.6l0.2-1.3c0.1-0.8,0.2-1.4,0.3-1.9c0.1-0.4,0.2-0.8,0.3-1.3
				l0.1-0.3l0.1-0.4c0.1-0.4,0.1-0.6,0.2-0.7c0.1-0.7,0.2-1.1,0.2-1.3c0.1,0.3,0.3,1.1,0.5,2.8c0.3,2,0.4,3.7,0.4,4.9
				c-0.1,0-0.4,0.1-1.2,0.1C52.1,93.2,51.8,93.2,51.4,93.2L51.4,93.2z"/>
		</g>
		<g>
			<path class="st1" d="M57.4,97.6c-0.1,0-0.1,0-0.2,0C57,97.5,57,97.2,57,97c0-0.3,0-0.5,0-0.6c0,0,0-1.4,0-1.6l0-0.3
				c0-0.3,0-0.6,0-0.7c0-0.1,0-0.5,0-1.2c0-0.7,0-1.3,0-1.9c0-0.5,0-1.2-0.1-1.9l0-1.2l0-1.9c0-1,0-1.1,0-1.2l0,0c0,0-0.1,0-0.3,0
				c-0.2,0-0.5,0-0.8,0c0,0,0,0,0,0c-0.2,0-0.2-0.1-0.3-0.1c-0.1-0.1-0.1-0.2,0-0.4c0-0.1,0.1-0.2,0.9-0.2c0.2,0,0.5,0,0.8,0
				c0.5,0,0.9,0,1.2,0l0.3,0c0.4,0,0.4,0.1,0.4,0.3c0,0.3-0.2,0.4-0.3,0.4c-0.1,0-0.2,0-0.3,0c-0.1,0-0.3,0-0.5,0
				c-0.2,0-0.3,0-0.4,0c0,0-0.1,0.2-0.1,1.7c0,2.6,0,3.8,0,4.3c0.1,0.9,0.1,2.6,0,5.3c0,0.2,0,0.4,0,0.6c0,0.3,0,0.5,0,0.5
				c0,0.4,0,0.5-0.2,0.6C57.6,97.5,57.5,97.6,57.4,97.6z"/>
			<path class="st1" d="M58.5,84c0.1,0,0.2,0,0.3,0c0.2,0,0.3,0.1,0.3,0.2c0,0.2-0.1,0.3-0.2,0.3c-0.1,0-0.1,0-0.3,0s-0.3,0-0.5,0
				c-0.2,0-0.4,0-0.4,0.1c-0.1,0.1-0.2,0.7-0.2,1.7c0,2.4,0,3.8,0,4.3c0.1,0.9,0.1,2.6,0,5.3c0,0.2,0,0.4,0,0.6c0,0.3,0,0.5,0,0.5
				c0,0.3,0,0.5-0.1,0.5c0,0-0.1,0-0.1,0c-0.1,0-0.1,0-0.2,0c-0.1,0-0.1-0.1-0.1-0.4c0-0.4,0-0.6,0-0.6c0,0,0,0,0,0c0-0.6,0-1,0-1.2
				c0-0.1,0-0.4,0-0.7c0-0.3,0-0.5,0-0.7c0-0.1,0-0.5,0-1.2c0-0.7,0-1.3,0-1.9c0-0.5,0-1.2-0.1-1.9c0-0.8,0-1.3,0-1.3l0-1.9
				c0-0.8,0-1.2-0.1-1.2c0-0.1-0.2-0.1-0.4-0.1c-0.2,0-0.5,0-0.8,0c0,0,0,0,0,0c-0.2,0-0.2-0.1-0.1-0.3c0-0.1,0.3-0.1,0.8-0.1
				c0.2,0,0.5,0,0.8,0C57.8,84,58.2,84,58.5,84 M58.5,83.8c-0.3,0-0.7,0-1.2,0c-0.3,0-0.6,0-0.8,0c-0.7,0-1,0.1-1,0.3
				c0,0.1-0.1,0.3,0,0.5c0,0.1,0.1,0.1,0.3,0.1c0.4,0,0.7,0,0.8,0c0.1,0,0.2,0,0.3,0c0,0.1,0,0.3,0,1.1l0,1.9l0,0.1
				c0,0.2,0,0.6,0,1.2c0,0.7,0,1.3,0.1,1.9c0,0.6,0,1.2,0,1.9c0,0.7,0,1.1,0,1.2c0,0.2,0,0.4,0,0.7l0,0.1l0,0.3c0,0.2,0,0.3,0,0.4
				c0,0.1,0,0.3,0,0.6l0,0.7l0,0c0,0.1,0,0.3,0,0.6c0,0.2,0,0.6,0.3,0.6c0.1,0,0.2,0,0.2,0c0.1,0,0.2,0,0.3-0.1
				c0.2-0.1,0.2-0.4,0.2-0.7c0,0,0-0.2,0-0.5c0-0.2,0-0.5,0-0.6c0-2.7,0-4.4,0-5.3c0-0.4,0-1.7,0-4.3c0-1.2,0.1-1.5,0.1-1.6
				c0,0,0.1,0,0.3,0c0.2,0,0.4,0,0.5,0c0.1,0,0.2,0,0.3,0c0.1,0,0.4-0.1,0.4-0.5c0-0.1-0.1-0.4-0.5-0.4
				C58.7,83.8,58.6,83.8,58.5,83.8L58.5,83.8z"/>
		</g>
		<g>
			<path class="st1" d="M61.2,97.5c-0.1,0-0.3,0-0.4,0c-0.2,0-0.8-0.1-0.8-0.5c0-0.1,0-0.3,0.4-0.3c0.1,0,0.3,0.1,0.5,0.2
				c0.1,0,0.2,0,0.3,0c0.2,0,0.5-0.1,0.7-0.3c0.3-0.3,0.4-0.5,0.5-0.7c0.2-0.7,0.4-1.3,0.4-1.8c0-0.4-0.1-0.9-0.3-1.6
				C62.2,92,62,91.5,61.8,91c-0.3-0.5-0.5-1-0.7-1.4c-0.6-1.1-0.9-2.2-0.9-3.2c0-0.9,0.2-1.5,0.7-2c0.3-0.3,0.6-0.5,1-0.5
				c0.1,0,0.2,0,0.3,0c0.4,0.1,0.7,0.2,0.8,0.5c0.1,0.2,0,0.3-0.1,0.4c0,0-0.1,0-0.1,0c-0.1,0-0.2,0-0.3-0.1
				c-0.2-0.1-0.3-0.2-0.4-0.2c0,0-0.1,0-0.1,0c-0.2,0-0.5,0.1-0.7,0.4c-0.2,0.2-0.3,0.7-0.3,1.3c0,1,0.3,2,0.8,3.1l0.8,1.5
				c0.2,0.5,0.4,1.1,0.7,1.9c0.2,0.7,0.3,1.2,0.3,1.6c0,0.7-0.2,1.4-0.5,2.1c-0.3,0.7-0.8,1.1-1.5,1.2
				C61.3,97.5,61.3,97.5,61.2,97.5z"/>
			<path class="st1" d="M61.9,84c0.1,0,0.2,0,0.3,0c0.4,0.1,0.7,0.2,0.8,0.4c0.1,0.1,0,0.2-0.1,0.3c0,0,0,0,0,0
				c-0.1,0-0.1,0-0.3-0.1c-0.2-0.1-0.3-0.2-0.4-0.2c0,0-0.1,0-0.1,0c-0.2,0-0.5,0.1-0.8,0.4c-0.2,0.2-0.4,0.7-0.4,1.4
				c0,1,0.3,2.1,0.8,3.1l0.8,1.5c0.2,0.4,0.4,1.1,0.7,1.9c0.2,0.7,0.3,1.2,0.3,1.6c0,0.7-0.2,1.4-0.5,2.1c-0.3,0.7-0.8,1.1-1.4,1.1
				c-0.1,0-0.2,0-0.2,0c-0.1,0-0.2,0-0.4,0c-0.5-0.1-0.7-0.2-0.7-0.4c0-0.2,0.1-0.2,0.3-0.2c0.1,0,0.2,0.1,0.5,0.2
				c0.1,0,0.2,0,0.3,0c0.3,0,0.5-0.1,0.7-0.3c0.3-0.3,0.4-0.5,0.5-0.7c0.2-0.7,0.4-1.3,0.4-1.9c0-0.4-0.1-1-0.3-1.6
				c-0.2-0.6-0.4-1.1-0.6-1.6c-0.3-0.5-0.5-1-0.7-1.4c-0.6-1.1-0.9-2.2-0.9-3.2c0-0.8,0.2-1.5,0.7-1.9C61.3,84.1,61.6,84,61.9,84
				 M61.9,83.8c-0.4,0-0.7,0.2-1,0.5c-0.5,0.5-0.7,1.2-0.7,2.1c0,1,0.3,2.1,0.9,3.3c0.2,0.4,0.4,0.9,0.7,1.4c0.2,0.5,0.4,1,0.6,1.5
				c0.2,0.6,0.3,1.1,0.3,1.5c0,0.5-0.1,1.1-0.4,1.8c0,0.1-0.2,0.3-0.5,0.6c-0.2,0.2-0.4,0.3-0.6,0.3c-0.1,0-0.2,0-0.3,0
				c-0.2-0.1-0.4-0.2-0.5-0.2c0,0,0,0,0,0c-0.4,0-0.5,0.2-0.5,0.4c0,0.3,0.3,0.5,0.9,0.6c0.1,0,0.3,0,0.4,0c0.1,0,0.2,0,0.3,0
				c0.7,0,1.3-0.5,1.6-1.2c0.3-0.7,0.5-1.5,0.5-2.2c0-0.4-0.1-0.9-0.3-1.6c-0.2-0.8-0.5-1.5-0.7-1.9l-0.8-1.5c-0.5-1-0.8-2-0.8-3
				c0-0.6,0.1-1,0.3-1.2c0.2-0.3,0.5-0.4,0.6-0.4c0,0,0.1,0,0.1,0c0.1,0,0.2,0.1,0.4,0.2c0.1,0.1,0.3,0.2,0.4,0.2c0,0,0.1,0,0.1,0
				c0.2-0.1,0.3-0.3,0.1-0.5c-0.1-0.3-0.4-0.5-0.9-0.5C62.1,83.8,62,83.8,61.9,83.8L61.9,83.8z"/>
		</g>
	</g>
	<g>
		<g>
			<path class="st1" d="M45.7,76.9c-0.6,0-0.9-0.3-0.9-0.8c0-0.3,0.1-2.5,0.2-7c0.1-2.7-0.1-3.5-0.2-3.6c-0.3,0-1.1,0-3.4,0
				c-1.1,0-1.7-0.2-1.9-0.6c-0.1-0.3-0.2-1.2,0.4-6.1c0.6-8.4,0.9-13.1,1-14.1l0,0c0-0.4,0-2.1,0.3-10.1c0-0.9,0.3-1.3,0.8-1.3
				c0.7,0,1,0.4,0.9,1.1c-0.1,1.7-0.2,3-0.2,4.1c0,1.4-0.1,3.1-0.2,5.5C42,52.2,41.5,58,41.4,59.3l0,0.1c-0.1,0.7-0.2,1.9-0.4,3.4
				c0,0.4,0,0.8,0.4,1c0.1,0,0.5,0.1,1.4,0.1c0.1,0,0.3,0,0.5,0c1.4,0,1.6-0.2,1.7-0.3c0-0.1,0-2,0-6.8c0-2.2,0-3.7,0.1-4.4
				c0-0.8,0.4-1,0.7-1c0.1,0,0.1,0,0.2,0c0.5,0.1,0.7,0.3,0.8,0.7c0,0.2,0,1.3-0.1,3.2c-0.1,2.9-0.1,4.2-0.1,4.6c0,1,0,3.5,0.2,3.7
				c0,0,0.1,0,0.3,0c0.3,0,0.8,0,1.5-0.1c0.1,0,0.2,0,0.3,0c0.9,0,1,0.5,1,0.8c0,0.2,0,0.4-0.2,0.5c-0.2,0.2-0.5,0.3-0.9,0.3
				c0,0-0.1,0-0.2,0c-0.1,0-0.3,0-0.5,0l-0.2,0c-0.2,0-0.3,0-0.4,0c-0.1,0-0.2,0-0.2,0c-0.5,0.1-0.7,0.6-0.7,1.1v9.8
				C46.5,76.6,46.2,76.9,45.7,76.9z"/>
			<path class="st1" d="M42.1,33.3C42.1,33.3,42.1,33.3,42.1,33.3c0.6,0,0.9,0.4,0.8,1c-0.1,1.7-0.2,3-0.2,4.1
				c0,1.5-0.1,3.3-0.2,5.5c-0.7,9.1-1.1,14.2-1.2,15.5c-0.1,0.7-0.2,1.9-0.4,3.6c0,0.6,0.2,1,0.5,1.1c0.2,0.1,0.7,0.1,1.4,0.1
				c0.2,0,0.3,0,0.5,0c1.1,0,1.6-0.2,1.8-0.3c0-0.1,0.1-2.3,0.1-6.8c0-2,0-3.5,0.1-4.4c0-0.6,0.2-0.9,0.6-0.9c0,0,0.1,0,0.1,0
				c0.4,0.1,0.6,0.3,0.7,0.6c0,0.2,0,1.2-0.1,3.2c-0.1,2.3-0.1,3.8-0.1,4.6c0,2.4,0.1,3.7,0.2,3.8c0,0,0.2,0.1,0.4,0.1
				c0.3,0,0.8,0,1.5-0.1c0.1,0,0.2,0,0.3,0c0.6,0,0.9,0.2,0.9,0.7c0,0.5-0.3,0.7-1,0.7c-0.1,0-0.1,0-0.2,0c-0.2,0-0.4,0-0.7,0
				c-0.2,0-0.3,0-0.4,0c-0.1,0-0.2,0-0.2,0c-0.5,0.1-0.7,0.5-0.8,1.2v4v5.8c-0.1,0.4-0.4,0.6-0.8,0.6c-0.5,0-0.8-0.2-0.8-0.7
				c0-0.3,0.1-2.6,0.2-7c0.1-2.3,0-3.5-0.3-3.7c0,0-1.1,0-3.4,0c-1.1,0-1.7-0.2-1.8-0.5c-0.2-0.4,0-2.4,0.5-6.1
				c0.6-8.4,0.9-13.1,1-14.1c0,0,0-0.1,0-0.1c0-0.1,0-0.1,0-0.1c0,0,0,0.1,0,0.2c0,0,0,0,0,0c0,0,0.1-3.4,0.4-10.1
				C41.4,33.7,41.6,33.3,42.1,33.3 M42.1,33.1c-0.6,0-0.9,0.5-0.9,1.4c-0.3,7.4-0.4,9.4-0.4,10l0,0.1c-0.1,1-0.4,5.7-1,14.1
				c-0.6,4.9-0.6,5.9-0.4,6.1c0.2,0.5,0.8,0.7,2,0.7c2,0,2.9,0,3.3,0c0.1,0.1,0.3,0.7,0.2,3.5c-0.1,4.5-0.2,6.8-0.2,7
				c0,0.6,0.4,0.9,1,0.9c0.6,0,0.9-0.3,1-0.8l0-5.9v-4c0-0.6,0.2-0.9,0.6-1c0,0,0.1,0,0.2,0c0.1,0,0.2,0,0.4,0l0.2,0
				c0.2,0,0.4,0,0.5,0c0.1,0,0.2,0,0.2,0c0.5,0,0.8-0.1,1-0.3c0.1-0.1,0.2-0.3,0.2-0.6c0-0.3-0.1-0.9-1.1-0.9c-0.1,0-0.2,0-0.3,0
				c-0.7,0.1-1.2,0.1-1.5,0.1c-0.1,0-0.2,0-0.2,0c-0.1-0.4-0.2-2.7-0.2-3.6c0-0.3,0-1.7,0.1-4.6c0.1-1.7,0.1-3,0.1-3.2
				c-0.1-0.4-0.4-0.7-0.9-0.8c-0.1,0-0.1,0-0.2,0c-0.3,0-0.7,0.2-0.8,1.1c0,0.7-0.1,2.2-0.1,4.4c0,4.4,0,6.4-0.1,6.7
				c-0.1,0.1-0.4,0.2-1.6,0.2c-0.2,0-0.3,0-0.5,0c-0.6,0-1.1,0-1.4-0.1c-0.3-0.1-0.4-0.5-0.3-0.9c0.1-1.6,0.3-2.7,0.4-3.4l0-0.1
				c0.2-1.4,0.6-7.2,1.2-15.5c0.2-2.4,0.2-4.1,0.2-5.5c0-1,0.1-2.4,0.2-4C43.2,33.4,42.6,33.1,42.1,33.1
				C42.2,33.1,42.1,33.1,42.1,33.1L42.1,33.1z"/>
		</g>
		<g>
			<path class="st1" d="M59.8,76.9c-0.6,0-0.9-0.3-0.9-0.8c0-0.3,0.1-2.5,0.2-7c0.1-2.7-0.1-3.5-0.2-3.6c-0.3,0-1.1,0-3.4,0
				c-1.1,0-1.7-0.2-1.9-0.6c-0.1-0.3-0.2-1.2,0.4-6.1c0.6-8.4,0.9-13.1,1-14.1l0,0c0-0.4,0-2.1,0.3-10.1c0-0.9,0.3-1.3,0.8-1.3
				c0.7,0,1,0.4,0.9,1.1C57,36,57,37.3,57,38.4c0,1.4-0.1,3.1-0.2,5.5c-0.6,8.3-1.1,14.1-1.2,15.5l0,0.1c-0.1,0.7-0.2,1.9-0.4,3.4
				c0,0.4,0,0.8,0.4,1c0.1,0,0.5,0.1,1.4,0.1c0.1,0,0.3,0,0.5,0c1.4,0,1.6-0.2,1.7-0.3c0-0.1,0-2,0-6.8c0-2.2,0-3.7,0.1-4.4
				c0-0.8,0.4-1,0.7-1c0.1,0,0.1,0,0.2,0c0.5,0.1,0.7,0.3,0.8,0.7c0,0.2,0,1.3-0.1,3.2c-0.1,2.9-0.1,4.2-0.1,4.6c0,1,0,3.5,0.2,3.7
				c0,0,0.1,0,0.3,0c0.3,0,0.8,0,1.5-0.1c0.1,0,0.2,0,0.3,0c0.9,0,1,0.5,1,0.8c0,0.2,0,0.4-0.2,0.5c-0.2,0.2-0.5,0.3-0.9,0.3
				c0,0-0.1,0-0.2,0c-0.1,0-0.3,0-0.5,0l-0.2,0c-0.2,0-0.3,0-0.4,0c-0.1,0-0.2,0-0.2,0c-0.5,0.1-0.7,0.6-0.7,1.1v9.8
				C60.6,76.6,60.3,76.9,59.8,76.9z"/>
			<path class="st1" d="M56.2,33.3C56.2,33.3,56.2,33.3,56.2,33.3c0.6,0,0.9,0.4,0.8,1c-0.1,1.7-0.2,3-0.2,4.1
				c0,1.5-0.1,3.3-0.2,5.5c-0.7,9.1-1.1,14.2-1.2,15.5c-0.1,0.7-0.2,1.9-0.4,3.6c0,0.6,0.2,1,0.5,1.1c0.2,0.1,0.7,0.1,1.4,0.1
				c0.2,0,0.3,0,0.5,0c1.1,0,1.6-0.2,1.8-0.3c0-0.1,0.1-2.3,0.1-6.8c0-2,0-3.5,0.1-4.4c0-0.6,0.2-0.9,0.6-0.9c0,0,0.1,0,0.1,0
				c0.4,0.1,0.6,0.3,0.7,0.6c0,0.2,0,1.2-0.1,3.2c-0.1,2.3-0.1,3.8-0.1,4.6c0,2.4,0.1,3.7,0.2,3.8c0,0,0.2,0.1,0.4,0.1
				c0.3,0,0.8,0,1.5-0.1c0.1,0,0.2,0,0.3,0c0.6,0,0.9,0.2,0.9,0.7c0,0.5-0.3,0.7-1,0.7c-0.1,0-0.1,0-0.2,0c-0.2,0-0.4,0-0.7,0
				c-0.2,0-0.3,0-0.4,0c-0.1,0-0.2,0-0.2,0c-0.5,0.1-0.7,0.5-0.8,1.2v4v5.8c-0.1,0.4-0.4,0.6-0.8,0.6c-0.5,0-0.8-0.2-0.8-0.7
				c0-0.3,0.1-2.6,0.2-7c0.1-2.3,0-3.5-0.3-3.7c0,0-1.1,0-3.4,0c-1.1,0-1.7-0.2-1.8-0.5c-0.2-0.4,0-2.4,0.5-6.1
				c0.6-8.4,0.9-13.1,1-14.1c0,0,0-0.1,0-0.1c0-0.1,0-0.1,0-0.1c0,0,0,0.1,0,0.2c0,0,0,0,0,0c0,0,0.1-3.4,0.4-10.1
				C55.5,33.7,55.7,33.3,56.2,33.3 M56.2,33.1c-0.6,0-0.9,0.5-0.9,1.4c-0.3,7.4-0.4,9.4-0.4,10l0,0.1c-0.1,1-0.4,5.7-1,14.1
				c-0.6,4.9-0.6,5.9-0.4,6.1c0.2,0.5,0.8,0.7,2,0.7c2,0,2.9,0,3.3,0c0.1,0.1,0.3,0.7,0.2,3.5c-0.1,4.5-0.2,6.8-0.2,7
				c0,0.6,0.4,0.9,1,0.9c0.6,0,0.9-0.3,1-0.8l0-5.9v-4c0-0.6,0.2-0.9,0.6-1c0,0,0.1,0,0.2,0c0.1,0,0.2,0,0.4,0l0.2,0
				c0.2,0,0.4,0,0.5,0c0.1,0,0.2,0,0.2,0c0.5,0,0.8-0.1,1-0.3c0.1-0.1,0.2-0.3,0.2-0.6c0-0.3-0.1-0.9-1.1-0.9c-0.1,0-0.2,0-0.3,0
				c-0.7,0.1-1.2,0.1-1.5,0.1c-0.1,0-0.2,0-0.2,0c-0.1-0.4-0.2-2.7-0.2-3.6c0-0.3,0-1.7,0.1-4.6c0.1-1.7,0.1-3,0.1-3.2
				c-0.1-0.4-0.4-0.7-0.9-0.8c-0.1,0-0.1,0-0.2,0c-0.3,0-0.7,0.2-0.8,1.1c0,0.7-0.1,2.2-0.1,4.4c0,4.4,0,6.4-0.1,6.7
				c-0.1,0.1-0.4,0.2-1.6,0.2c-0.2,0-0.3,0-0.5,0c-0.6,0-1.1,0-1.4-0.1c-0.3-0.1-0.4-0.5-0.3-0.9c0.1-1.6,0.3-2.7,0.4-3.4l0-0.1
				c0.2-1.4,0.6-7.2,1.2-15.5c0.2-2.4,0.2-4.1,0.2-5.5c0-1,0.1-2.4,0.2-4C57.3,33.4,56.7,33.1,56.2,33.1
				C56.3,33.1,56.2,33.1,56.2,33.1L56.2,33.1z"/>
		</g>
	</g>
	<g>
		<g>
			<path class="st1" d="M66.8,92c-0.3,0-0.6,0-0.8-0.1c-0.5-0.1-0.8-0.2-0.8-0.3c0,0,0-0.1,0-0.2c0.1-0.1,0.3-0.2,0.7-0.3
				c0.2,0,0.5-0.1,0.8-0.1l0.4,0c0.1,0,0.2,0,0.4-0.1c0.1,0,0.3-0.1,0.5-0.4c0.1-0.2,0.2-0.4,0.2-0.7l0.2-8.6l0.5-16.8l0.6-25.7
				c0,0,0.2-11.1,0.3-11.3c0-0.2,0-0.5,0-0.6c0-0.2-0.2-0.5-0.3-0.6c-0.2-0.2-0.4-0.3-0.6-0.3l-0.1,0l-0.1,0L68.2,26
				c-0.8,0.1-1.4,0.2-1.8,0.2l-0.3,0c-0.1,0-6.6,0.8-16.3,0.8c-5.7,0-11.3-0.3-16.5-0.8L31.4,26l-0.1-0.1l0,0.1c-0.1,0-0.2,0-0.3,0
				c-0.2,0-0.3,0.1-0.5,0.3c-0.1,0.1-0.2,0.3-0.3,0.5c0,0.1,0,0.2,0,0.3l1.1,42.5l0.5,19l0.1,1.3c0,0.1,0,0.1,0,0.2
				c0,0.1,0.1,0.2,0.1,0.3c0.2,0.4,0.6,0.5,0.9,0.5c1.6,0,1.7,0.1,1.7,0.3c0.1,0,0.1,0.1,0.1,0.2c0,0.1-0.1,0.2-0.2,0.3
				c-0.4,0.2-0.8,0.2-1.5,0.2l-0.2,0c-0.1,0-0.3,0-0.5,0c-0.3-0.1-0.5-0.2-0.8-0.4c-0.3-0.2-0.5-0.5-0.6-0.8
				c-0.1-0.2-0.1-0.4-0.2-0.5c0-0.1,0-0.1,0-0.2l-0.1-2.9l-0.9-36.9l-0.1-4.8l-0.2-9.9l-0.2-8.2c0-0.3,0-0.6,0-0.8
				c0-0.2,0.1-0.3,0.1-0.4c0,0,0,0,0,0c0-0.1,0.1-0.2,0.3-0.4c0.2-0.2,0.7-0.6,1.4-0.6c0.1,0,0.2,0,0.3,0c1.5,0.2,3.7,0.4,6,0.6
				c2.1,0.2,7,0.4,12,0.4c0.6,0,1.1,0,1.7,0c5.8,0,11.4-0.5,13-0.6c0.9-0.1,1.9-0.2,2.8-0.3l1.1-0.2c0.1,0,0.1,0,0.2,0
				c0.2,0,0.2,0,0.3,0c0.7,0.1,1.3,0.5,1.6,1.1c0.1,0.3,0.2,0.6,0.2,1l-0.1,5.9c0,0-0.5,22.8-0.5,22.9l-0.3,12.5l-0.5,21.3
				c0,0.1,0,0.3,0,0.4c0,0.2-0.1,0.4-0.2,0.6c-0.3,0.5-0.6,0.8-0.7,0.9c-0.3,0.2-0.5,0.3-0.8,0.4c-0.1,0-0.3,0-0.4,0
				C67,92,66.8,92,66.8,92z"/>
			<path class="st1" d="M68.6,25.2c0.1,0,0.2,0,0.2,0c0.6,0.1,1.2,0.5,1.5,1.1c0.1,0.3,0.2,0.7,0.2,0.9c0,0.3,0,0.5,0,0.8
				c0,0.5,0,1.1,0,1.6c0,1.1,0,2.2-0.1,3.4c-0.1,5.6-0.5,22.7-0.5,22.9l-0.3,12.5c-0.1,2.7-0.2,8.3-0.3,13.3
				c-0.1,2.5-0.1,4.9-0.2,6.6c0,0.4,0,0.8,0,1.2c0,0.2,0,0.3,0,0.5c0,0.2-0.1,0.4-0.1,0.5c-0.3,0.6-0.7,0.8-0.7,0.9
				c-0.2,0.2-0.5,0.3-0.7,0.3c-0.1,0-0.2,0-0.4,0c-0.1,0-0.2,0-0.3,0c-0.3,0-0.6,0-0.8-0.1c-0.4-0.1-0.7-0.1-0.7-0.2
				c0-0.1,0.2-0.3,0.6-0.3c0.2,0,0.5-0.1,0.8-0.1c0.1,0,0.3,0,0.4,0c0.1,0,0.3,0,0.4-0.1c0,0,0.3-0.1,0.6-0.4
				c0.1-0.2,0.2-0.4,0.2-0.8c0-0.4,0-0.8,0-1.3c0.1-1.9,0.1-4.5,0.2-7.3C68.7,75.6,68.8,69,69,65c0.2-8,0.4-17.9,0.6-26.3
				c0.1-4.2,0.2-8,0.2-10.9c0-0.4,0-0.8,0-1c0-0.3-0.2-0.5-0.4-0.7c-0.2-0.2-0.4-0.3-0.6-0.3c-0.1,0-0.1,0-0.2,0c0,0,0,0,0,0
				c0,0,0,0-0.1,0c0,0,0,0-0.1,0c-0.1,0-0.3,0-0.4,0.1c-1,0.1-1.7,0.2-2.1,0.3c-0.9,0.1-7.3,0.8-16.3,0.8c-4.9,0-10.6-0.2-16.5-0.8
				c-0.5-0.1-1.1-0.1-1.6-0.2l-0.2,0c-0.1,0-0.1,0-0.1,0c0,0,0,0,0,0c-0.1,0-0.2,0-0.3,0c-0.2,0.1-0.4,0.2-0.5,0.3
				c-0.1,0.2-0.3,0.3-0.3,0.5c0,0.1,0,0.2,0,0.3l0,0.4c0,0.5,0,1.1,0,1.6c0.1,2.2,0.1,4.3,0.2,6.5c0.1,4.3,0.2,8.7,0.3,12.8
				c0.2,8.3,0.4,15.8,0.5,21.2c0,1.6,0.5,17.5,0.5,19c0,0.3,0,0.7,0,1l0,0.3c0,0.1,0,0.1,0,0.2c0,0.1,0.1,0.2,0.1,0.3
				c0.2,0.4,0.6,0.6,1,0.6c0,0,0,0,0,0c1,0,1.6,0.1,1.6,0.2c0.2,0.2,0.2,0.3,0,0.4c-0.3,0.1-0.8,0.2-1.5,0.2c0,0-0.1,0-0.2,0
				c-0.1,0-0.3,0-0.5,0c-0.2-0.1-0.5-0.2-0.7-0.3c-0.2-0.2-0.4-0.4-0.6-0.7c-0.1-0.2-0.1-0.3-0.2-0.5c0-0.1,0-0.2,0-0.3
				c0-0.1,0-0.2,0-0.2c0-0.8,0-1.6,0-2.6c-0.1-4.2-0.9-35.6-0.9-36.9c0-0.9,0-2.5-0.1-4.8c0-1-0.1-5.5-0.2-9.9
				c-0.1-2.2-0.1-4.3-0.1-6c0-0.8,0-1.6-0.1-2.1c0-0.3,0-0.5,0-0.8c0-0.2,0.1-0.4,0.2-0.4c0,0,0,0,0,0c0,0,0.1-0.2,0.3-0.4
				c0.2-0.2,0.6-0.6,1.3-0.6c0.1,0,0.2,0,0.3,0c1.3,0.2,3.3,0.4,6,0.6c2.1,0.2,6.9,0.4,12,0.4c0.6,0,1.1,0,1.7,0
				c5.7,0,11.2-0.4,13-0.6c0.9-0.1,1.9-0.2,2.9-0.3c0.2,0,0.5-0.1,0.7-0.1l0.4-0.1C68.4,25.2,68.4,25.2,68.6,25.2 M68.6,25
				C68.6,25,68.6,25,68.6,25c-0.1,0-0.2,0-0.2,0l-0.1,0L68,25l-0.7,0.1c-0.9,0.1-1.8,0.2-2.8,0.3c-1.7,0.2-7.2,0.6-13,0.6
				c-0.6,0-1.1,0-1.7,0c-5,0-9.9-0.3-12-0.4c-3-0.2-4.9-0.5-6-0.6c-0.1,0-0.2,0-0.3,0c-0.7,0-1.2,0.4-1.4,0.6
				c-0.2,0.2-0.3,0.4-0.3,0.4c0,0,0,0,0,0c-0.1,0.1-0.1,0.3-0.2,0.5c-0.1,0.2,0,0.5,0,0.8l0,1.1l0,1l0.1,6l0.1,6l0.1,3.8l0.1,4.8
				l0.6,26l0.3,10.9l0,2.6l0,0.1l0,0.1l0,0.1c0,0.1,0,0.2,0,0.2c0,0.2,0.1,0.4,0.2,0.5c0.2,0.3,0.4,0.6,0.7,0.8
				c0.2,0.2,0.5,0.3,0.8,0.4c0.2,0,0.4,0.1,0.5,0.1l0.1,0c0.7,0,1.2-0.1,1.6-0.2c0.2-0.2,0.3-0.3,0.3-0.4c0-0.1-0.1-0.2-0.2-0.3
				c-0.1-0.2-0.5-0.3-1.8-0.3c0,0,0,0,0,0c-0.3,0-0.6-0.1-0.8-0.5c0-0.1-0.1-0.2-0.1-0.3c0,0,0-0.1,0-0.1l0-0.1l0-0.2l0-1l-0.5-19
				l-0.5-21.2l-0.3-12.8l0-1.6l-0.1-4.9l0-0.8l0-0.8l0-0.4c0-0.1,0-0.2,0-0.2c0-0.2,0.1-0.3,0.3-0.5c0.1-0.1,0.3-0.2,0.4-0.3
				c0.1,0,0.2,0,0.3,0c0,0,0,0,0,0l0.1,0l0.2,0l1.3,0.2l0.3,0c5.3,0.5,10.8,0.8,16.6,0.8c9.7,0,16.2-0.8,16.3-0.8l0.3,0
				c0.4-0.1,1-0.1,1.8-0.2l0.1,0l0.3,0l0-0.2l0,0.2c0,0,0,0,0.1,0c0,0,0,0,0,0c0,0,0,0,0,0c0,0,0.1,0,0.1,0l0.1,0
				c0.2,0,0.4,0.1,0.5,0.3c0.2,0.2,0.3,0.4,0.3,0.6c0,0.1,0,0.4,0,0.6c0,0.1,0,0.3,0,0.4l0,0.9l-0.2,10L69.2,48l-0.4,17l-0.3,9.7
				l-0.2,6.6l-0.1,4.8l-0.1,2.5l0,1l0,0.3c0,0.2-0.1,0.5-0.2,0.6c-0.1,0.2-0.3,0.3-0.5,0.4c0,0,0,0-0.1,0c-0.1,0-0.2,0-0.3,0l-0.2,0
				l-0.2,0c-0.3,0-0.6,0-0.8,0.1c-0.4,0.1-0.7,0.2-0.8,0.3c0,0.1-0.1,0.2,0,0.2c0.1,0.2,0.3,0.3,0.9,0.4c0.2,0,0.5,0,0.8,0.1l0.2,0
				l0.1,0c0.1,0,0.3,0,0.4,0c0.3-0.1,0.6-0.2,0.8-0.3c0,0,0,0,0,0c0.1-0.1,0.5-0.3,0.7-0.9c0.1-0.2,0.1-0.4,0.2-0.6
				c0-0.2,0-0.3,0-0.4l0-0.1l0-0.2l0-1l0.1-2.8l0.1-3.8l0.1-5.6l0.2-7.8L70,56l0.5-22.9l0-2.4l0-1l0-0.9l0-0.8l0-0.4l0-0.4
				c0-0.4-0.1-0.7-0.2-1c-0.3-0.6-0.9-1.1-1.6-1.2C68.8,25,68.7,25,68.6,25L68.6,25C68.6,25,68.6,25,68.6,25L68.6,25z"/>
		</g>
	</g>
</g>
</svg>
